<?xml version="1.0" encoding="UTF-8" standalone="no"?>
<!DOCTYPE svg PUBLIC "-//W3C//DTD SVG 1.1//EN"
 "http://www.w3.org/Graphics/SVG/1.1/DTD/svg11.dtd">
<!-- Generated by graphviz version 2.30.1 (20131017.1317)
 -->
<!-- Title: Debuntu call graph Pages: 1 -->
<svg width="4236pt" height="450pt"
 viewBox="0.00 0.00 4236.00 450.00" xmlns="http://www.w3.org/2000/svg" xmlns:xlink="http://www.w3.org/1999/xlink">
<g id="graph0" class="graph" transform="scale(1 1) rotate(0) translate(4 446)">
<title>Debuntu call graph</title>
<polygon fill="white" stroke="white" points="-4,5 -4,-446 4233,-446 4233,5 -4,5"/>
<!-- database postgresql\ninstall 9.2 -->
<g id="node1" class="node"><title>database postgresql\ninstall 9.2</title>
<ellipse fill="none" stroke="black" cx="793" cy="-280" rx="88.3424" ry="29.3315"/>
<text text-anchor="middle" x="793" y="-282.8" font-family="Times,serif" font-size="14.00">database postgresql</text>
<text text-anchor="middle" x="793" y="-266" font-family="Times,serif" font-size="14.00">install 9.2</text>
</g>
<!-- database postgresql\nadd pgdg apt\nrepository -->
<g id="node2" class="node"><title>database postgresql\nadd pgdg apt\nrepository</title>
<ellipse fill="none" stroke="black" cx="820" cy="-149" rx="88.3424" ry="41.0911"/>
<text text-anchor="middle" x="820" y="-160.2" font-family="Times,serif" font-size="14.00">database postgresql</text>
<text text-anchor="middle" x="820" y="-143.4" font-family="Times,serif" font-size="14.00">add pgdg apt</text>
<text text-anchor="middle" x="820" y="-126.6" font-family="Times,serif" font-size="14.00">repository</text>
</g>
<!-- database postgresql\ninstall 9.2&#45;&gt;database postgresql\nadd pgdg apt\nrepository -->
<g id="edge1" class="edge"><title>database postgresql\ninstall 9.2&#45;&gt;database postgresql\nadd pgdg apt\nrepository</title>
<path fill="none" stroke="black" d="M798.992,-250.371C802.083,-235.603 805.944,-217.157 809.51,-200.121"/>
<polygon fill="black" stroke="black" points="812.944,-200.796 811.567,-190.291 806.092,-199.362 812.944,-200.796"/>
</g>
<!-- invoke as user -->
<g id="node3" class="node"><title>invoke as user</title>
<ellipse fill="none" stroke="black" cx="1975" cy="-280" rx="65.9227" ry="18"/>
<text text-anchor="middle" x="1975" y="-274.4" font-family="Times,serif" font-size="14.00">invoke as user</text>
</g>
<!-- meta write functions\nfor sourcing -->
<g id="node4" class="node"><title>meta write functions\nfor sourcing</title>
<ellipse fill="none" stroke="black" cx="1980" cy="-149" rx="92.527" ry="29.3315"/>
<text text-anchor="middle" x="1980" y="-151.8" font-family="Times,serif" font-size="14.00">meta write functions</text>
<text text-anchor="middle" x="1980" y="-135" font-family="Times,serif" font-size="14.00">for sourcing</text>
</g>
<!-- invoke as user&#45;&gt;meta write functions\nfor sourcing -->
<g id="edge2" class="edge"><title>invoke as user&#45;&gt;meta write functions\nfor sourcing</title>
<path fill="none" stroke="black" d="M1975.66,-261.87C1976.38,-243.279 1977.56,-212.988 1978.5,-188.612"/>
<polygon fill="black" stroke="black" points="1982,-188.706 1978.89,-178.578 1975.01,-188.435 1982,-188.706"/>
</g>
<!-- jvm open jdk\ninstall -->
<g id="node5" class="node"><title>jvm open jdk\ninstall</title>
<ellipse fill="none" stroke="black" cx="650" cy="-149" rx="63.3349" ry="29.3315"/>
<text text-anchor="middle" x="650" y="-151.8" font-family="Times,serif" font-size="14.00">jvm open jdk</text>
<text text-anchor="middle" x="650" y="-135" font-family="Times,serif" font-size="14.00">install</text>
</g>
<!-- system meta\nos&#45;name -->
<g id="node6" class="node"><title>system meta\nos&#45;name</title>
<ellipse fill="none" stroke="black" cx="523" cy="-30" rx="60.2889" ry="29.3315"/>
<text text-anchor="middle" x="523" y="-32.8" font-family="Times,serif" font-size="14.00">system meta</text>
<text text-anchor="middle" x="523" y="-16" font-family="Times,serif" font-size="14.00">os&#45;name</text>
</g>
<!-- jvm open jdk\ninstall&#45;&gt;system meta\nos&#45;name -->
<g id="edge3" class="edge"><title>jvm open jdk\ninstall&#45;&gt;system meta\nos&#45;name</title>
<path fill="none" stroke="black" d="M622.129,-122.324C603.224,-104.907 578.088,-81.7506 557.859,-63.114"/>
<polygon fill="black" stroke="black" points="560.095,-60.4154 550.369,-56.214 555.352,-65.5638 560.095,-60.4154"/>
</g>
<!-- rails&#45;server\nsetup -->
<g id="node7" class="node"><title>rails&#45;server\nsetup</title>
<ellipse fill="none" stroke="black" cx="793" cy="-400" rx="55.2576" ry="29.3315"/>
<text text-anchor="middle" x="793" y="-402.8" font-family="Times,serif" font-size="14.00">rails&#45;server</text>
<text text-anchor="middle" x="793" y="-386" font-family="Times,serif" font-size="14.00">setup</text>
</g>
<!-- torquebox install\n3.0.0 -->
<g id="node8" class="node"><title>torquebox install\n3.0.0</title>
<ellipse fill="none" stroke="black" cx="374" cy="-280" rx="78.1885" ry="29.3315"/>
<text text-anchor="middle" x="374" y="-282.8" font-family="Times,serif" font-size="14.00">torquebox install</text>
<text text-anchor="middle" x="374" y="-266" font-family="Times,serif" font-size="14.00">3.0.0</text>
</g>
<!-- rails&#45;server\nsetup&#45;&gt;torquebox install\n3.0.0 -->
<g id="edge4" class="edge"><title>rails&#45;server\nsetup&#45;&gt;torquebox install\n3.0.0</title>
<path fill="none" stroke="black" d="M740.565,-390.401C674.303,-378.73 557.281,-355.425 461,-322 450.142,-318.23 438.833,-313.524 428.1,-308.656"/>
<polygon fill="black" stroke="black" points="429.387,-305.395 418.843,-304.357 426.438,-311.744 429.387,-305.395"/>
</g>
<!-- rails&#45;server\nsetup&#45;&gt;database postgresql\ninstall 9.2 -->
<g id="edge5" class="edge"><title>rails&#45;server\nsetup&#45;&gt;database postgresql\ninstall 9.2</title>
<path fill="none" stroke="black" d="M793,-370.435C793,-355.329 793,-336.556 793,-320.115"/>
<polygon fill="black" stroke="black" points="796.5,-319.71 793,-309.71 789.5,-319.71 796.5,-319.71"/>
</g>
<!-- database postgresql\nadd superuser -->
<g id="node9" class="node"><title>database postgresql\nadd superuser</title>
<ellipse fill="none" stroke="black" cx="559" cy="-280" rx="88.3424" ry="29.3315"/>
<text text-anchor="middle" x="559" y="-282.8" font-family="Times,serif" font-size="14.00">database postgresql</text>
<text text-anchor="middle" x="559" y="-266" font-family="Times,serif" font-size="14.00">add superuser</text>
</g>
<!-- rails&#45;server\nsetup&#45;&gt;database postgresql\nadd superuser -->
<g id="edge6" class="edge"><title>rails&#45;server\nsetup&#45;&gt;database postgresql\nadd superuser</title>
<path fill="none" stroke="black" d="M753.57,-379.116C715.831,-360.086 658.496,-331.173 615.828,-309.657"/>
<polygon fill="black" stroke="black" points="617.192,-306.425 606.687,-305.047 614.04,-312.675 617.192,-306.425"/>
</g>
<!-- rails&#45;server\nsetup&#45;&gt;invoke as user -->
<g id="edge7" class="edge"><title>rails&#45;server\nsetup&#45;&gt;invoke as user</title>
<path fill="none" stroke="black" d="M845.8,-390.749C908.251,-381.311 1015.43,-366.117 1108,-358 1283.29,-342.631 1729.42,-368.951 1899,-322 1914.38,-317.742 1930.11,-309.937 1943.24,-302.271"/>
<polygon fill="black" stroke="black" points="1945.14,-305.21 1951.87,-297.031 1941.51,-299.225 1945.14,-305.21"/>
</g>
<!-- rails&#45;server\nsetup&#45;as&#45;torquebox -->
<g id="node10" class="node"><title>rails&#45;server\nsetup&#45;as&#45;torquebox</title>
<ellipse fill="none" stroke="black" cx="987" cy="-280" rx="87.2835" ry="29.3315"/>
<text text-anchor="middle" x="987" y="-282.8" font-family="Times,serif" font-size="14.00">rails&#45;server</text>
<text text-anchor="middle" x="987" y="-266" font-family="Times,serif" font-size="14.00">setup&#45;as&#45;torquebox</text>
</g>
<!-- rails&#45;server\nsetup&#45;&gt;rails&#45;server\nsetup&#45;as&#45;torquebox -->
<g id="edge8" class="edge"><title>rails&#45;server\nsetup&#45;&gt;rails&#45;server\nsetup&#45;as&#45;torquebox</title>
<path fill="none" stroke="black" d="M828.583,-377.357C859.008,-358.851 903.129,-332.015 937.085,-311.361"/>
<polygon fill="black" stroke="black" points="939.203,-314.169 945.928,-305.982 935.565,-308.188 939.203,-314.169"/>
</g>
<!-- torquebox install\n3.0.0&#45;&gt;jvm open jdk\ninstall -->
<g id="edge20" class="edge"><title>torquebox install\n3.0.0&#45;&gt;jvm open jdk\ninstall</title>
<path fill="none" stroke="black" d="M419.532,-256.08C432.744,-249.83 447.304,-243.322 461,-238 511.315,-218.446 528.628,-225.962 577,-202 588.662,-196.223 600.496,-188.67 611.145,-181.118"/>
<polygon fill="black" stroke="black" points="613.387,-183.816 619.405,-175.096 609.263,-178.159 613.387,-183.816"/>
</g>
<!-- torquebox setup\nenv loader -->
<g id="node24" class="node"><title>torquebox setup\nenv loader</title>
<ellipse fill="none" stroke="black" cx="326" cy="-149" rx="74.2377" ry="29.3315"/>
<text text-anchor="middle" x="326" y="-151.8" font-family="Times,serif" font-size="14.00">torquebox setup</text>
<text text-anchor="middle" x="326" y="-135" font-family="Times,serif" font-size="14.00">env loader</text>
</g>
<!-- torquebox install\n3.0.0&#45;&gt;torquebox setup\nenv loader -->
<g id="edge21" class="edge"><title>torquebox install\n3.0.0&#45;&gt;torquebox setup\nenv loader</title>
<path fill="none" stroke="black" d="M363.466,-250.69C356.589,-232.207 347.529,-207.86 340.042,-187.738"/>
<polygon fill="black" stroke="black" points="343.277,-186.395 336.509,-178.244 336.716,-188.836 343.277,-186.395"/>
</g>
<!-- torquebox setup\nlogrotate -->
<g id="node25" class="node"><title>torquebox setup\nlogrotate</title>
<ellipse fill="none" stroke="black" cx="494" cy="-149" rx="74.2377" ry="29.3315"/>
<text text-anchor="middle" x="494" y="-151.8" font-family="Times,serif" font-size="14.00">torquebox setup</text>
<text text-anchor="middle" x="494" y="-135" font-family="Times,serif" font-size="14.00">logrotate</text>
</g>
<!-- torquebox install\n3.0.0&#45;&gt;torquebox setup\nlogrotate -->
<g id="edge22" class="edge"><title>torquebox install\n3.0.0&#45;&gt;torquebox setup\nlogrotate</title>
<path fill="none" stroke="black" d="M399.156,-251.957C417.396,-232.349 442.212,-205.673 461.884,-184.525"/>
<polygon fill="black" stroke="black" points="464.629,-186.713 468.877,-177.007 459.503,-181.945 464.629,-186.713"/>
</g>
<!-- torquebox setup\nstart stop\nscripts -->
<g id="node26" class="node"><title>torquebox setup\nstart stop\nscripts</title>
<ellipse fill="none" stroke="black" cx="158" cy="-149" rx="74.2377" ry="41.0911"/>
<text text-anchor="middle" x="158" y="-160.2" font-family="Times,serif" font-size="14.00">torquebox setup</text>
<text text-anchor="middle" x="158" y="-143.4" font-family="Times,serif" font-size="14.00">start stop</text>
<text text-anchor="middle" x="158" y="-126.6" font-family="Times,serif" font-size="14.00">scripts</text>
</g>
<!-- torquebox install\n3.0.0&#45;&gt;torquebox setup\nstart stop\nscripts -->
<g id="edge23" class="edge"><title>torquebox install\n3.0.0&#45;&gt;torquebox setup\nstart stop\nscripts</title>
<path fill="none" stroke="black" d="M332.22,-255.002C306.173,-239.949 272.016,-220.041 242,-202 233.4,-196.831 224.344,-191.309 215.49,-185.865"/>
<polygon fill="black" stroke="black" points="217.076,-182.732 206.727,-180.464 213.403,-188.691 217.076,-182.732"/>
</g>
<!-- ruby rbenv install -->
<g id="node11" class="node"><title>ruby rbenv install</title>
<ellipse fill="none" stroke="black" cx="1144" cy="-149" rx="79.2379" ry="18"/>
<text text-anchor="middle" x="1144" y="-143.4" font-family="Times,serif" font-size="14.00">ruby rbenv install</text>
</g>
<!-- rails&#45;server\nsetup&#45;as&#45;torquebox&#45;&gt;ruby rbenv install -->
<g id="edge9" class="edge"><title>rails&#45;server\nsetup&#45;as&#45;torquebox&#45;&gt;ruby rbenv install</title>
<path fill="none" stroke="black" d="M1019.15,-252.584C1047.61,-229.203 1088.72,-195.421 1115.89,-173.098"/>
<polygon fill="black" stroke="black" points="1118.34,-175.615 1123.84,-166.562 1113.89,-170.207 1118.34,-175.615"/>
</g>
<!-- ruby rbenv install\nruby 2.0.0 -->
<g id="node12" class="node"><title>ruby rbenv install\nruby 2.0.0</title>
<ellipse fill="none" stroke="black" cx="1460" cy="-149" rx="81.2202" ry="29.3315"/>
<text text-anchor="middle" x="1460" y="-151.8" font-family="Times,serif" font-size="14.00">ruby rbenv install</text>
<text text-anchor="middle" x="1460" y="-135" font-family="Times,serif" font-size="14.00">ruby 2.0.0</text>
</g>
<!-- rails&#45;server\nsetup&#45;as&#45;torquebox&#45;&gt;ruby rbenv install\nruby 2.0.0 -->
<g id="edge10" class="edge"><title>rails&#45;server\nsetup&#45;as&#45;torquebox&#45;&gt;ruby rbenv install\nruby 2.0.0</title>
<path fill="none" stroke="black" d="M1036.69,-255.829C1051.4,-249.505 1067.67,-243.02 1083,-238 1097.31,-233.314 1276.35,-192.06 1382.46,-167.735"/>
<polygon fill="black" stroke="black" points="1383.53,-171.081 1392.5,-165.436 1381.97,-164.258 1383.53,-171.081"/>
</g>
<!-- ruby rbenv install\nruby -->
<g id="node14" class="node"><title>ruby rbenv install\nruby</title>
<ellipse fill="none" stroke="black" cx="1640" cy="-30" rx="81.2202" ry="29.3315"/>
<text text-anchor="middle" x="1640" y="-32.8" font-family="Times,serif" font-size="14.00">ruby rbenv install</text>
<text text-anchor="middle" x="1640" y="-16" font-family="Times,serif" font-size="14.00">ruby</text>
</g>
<!-- ruby rbenv install\nruby 2.0.0&#45;&gt;ruby rbenv install\nruby -->
<g id="edge13" class="edge"><title>ruby rbenv install\nruby 2.0.0&#45;&gt;ruby rbenv install\nruby</title>
<path fill="none" stroke="black" d="M1498.61,-122.901C1526.26,-104.933 1563.62,-80.6447 1593,-61.5498"/>
<polygon fill="black" stroke="black" points="1594.97,-64.4424 1601.45,-56.0579 1591.16,-58.5733 1594.97,-64.4424"/>
</g>
<!-- ruby rbenv install\njruby 1.7.4 -->
<g id="node13" class="node"><title>ruby rbenv install\njruby 1.7.4</title>
<ellipse fill="none" stroke="black" cx="2172" cy="-149" rx="81.2202" ry="29.3315"/>
<text text-anchor="middle" x="2172" y="-151.8" font-family="Times,serif" font-size="14.00">ruby rbenv install</text>
<text text-anchor="middle" x="2172" y="-135" font-family="Times,serif" font-size="14.00">jruby 1.7.4</text>
</g>
<!-- ruby rbenv install\njruby 1.7.4&#45;&gt;ruby rbenv install\nruby -->
<g id="edge11" class="edge"><title>ruby rbenv install\njruby 1.7.4&#45;&gt;ruby rbenv install\nruby</title>
<path fill="none" stroke="black" d="M2134.99,-122.662C2119.03,-112.867 2099.75,-102.478 2081,-96 1964.14,-55.6152 1821.39,-40.3212 1730.57,-34.5295"/>
<polygon fill="black" stroke="black" points="1730.77,-31.0356 1720.58,-33.9174 1730.35,-38.0225 1730.77,-31.0356"/>
</g>
<!-- ruby rbenv install\nruby 1.9.3 -->
<g id="node15" class="node"><title>ruby rbenv install\nruby 1.9.3</title>
<ellipse fill="none" stroke="black" cx="1640" cy="-149" rx="81.2202" ry="29.3315"/>
<text text-anchor="middle" x="1640" y="-151.8" font-family="Times,serif" font-size="14.00">ruby rbenv install</text>
<text text-anchor="middle" x="1640" y="-135" font-family="Times,serif" font-size="14.00">ruby 1.9.3</text>
</g>
<!-- ruby rbenv install\nruby 1.9.3&#45;&gt;ruby rbenv install\nruby -->
<g id="edge12" class="edge"><title>ruby rbenv install\nruby 1.9.3&#45;&gt;ruby rbenv install\nruby</title>
<path fill="none" stroke="black" d="M1640,-119.379C1640,-104.506 1640,-86.1109 1640,-69.9607"/>
<polygon fill="black" stroke="black" points="1643.5,-69.7314 1640,-59.7314 1636.5,-69.7315 1643.5,-69.7314"/>
</g>
<!-- ssh download\nand add to\nauthorized\nkeys -->
<g id="node16" class="node"><title>ssh download\nand add to\nauthorized\nkeys</title>
<ellipse fill="none" stroke="black" cx="2383" cy="-149" rx="65.2282" ry="53.3494"/>
<text text-anchor="middle" x="2383" y="-168.6" font-family="Times,serif" font-size="14.00">ssh download</text>
<text text-anchor="middle" x="2383" y="-151.8" font-family="Times,serif" font-size="14.00">and add to</text>
<text text-anchor="middle" x="2383" y="-135" font-family="Times,serif" font-size="14.00">authorized</text>
<text text-anchor="middle" x="2383" y="-118.2" font-family="Times,serif" font-size="14.00">keys</text>
</g>
<!-- ssh add to authorized\nkeys -->
<g id="node17" class="node"><title>ssh add to authorized\nkeys</title>
<ellipse fill="none" stroke="black" cx="2383" cy="-30" rx="95.247" ry="29.3315"/>
<text text-anchor="middle" x="2383" y="-32.8" font-family="Times,serif" font-size="14.00">ssh add to authorized</text>
<text text-anchor="middle" x="2383" y="-16" font-family="Times,serif" font-size="14.00">keys</text>
</g>
<!-- ssh download\nand add to\nauthorized\nkeys&#45;&gt;ssh add to authorized\nkeys -->
<g id="edge14" class="edge"><title>ssh download\nand add to\nauthorized\nkeys&#45;&gt;ssh add to authorized\nkeys</title>
<path fill="none" stroke="black" d="M2383,-95.6598C2383,-86.9325 2383,-78.0204 2383,-69.7119"/>
<polygon fill="black" stroke="black" points="2386.5,-69.5699 2383,-59.57 2379.5,-69.57 2386.5,-69.5699"/>
</g>
<!-- system setup -->
<g id="node18" class="node"><title>system setup</title>
<ellipse fill="none" stroke="black" cx="3496" cy="-400" rx="60.4901" ry="18"/>
<text text-anchor="middle" x="3496" y="-394.4" font-family="Times,serif" font-size="14.00">system setup</text>
</g>
<!-- system apt upgrade -->
<g id="node19" class="node"><title>system apt upgrade</title>
<ellipse fill="none" stroke="black" cx="3189" cy="-280" rx="85.3851" ry="18"/>
<text text-anchor="middle" x="3189" y="-274.4" font-family="Times,serif" font-size="14.00">system apt upgrade</text>
</g>
<!-- system setup&#45;&gt;system apt upgrade -->
<g id="edge15" class="edge"><title>system setup&#45;&gt;system apt upgrade</title>
<path fill="none" stroke="black" d="M3457.83,-385.9C3415.19,-371.088 3344.23,-345.912 3284,-322 3267.27,-315.358 3249.08,-307.635 3233.14,-300.693"/>
<polygon fill="black" stroke="black" points="3234.1,-297.294 3223.54,-296.489 3231.3,-303.706 3234.1,-297.294"/>
</g>
<!-- system misc\nset us&#45;utf8\nlocale -->
<g id="node20" class="node"><title>system misc\nset us&#45;utf8\nlocale</title>
<ellipse fill="none" stroke="black" cx="3353" cy="-280" rx="59.4771" ry="41.0911"/>
<text text-anchor="middle" x="3353" y="-291.2" font-family="Times,serif" font-size="14.00">system misc</text>
<text text-anchor="middle" x="3353" y="-274.4" font-family="Times,serif" font-size="14.00">set us&#45;utf8</text>
<text text-anchor="middle" x="3353" y="-257.6" font-family="Times,serif" font-size="14.00">locale</text>
</g>
<!-- system setup&#45;&gt;system misc\nset us&#45;utf8\nlocale -->
<g id="edge16" class="edge"><title>system setup&#45;&gt;system misc\nset us&#45;utf8\nlocale</title>
<path fill="none" stroke="black" d="M3476.42,-382.84C3456.52,-366.423 3424.99,-340.405 3398.78,-318.777"/>
<polygon fill="black" stroke="black" points="3400.78,-315.886 3390.84,-312.221 3396.32,-321.285 3400.78,-315.886"/>
</g>
<!-- system install\nbasics -->
<g id="node21" class="node"><title>system install\nbasics</title>
<ellipse fill="none" stroke="black" cx="3496" cy="-280" rx="65.2282" ry="29.3315"/>
<text text-anchor="middle" x="3496" y="-282.8" font-family="Times,serif" font-size="14.00">system install</text>
<text text-anchor="middle" x="3496" y="-266" font-family="Times,serif" font-size="14.00">basics</text>
</g>
<!-- system setup&#45;&gt;system install\nbasics -->
<g id="edge17" class="edge"><title>system setup&#45;&gt;system install\nbasics</title>
<path fill="none" stroke="black" d="M3496,-381.842C3496,-365.656 3496,-340.815 3496,-319.838"/>
<polygon fill="black" stroke="black" points="3499.5,-319.597 3496,-309.597 3492.5,-319.597 3499.5,-319.597"/>
</g>
<!-- system misc\nvim setup -->
<g id="node22" class="node"><title>system misc\nvim setup</title>
<ellipse fill="none" stroke="black" cx="3639" cy="-280" rx="59.4771" ry="29.3315"/>
<text text-anchor="middle" x="3639" y="-282.8" font-family="Times,serif" font-size="14.00">system misc</text>
<text text-anchor="middle" x="3639" y="-266" font-family="Times,serif" font-size="14.00">vim setup</text>
</g>
<!-- system setup&#45;&gt;system misc\nvim setup -->
<g id="edge18" class="edge"><title>system setup&#45;&gt;system misc\nvim setup</title>
<path fill="none" stroke="black" d="M3515.58,-382.84C3537.58,-364.686 3573.81,-334.792 3601.34,-312.076"/>
<polygon fill="black" stroke="black" points="3603.73,-314.642 3609.22,-305.577 3599.27,-309.242 3603.73,-314.642"/>
</g>
<!-- system misc\netckeeper setup -->
<g id="node23" class="node"><title>system misc\netckeeper setup</title>
<ellipse fill="none" stroke="black" cx="3790" cy="-280" rx="72.4007" ry="29.3315"/>
<text text-anchor="middle" x="3790" y="-282.8" font-family="Times,serif" font-size="14.00">system misc</text>
<text text-anchor="middle" x="3790" y="-266" font-family="Times,serif" font-size="14.00">etckeeper setup</text>
</g>
<!-- system setup&#45;&gt;system misc\netckeeper setup -->
<g id="edge19" class="edge"><title>system setup&#45;&gt;system misc\netckeeper setup</title>
<path fill="none" stroke="black" d="M3535,-386.194C3577.72,-371.835 3648.03,-347.238 3707,-322 3716.96,-317.74 3727.42,-312.882 3737.43,-308.036"/>
<polygon fill="black" stroke="black" points="3739.04,-311.149 3746.48,-303.607 3735.96,-304.862 3739.04,-311.149"/>
</g>
<!-- torquebox setup\nstart stop\nscripts&#45;&gt;system meta\nos&#45;name -->
<g id="edge24" class="edge"><title>torquebox setup\nstart stop\nscripts&#45;&gt;system meta\nos&#45;name</title>
<path fill="none" stroke="black" d="M203.644,-116.013C215.705,-108.618 228.996,-101.358 242,-96 311.88,-67.209 397.041,-49.7725 455.171,-40.3099"/>
<polygon fill="black" stroke="black" points="456.015,-43.7197 465.341,-38.6909 454.915,-36.8068 456.015,-43.7197"/>
</g>
<!-- torquebox setup\ninit -->
<g id="node27" class="node"><title>torquebox setup\ninit</title>
<ellipse fill="none" stroke="black" cx="242" cy="-30" rx="74.2377" ry="29.3315"/>
<text text-anchor="middle" x="242" y="-32.8" font-family="Times,serif" font-size="14.00">torquebox setup</text>
<text text-anchor="middle" x="242" y="-16" font-family="Times,serif" font-size="14.00">init</text>
</g>
<!-- torquebox setup\nstart stop\nscripts&#45;&gt;torquebox setup\ninit -->
<g id="edge25" class="edge"><title>torquebox setup\nstart stop\nscripts&#45;&gt;torquebox setup\ninit</title>
<path fill="none" stroke="black" d="M185.041,-110.336C195.049,-96.3956 206.362,-80.6388 216.253,-66.8625"/>
<polygon fill="black" stroke="black" points="219.214,-68.7391 222.203,-58.5746 213.528,-64.6566 219.214,-68.7391"/>
</g>
<!-- torquebox setup\nupstart -->
<g id="node28" class="node"><title>torquebox setup\nupstart</title>
<ellipse fill="none" stroke="black" cx="74" cy="-30" rx="74.2377" ry="29.3315"/>
<text text-anchor="middle" x="74" y="-32.8" font-family="Times,serif" font-size="14.00">torquebox setup</text>
<text text-anchor="middle" x="74" y="-16" font-family="Times,serif" font-size="14.00">upstart</text>
</g>
<!-- torquebox setup\nstart stop\nscripts&#45;&gt;torquebox setup\nupstart -->
<g id="edge26" class="edge"><title>torquebox setup\nstart stop\nscripts&#45;&gt;torquebox setup\nupstart</title>
<path fill="none" stroke="black" d="M130.959,-110.336C120.951,-96.3956 109.638,-80.6388 99.7474,-66.8625"/>
<polygon fill="black" stroke="black" points="102.472,-64.6566 93.7971,-58.5746 96.7861,-68.7391 102.472,-64.6566"/>
</g>
<!-- zhdk domina&#45;slave\ncomplete&#45;setup -->
<g id="node29" class="node"><title>zhdk domina&#45;slave\ncomplete&#45;setup</title>
<ellipse fill="none" stroke="black" cx="1203" cy="-400" rx="86.044" ry="29.3315"/>
<text text-anchor="middle" x="1203" y="-402.8" font-family="Times,serif" font-size="14.00">zhdk domina&#45;slave</text>
<text text-anchor="middle" x="1203" y="-386" font-family="Times,serif" font-size="14.00">complete&#45;setup</text>
</g>
<!-- zhdk domina&#45;slave\ncomplete&#45;setup&#45;&gt;jvm open jdk\ninstall -->
<g id="edge27" class="edge"><title>zhdk domina&#45;slave\ncomplete&#45;setup&#45;&gt;jvm open jdk\ninstall</title>
<path fill="none" stroke="black" d="M1122.8,-389.179C983.665,-371.815 710.77,-336.189 695,-322 675.415,-304.379 661.941,-233.781 655.136,-188.691"/>
<polygon fill="black" stroke="black" points="658.578,-188.044 653.667,-178.656 651.652,-189.058 658.578,-188.044"/>
</g>
<!-- zhdk domina&#45;ci&#45;executor\nsetup -->
<g id="node30" class="node"><title>zhdk domina&#45;ci&#45;executor\nsetup</title>
<ellipse fill="none" stroke="black" cx="1203" cy="-280" rx="110.311" ry="29.3315"/>
<text text-anchor="middle" x="1203" y="-282.8" font-family="Times,serif" font-size="14.00">zhdk domina&#45;ci&#45;executor</text>
<text text-anchor="middle" x="1203" y="-266" font-family="Times,serif" font-size="14.00">setup</text>
</g>
<!-- zhdk domina&#45;slave\ncomplete&#45;setup&#45;&gt;zhdk domina&#45;ci&#45;executor\nsetup -->
<g id="edge28" class="edge"><title>zhdk domina&#45;slave\ncomplete&#45;setup&#45;&gt;zhdk domina&#45;ci&#45;executor\nsetup</title>
<path fill="none" stroke="black" d="M1203,-370.435C1203,-355.329 1203,-336.556 1203,-320.115"/>
<polygon fill="black" stroke="black" points="1206.5,-319.71 1203,-309.71 1199.5,-319.71 1206.5,-319.71"/>
</g>
<!-- zhdk domina&#45;slave\ncomplete&#45;setup&#45;&gt;database postgresql\ninstall 9.2 -->
<g id="edge29" class="edge"><title>zhdk domina&#45;slave\ncomplete&#45;setup&#45;&gt;database postgresql\ninstall 9.2</title>
<path fill="none" stroke="black" d="M1129.91,-384.306C1066.1,-370.688 971.39,-348.56 891,-322 878.65,-317.92 865.667,-312.976 853.337,-307.954"/>
<polygon fill="black" stroke="black" points="854.636,-304.704 844.057,-304.112 851.958,-311.171 854.636,-304.704"/>
</g>
<!-- zhdk domina&#45;slave\ncomplete&#45;setup&#45;&gt;database postgresql\nadd superuser -->
<g id="edge30" class="edge"><title>zhdk domina&#45;slave\ncomplete&#45;setup&#45;&gt;database postgresql\nadd superuser</title>
<path fill="none" stroke="black" d="M1121.86,-389.846C992.891,-374.894 747.032,-344.63 662,-322 647.946,-318.26 633.215,-313.155 619.431,-307.818"/>
<polygon fill="black" stroke="black" points="620.645,-304.535 610.059,-304.1 618.063,-311.041 620.645,-304.535"/>
</g>
<!-- ci tightvnc\ninstall -->
<g id="node31" class="node"><title>ci tightvnc\ninstall</title>
<ellipse fill="none" stroke="black" cx="1385" cy="-280" rx="53.0661" ry="29.3315"/>
<text text-anchor="middle" x="1385" y="-282.8" font-family="Times,serif" font-size="14.00">ci tightvnc</text>
<text text-anchor="middle" x="1385" y="-266" font-family="Times,serif" font-size="14.00">install</text>
</g>
<!-- zhdk domina&#45;slave\ncomplete&#45;setup&#45;&gt;ci tightvnc\ninstall -->
<g id="edge31" class="edge"><title>zhdk domina&#45;slave\ncomplete&#45;setup&#45;&gt;ci tightvnc\ninstall</title>
<path fill="none" stroke="black" d="M1242.14,-373.709C1265.36,-358.697 1295.37,-339.28 1322,-322 1328.7,-317.655 1335.79,-313.045 1342.71,-308.545"/>
<polygon fill="black" stroke="black" points="1344.86,-311.32 1351.33,-302.933 1341.04,-305.452 1344.86,-311.32"/>
</g>
<!-- zhdk domina&#45;slave\ncomplete&#45;setup&#45;&gt;invoke as user -->
<g id="edge32" class="edge"><title>zhdk domina&#45;slave\ncomplete&#45;setup&#45;&gt;invoke as user</title>
<path fill="none" stroke="black" d="M1287.43,-393.716C1446.97,-383.065 1786.79,-357.012 1899,-322 1913.86,-317.365 1929.16,-309.747 1942.11,-302.328"/>
<polygon fill="black" stroke="black" points="1944.26,-305.119 1951.08,-297.007 1940.69,-299.099 1944.26,-305.119"/>
</g>
<!-- zhdk complete&#45;setup&#45;as&#45;user -->
<g id="node32" class="node"><title>zhdk complete&#45;setup&#45;as&#45;user</title>
<ellipse fill="none" stroke="black" cx="1578" cy="-280" rx="121.171" ry="18"/>
<text text-anchor="middle" x="1578" y="-274.4" font-family="Times,serif" font-size="14.00">zhdk complete&#45;setup&#45;as&#45;user</text>
</g>
<!-- zhdk domina&#45;slave\ncomplete&#45;setup&#45;&gt;zhdk complete&#45;setup&#45;as&#45;user -->
<g id="edge33" class="edge"><title>zhdk domina&#45;slave\ncomplete&#45;setup&#45;&gt;zhdk complete&#45;setup&#45;as&#45;user</title>
<path fill="none" stroke="black" d="M1264.92,-379.515C1335.41,-357.335 1449.72,-321.366 1518.98,-299.573"/>
<polygon fill="black" stroke="black" points="1520.37,-302.804 1528.86,-296.463 1518.27,-296.126 1520.37,-302.804"/>
</g>
<!-- zhdk domina&#45;slave\ncomplete&#45;setup&#45;as&#45;user -->
<g id="node33" class="node"><title>zhdk domina&#45;slave\ncomplete&#45;setup&#45;as&#45;user</title>
<ellipse fill="none" stroke="black" cx="2757" cy="-400" rx="103.181" ry="29.3315"/>
<text text-anchor="middle" x="2757" y="-402.8" font-family="Times,serif" font-size="14.00">zhdk domina&#45;slave</text>
<text text-anchor="middle" x="2757" y="-386" font-family="Times,serif" font-size="14.00">complete&#45;setup&#45;as&#45;user</text>
</g>
<!-- zhdk ssh add&#45;keys -->
<g id="node34" class="node"><title>zhdk ssh add&#45;keys</title>
<ellipse fill="none" stroke="black" cx="2430" cy="-280" rx="81.2634" ry="18"/>
<text text-anchor="middle" x="2430" y="-274.4" font-family="Times,serif" font-size="14.00">zhdk ssh add&#45;keys</text>
</g>
<!-- zhdk domina&#45;slave\ncomplete&#45;setup&#45;as&#45;user&#45;&gt;zhdk ssh add&#45;keys -->
<g id="edge34" class="edge"><title>zhdk domina&#45;slave\ncomplete&#45;setup&#45;as&#45;user&#45;&gt;zhdk ssh add&#45;keys</title>
<path fill="none" stroke="black" d="M2687.12,-378.371C2639.78,-363.869 2576.06,-343.315 2521,-322 2504.67,-315.68 2487.06,-307.963 2471.72,-300.935"/>
<polygon fill="black" stroke="black" points="2473.04,-297.689 2462.49,-296.667 2470.1,-304.042 2473.04,-297.689"/>
</g>
<!-- ci chromedriver\ninstall -->
<g id="node35" class="node"><title>ci chromedriver\ninstall</title>
<ellipse fill="none" stroke="black" cx="2604" cy="-280" rx="73.8819" ry="29.3315"/>
<text text-anchor="middle" x="2604" y="-282.8" font-family="Times,serif" font-size="14.00">ci chromedriver</text>
<text text-anchor="middle" x="2604" y="-266" font-family="Times,serif" font-size="14.00">install</text>
</g>
<!-- zhdk domina&#45;slave\ncomplete&#45;setup&#45;as&#45;user&#45;&gt;ci chromedriver\ninstall -->
<g id="edge35" class="edge"><title>zhdk domina&#45;slave\ncomplete&#45;setup&#45;as&#45;user&#45;&gt;ci chromedriver\ninstall</title>
<path fill="none" stroke="black" d="M2722.28,-372.224C2699.31,-354.507 2669.09,-331.199 2644.94,-312.577"/>
<polygon fill="black" stroke="black" points="2647.06,-309.792 2637.01,-306.457 2642.79,-315.335 2647.06,-309.792"/>
</g>
<!-- zhdk ci ruby\ninstall -->
<g id="node36" class="node"><title>zhdk ci ruby\ninstall</title>
<ellipse fill="none" stroke="black" cx="2757" cy="-280" rx="60.197" ry="29.3315"/>
<text text-anchor="middle" x="2757" y="-282.8" font-family="Times,serif" font-size="14.00">zhdk ci ruby</text>
<text text-anchor="middle" x="2757" y="-266" font-family="Times,serif" font-size="14.00">install</text>
</g>
<!-- zhdk domina&#45;slave\ncomplete&#45;setup&#45;as&#45;user&#45;&gt;zhdk ci ruby\ninstall -->
<g id="edge36" class="edge"><title>zhdk domina&#45;slave\ncomplete&#45;setup&#45;as&#45;user&#45;&gt;zhdk ci ruby\ninstall</title>
<path fill="none" stroke="black" d="M2757,-370.435C2757,-355.329 2757,-336.556 2757,-320.115"/>
<polygon fill="black" stroke="black" points="2760.5,-319.71 2757,-309.71 2753.5,-319.71 2760.5,-319.71"/>
</g>
<!-- ci phantomjs\ninstall -->
<g id="node37" class="node"><title>ci phantomjs\ninstall</title>
<ellipse fill="none" stroke="black" cx="2898" cy="-280" rx="62.269" ry="29.3315"/>
<text text-anchor="middle" x="2898" y="-282.8" font-family="Times,serif" font-size="14.00">ci phantomjs</text>
<text text-anchor="middle" x="2898" y="-266" font-family="Times,serif" font-size="14.00">install</text>
</g>
<!-- zhdk domina&#45;slave\ncomplete&#45;setup&#45;as&#45;user&#45;&gt;ci phantomjs\ninstall -->
<g id="edge37" class="edge"><title>zhdk domina&#45;slave\ncomplete&#45;setup&#45;as&#45;user&#45;&gt;ci phantomjs\ninstall</title>
<path fill="none" stroke="black" d="M2789.35,-371.928C2810.49,-354.233 2838.19,-331.055 2860.33,-312.529"/>
<polygon fill="black" stroke="black" points="2862.79,-315.034 2868.21,-305.932 2858.29,-309.666 2862.79,-315.034"/>
</g>
<!-- ci tightvnc\nuser setup -->
<g id="node38" class="node"><title>ci tightvnc\nuser setup</title>
<ellipse fill="none" stroke="black" cx="3032" cy="-280" rx="53.0661" ry="29.3315"/>
<text text-anchor="middle" x="3032" y="-282.8" font-family="Times,serif" font-size="14.00">ci tightvnc</text>
<text text-anchor="middle" x="3032" y="-266" font-family="Times,serif" font-size="14.00">user setup</text>
</g>
<!-- zhdk domina&#45;slave\ncomplete&#45;setup&#45;as&#45;user&#45;&gt;ci tightvnc\nuser setup -->
<g id="edge38" class="edge"><title>zhdk domina&#45;slave\ncomplete&#45;setup&#45;as&#45;user&#45;&gt;ci tightvnc\nuser setup</title>
<path fill="none" stroke="black" d="M2826.44,-378.229C2868.66,-364.522 2923.1,-344.896 2969,-322 2976.55,-318.232 2984.31,-313.751 2991.69,-309.157"/>
<polygon fill="black" stroke="black" points="2993.61,-312.087 3000.14,-303.748 2989.83,-306.191 2993.61,-312.087"/>
</g>
<!-- zhdk ssh add&#45;keys&#45;&gt;ssh download\nand add to\nauthorized\nkeys -->
<g id="edge47" class="edge"><title>zhdk ssh add&#45;keys&#45;&gt;ssh download\nand add to\nauthorized\nkeys</title>
<path fill="none" stroke="black" d="M2423.76,-261.87C2418.85,-248.385 2411.69,-228.743 2404.74,-209.668"/>
<polygon fill="black" stroke="black" points="2407.96,-208.279 2401.25,-200.081 2401.38,-210.675 2407.96,-208.279"/>
</g>
<!-- setup scripts -->
<g id="node46" class="node"><title>setup scripts</title>
<ellipse fill="none" stroke="black" cx="2526" cy="-149" rx="59.0716" ry="18"/>
<text text-anchor="middle" x="2526" y="-143.4" font-family="Times,serif" font-size="14.00">setup scripts</text>
</g>
<!-- zhdk ssh add&#45;keys&#45;&gt;setup scripts -->
<g id="edge48" class="edge"><title>zhdk ssh add&#45;keys&#45;&gt;setup scripts</title>
<path fill="none" stroke="black" d="M2442.55,-262.136C2459.08,-239.924 2488.28,-200.683 2507.39,-175.011"/>
<polygon fill="black" stroke="black" points="2510.28,-176.981 2513.45,-166.869 2504.67,-172.801 2510.28,-176.981"/>
</g>
<!-- zhdk domina&#45;slave\ndomina&#45;ci&#45;executor\nas&#45;domina&#45;setup -->
<g id="node39" class="node"><title>zhdk domina&#45;slave\ndomina&#45;ci&#45;executor\nas&#45;domina&#45;setup</title>
<ellipse fill="none" stroke="black" cx="4070" cy="-400" rx="88.2352" ry="41.0911"/>
<text text-anchor="middle" x="4070" y="-411.2" font-family="Times,serif" font-size="14.00">zhdk domina&#45;slave</text>
<text text-anchor="middle" x="4070" y="-394.4" font-family="Times,serif" font-size="14.00">domina&#45;ci&#45;executor</text>
<text text-anchor="middle" x="4070" y="-377.6" font-family="Times,serif" font-size="14.00">as&#45;domina&#45;setup</text>
</g>
<!-- ci domina&#45;ci&#45;executor\ninstall -->
<g id="node40" class="node"><title>ci domina&#45;ci&#45;executor\ninstall</title>
<ellipse fill="none" stroke="black" cx="3979" cy="-280" rx="98.1629" ry="29.3315"/>
<text text-anchor="middle" x="3979" y="-282.8" font-family="Times,serif" font-size="14.00">ci domina&#45;ci&#45;executor</text>
<text text-anchor="middle" x="3979" y="-266" font-family="Times,serif" font-size="14.00">install</text>
</g>
<!-- zhdk domina&#45;slave\ndomina&#45;ci&#45;executor\nas&#45;domina&#45;setup&#45;&gt;ci domina&#45;ci&#45;executor\ninstall -->
<g id="edge39" class="edge"><title>zhdk domina&#45;slave\ndomina&#45;ci&#45;executor\nas&#45;domina&#45;setup&#45;&gt;ci domina&#45;ci&#45;executor\ninstall</title>
<path fill="none" stroke="black" d="M4040.71,-361.015C4029.76,-346.822 4017.38,-330.763 4006.59,-316.776"/>
<polygon fill="black" stroke="black" points="4009.33,-314.592 4000.45,-308.81 4003.78,-318.866 4009.33,-314.592"/>
</g>
<!-- jvm leiningen\ninstall -->
<g id="node41" class="node"><title>jvm leiningen\ninstall</title>
<ellipse fill="none" stroke="black" cx="4161" cy="-280" rx="66.0402" ry="29.3315"/>
<text text-anchor="middle" x="4161" y="-282.8" font-family="Times,serif" font-size="14.00">jvm leiningen</text>
<text text-anchor="middle" x="4161" y="-266" font-family="Times,serif" font-size="14.00">install</text>
</g>
<!-- zhdk domina&#45;slave\ndomina&#45;ci&#45;executor\nas&#45;domina&#45;setup&#45;&gt;jvm leiningen\ninstall -->
<g id="edge40" class="edge"><title>zhdk domina&#45;slave\ndomina&#45;ci&#45;executor\nas&#45;domina&#45;setup&#45;&gt;jvm leiningen\ninstall</title>
<path fill="none" stroke="black" d="M4099.29,-361.015C4110.41,-346.597 4123.02,-330.253 4133.92,-316.112"/>
<polygon fill="black" stroke="black" points="4136.79,-318.128 4140.12,-308.072 4131.24,-313.853 4136.79,-318.128"/>
</g>
<!-- zhdk domina&#45;slave\ndomina&#45;ci&#45;executor\nsetup -->
<g id="node42" class="node"><title>zhdk domina&#45;slave\ndomina&#45;ci&#45;executor\nsetup</title>
<ellipse fill="none" stroke="black" cx="2072" cy="-400" rx="88.2352" ry="41.0911"/>
<text text-anchor="middle" x="2072" y="-411.2" font-family="Times,serif" font-size="14.00">zhdk domina&#45;slave</text>
<text text-anchor="middle" x="2072" y="-394.4" font-family="Times,serif" font-size="14.00">domina&#45;ci&#45;executor</text>
<text text-anchor="middle" x="2072" y="-377.6" font-family="Times,serif" font-size="14.00">setup</text>
</g>
<!-- zhdk domina&#45;slave\ndomina&#45;ci&#45;executor\nsetup&#45;&gt;invoke as user -->
<g id="edge41" class="edge"><title>zhdk domina&#45;slave\ndomina&#45;ci&#45;executor\nsetup&#45;&gt;invoke as user</title>
<path fill="none" stroke="black" d="M2040.77,-361.015C2025.87,-342.885 2008.46,-321.71 1995.3,-305.699"/>
<polygon fill="black" stroke="black" points="1997.9,-303.342 1988.84,-297.84 1992.49,-307.787 1997.9,-303.342"/>
</g>
<!-- zhdk domina&#45;ci&#45;executor\nas&#45;domina&#45;setup -->
<g id="node43" class="node"><title>zhdk domina&#45;ci&#45;executor\nas&#45;domina&#45;setup</title>
<ellipse fill="none" stroke="black" cx="2170" cy="-280" rx="110.311" ry="29.3315"/>
<text text-anchor="middle" x="2170" y="-282.8" font-family="Times,serif" font-size="14.00">zhdk domina&#45;ci&#45;executor</text>
<text text-anchor="middle" x="2170" y="-266" font-family="Times,serif" font-size="14.00">as&#45;domina&#45;setup</text>
</g>
<!-- zhdk domina&#45;slave\ndomina&#45;ci&#45;executor\nsetup&#45;&gt;zhdk domina&#45;ci&#45;executor\nas&#45;domina&#45;setup -->
<g id="edge42" class="edge"><title>zhdk domina&#45;slave\ndomina&#45;ci&#45;executor\nsetup&#45;&gt;zhdk domina&#45;ci&#45;executor\nas&#45;domina&#45;setup</title>
<path fill="none" stroke="black" d="M2103.28,-361.34C2115.08,-347.131 2128.46,-331.015 2140.13,-316.965"/>
<polygon fill="black" stroke="black" points="2143.08,-318.891 2146.78,-308.962 2137.7,-314.419 2143.08,-318.891"/>
</g>
<!-- zhdk domina&#45;slave\nruby install -->
<g id="node44" class="node"><title>zhdk domina&#45;slave\nruby install</title>
<ellipse fill="none" stroke="black" cx="1804" cy="-280" rx="86.044" ry="29.3315"/>
<text text-anchor="middle" x="1804" y="-282.8" font-family="Times,serif" font-size="14.00">zhdk domina&#45;slave</text>
<text text-anchor="middle" x="1804" y="-266" font-family="Times,serif" font-size="14.00">ruby install</text>
</g>
<!-- zhdk domina&#45;slave\nruby install&#45;&gt;ruby rbenv install -->
<g id="edge43" class="edge"><title>zhdk domina&#45;slave\nruby install&#45;&gt;ruby rbenv install</title>
<path fill="none" stroke="black" d="M1756.15,-255.255C1741.07,-248.681 1724.13,-242.204 1708,-238 1561.81,-199.912 1518.99,-226.982 1370,-202 1312.97,-192.437 1248.79,-177.235 1203.43,-165.732"/>
<polygon fill="black" stroke="black" points="1204.03,-162.273 1193.48,-163.19 1202.3,-169.056 1204.03,-162.273"/>
</g>
<!-- zhdk domina&#45;slave\nruby install&#45;&gt;ruby rbenv install\nruby 1.9.3 -->
<g id="edge44" class="edge"><title>zhdk domina&#45;slave\nruby install&#45;&gt;ruby rbenv install\nruby 1.9.3</title>
<path fill="none" stroke="black" d="M1770.42,-252.584C1744.49,-232.188 1708.5,-203.878 1680.89,-182.164"/>
<polygon fill="black" stroke="black" points="1683,-179.372 1672.98,-175.94 1678.67,-184.874 1683,-179.372"/>
</g>
<!-- zhdk domina&#45;slave\nruby install&#45;&gt;ruby rbenv install\nruby 2.0.0 -->
<g id="edge45" class="edge"><title>zhdk domina&#45;slave\nruby install&#45;&gt;ruby rbenv install\nruby 2.0.0</title>
<path fill="none" stroke="black" d="M1754.33,-255.778C1739.62,-249.452 1723.34,-242.979 1708,-238 1639.5,-215.767 1617.04,-228.311 1550,-202 1535.26,-196.214 1520.04,-188.282 1506.41,-180.357"/>
<polygon fill="black" stroke="black" points="1508.09,-177.282 1497.71,-175.172 1504.51,-183.296 1508.09,-177.282"/>
</g>
<!-- zhdk ci ruby\ngherkin setup\nragel lexer -->
<g id="node45" class="node"><title>zhdk ci ruby\ngherkin setup\nragel lexer</title>
<ellipse fill="none" stroke="black" cx="1804" cy="-149" rx="64.3877" ry="41.0911"/>
<text text-anchor="middle" x="1804" y="-160.2" font-family="Times,serif" font-size="14.00">zhdk ci ruby</text>
<text text-anchor="middle" x="1804" y="-143.4" font-family="Times,serif" font-size="14.00">gherkin setup</text>
<text text-anchor="middle" x="1804" y="-126.6" font-family="Times,serif" font-size="14.00">ragel lexer</text>
</g>
<!-- zhdk domina&#45;slave\nruby install&#45;&gt;zhdk ci ruby\ngherkin setup\nragel lexer -->
<g id="edge46" class="edge"><title>zhdk domina&#45;slave\nruby install&#45;&gt;zhdk ci ruby\ngherkin setup\nragel lexer</title>
<path fill="none" stroke="black" d="M1804,-250.371C1804,-235.864 1804,-217.807 1804,-201.025"/>
<polygon fill="black" stroke="black" points="1807.5,-200.783 1804,-190.783 1800.5,-200.783 1807.5,-200.783"/>
</g>
</g>
</svg>
