<?xml version="1.0" encoding="UTF-8" standalone="no"?>
<!DOCTYPE svg PUBLIC "-//W3C//DTD SVG 1.1//EN"
 "http://www.w3.org/Graphics/SVG/1.1/DTD/svg11.dtd">
<!-- Generated by graphviz version 2.30.1 (20131017.1317)
 -->
<!-- Title: Debuntu call graph Pages: 1 -->
<svg width="4243pt" height="450pt"
 viewBox="0.00 0.00 4243.00 450.00" xmlns="http://www.w3.org/2000/svg" xmlns:xlink="http://www.w3.org/1999/xlink">
<g id="graph0" class="graph" transform="scale(1 1) rotate(0) translate(4 446)">
<title>Debuntu call graph</title>
<polygon fill="white" stroke="white" points="-4,5 -4,-446 4240,-446 4240,5 -4,5"/>
<!-- database postgresql\ninstall 9.2 -->
<g id="node1" class="node"><title>database postgresql\ninstall 9.2</title>
<ellipse fill="none" stroke="black" cx="709" cy="-280" rx="88.3424" ry="29.3315"/>
<text text-anchor="middle" x="709" y="-282.8" font-family="Times,serif" font-size="14.00">database postgresql</text>
<text text-anchor="middle" x="709" y="-266" font-family="Times,serif" font-size="14.00">install 9.2</text>
</g>
<!-- database postgresql\nadd pgdg apt\nrepository -->
<g id="node2" class="node"><title>database postgresql\nadd pgdg apt\nrepository</title>
<ellipse fill="none" stroke="black" cx="736" cy="-149" rx="88.3424" ry="41.0911"/>
<text text-anchor="middle" x="736" y="-160.2" font-family="Times,serif" font-size="14.00">database postgresql</text>
<text text-anchor="middle" x="736" y="-143.4" font-family="Times,serif" font-size="14.00">add pgdg apt</text>
<text text-anchor="middle" x="736" y="-126.6" font-family="Times,serif" font-size="14.00">repository</text>
</g>
<!-- database postgresql\ninstall 9.2&#45;&gt;database postgresql\nadd pgdg apt\nrepository -->
<g id="edge1" class="edge"><title>database postgresql\ninstall 9.2&#45;&gt;database postgresql\nadd pgdg apt\nrepository</title>
<path fill="none" stroke="black" d="M714.992,-250.371C718.083,-235.603 721.944,-217.157 725.51,-200.121"/>
<polygon fill="black" stroke="black" points="728.944,-200.796 727.567,-190.291 722.092,-199.362 728.944,-200.796"/>
</g>
<!-- invoke as user -->
<g id="node3" class="node"><title>invoke as user</title>
<ellipse fill="none" stroke="black" cx="1891" cy="-280" rx="65.9227" ry="18"/>
<text text-anchor="middle" x="1891" y="-274.4" font-family="Times,serif" font-size="14.00">invoke as user</text>
</g>
<!-- meta write functions\nfor sourcing -->
<g id="node4" class="node"><title>meta write functions\nfor sourcing</title>
<ellipse fill="none" stroke="black" cx="1896" cy="-149" rx="92.527" ry="29.3315"/>
<text text-anchor="middle" x="1896" y="-151.8" font-family="Times,serif" font-size="14.00">meta write functions</text>
<text text-anchor="middle" x="1896" y="-135" font-family="Times,serif" font-size="14.00">for sourcing</text>
</g>
<!-- invoke as user&#45;&gt;meta write functions\nfor sourcing -->
<g id="edge2" class="edge"><title>invoke as user&#45;&gt;meta write functions\nfor sourcing</title>
<path fill="none" stroke="black" d="M1891.66,-261.87C1892.38,-243.279 1893.56,-212.988 1894.5,-188.612"/>
<polygon fill="black" stroke="black" points="1898,-188.706 1894.89,-178.578 1891.01,-188.435 1898,-188.706"/>
</g>
<!-- jvm leiningen\nsetup system\nservice -->
<g id="node5" class="node"><title>jvm leiningen\nsetup system\nservice</title>
<ellipse fill="none" stroke="black" cx="2276" cy="-400" rx="66.0402" ry="41.0911"/>
<text text-anchor="middle" x="2276" y="-411.2" font-family="Times,serif" font-size="14.00">jvm leiningen</text>
<text text-anchor="middle" x="2276" y="-394.4" font-family="Times,serif" font-size="14.00">setup system</text>
<text text-anchor="middle" x="2276" y="-377.6" font-family="Times,serif" font-size="14.00">service</text>
</g>
<!-- system misc\nsetup upstart\nservice -->
<g id="node6" class="node"><title>system misc\nsetup upstart\nservice</title>
<ellipse fill="none" stroke="black" cx="2276" cy="-280" rx="61.4417" ry="41.0911"/>
<text text-anchor="middle" x="2276" y="-291.2" font-family="Times,serif" font-size="14.00">system misc</text>
<text text-anchor="middle" x="2276" y="-274.4" font-family="Times,serif" font-size="14.00">setup upstart</text>
<text text-anchor="middle" x="2276" y="-257.6" font-family="Times,serif" font-size="14.00">service</text>
</g>
<!-- jvm leiningen\nsetup system\nservice&#45;&gt;system misc\nsetup upstart\nservice -->
<g id="edge3" class="edge"><title>jvm leiningen\nsetup system\nservice&#45;&gt;system misc\nsetup upstart\nservice</title>
<path fill="none" stroke="black" d="M2276,-358.391C2276,-349.862 2276,-340.763 2276,-331.912"/>
<polygon fill="black" stroke="black" points="2279.5,-331.684 2276,-321.684 2272.5,-331.684 2279.5,-331.684"/>
</g>
<!-- system misc\nsetup logrotate -->
<g id="node18" class="node"><title>system misc\nsetup logrotate</title>
<ellipse fill="none" stroke="black" cx="2276" cy="-149" rx="69.3055" ry="29.3315"/>
<text text-anchor="middle" x="2276" y="-151.8" font-family="Times,serif" font-size="14.00">system misc</text>
<text text-anchor="middle" x="2276" y="-135" font-family="Times,serif" font-size="14.00">setup logrotate</text>
</g>
<!-- system misc\nsetup upstart\nservice&#45;&gt;system misc\nsetup logrotate -->
<g id="edge15" class="edge"><title>system misc\nsetup upstart\nservice&#45;&gt;system misc\nsetup logrotate</title>
<path fill="none" stroke="black" d="M2276,-238.538C2276,-222.688 2276,-204.579 2276,-188.886"/>
<polygon fill="black" stroke="black" points="2279.5,-188.464 2276,-178.464 2272.5,-188.464 2279.5,-188.464"/>
</g>
<!-- rails&#45;server\nsetup -->
<g id="node7" class="node"><title>rails&#45;server\nsetup</title>
<ellipse fill="none" stroke="black" cx="709" cy="-400" rx="55.2576" ry="29.3315"/>
<text text-anchor="middle" x="709" y="-402.8" font-family="Times,serif" font-size="14.00">rails&#45;server</text>
<text text-anchor="middle" x="709" y="-386" font-family="Times,serif" font-size="14.00">setup</text>
</g>
<!-- torquebox install\n3.0.0 -->
<g id="node8" class="node"><title>torquebox install\n3.0.0</title>
<ellipse fill="none" stroke="black" cx="290" cy="-280" rx="78.1885" ry="29.3315"/>
<text text-anchor="middle" x="290" y="-282.8" font-family="Times,serif" font-size="14.00">torquebox install</text>
<text text-anchor="middle" x="290" y="-266" font-family="Times,serif" font-size="14.00">3.0.0</text>
</g>
<!-- rails&#45;server\nsetup&#45;&gt;torquebox install\n3.0.0 -->
<g id="edge4" class="edge"><title>rails&#45;server\nsetup&#45;&gt;torquebox install\n3.0.0</title>
<path fill="none" stroke="black" d="M656.565,-390.401C590.303,-378.73 473.281,-355.425 377,-322 366.142,-318.23 354.833,-313.524 344.1,-308.656"/>
<polygon fill="black" stroke="black" points="345.387,-305.395 334.843,-304.357 342.438,-311.744 345.387,-305.395"/>
</g>
<!-- rails&#45;server\nsetup&#45;&gt;database postgresql\ninstall 9.2 -->
<g id="edge5" class="edge"><title>rails&#45;server\nsetup&#45;&gt;database postgresql\ninstall 9.2</title>
<path fill="none" stroke="black" d="M709,-370.435C709,-355.329 709,-336.556 709,-320.115"/>
<polygon fill="black" stroke="black" points="712.5,-319.71 709,-309.71 705.5,-319.71 712.5,-319.71"/>
</g>
<!-- database postgresql\nadd superuser -->
<g id="node9" class="node"><title>database postgresql\nadd superuser</title>
<ellipse fill="none" stroke="black" cx="475" cy="-280" rx="88.3424" ry="29.3315"/>
<text text-anchor="middle" x="475" y="-282.8" font-family="Times,serif" font-size="14.00">database postgresql</text>
<text text-anchor="middle" x="475" y="-266" font-family="Times,serif" font-size="14.00">add superuser</text>
</g>
<!-- rails&#45;server\nsetup&#45;&gt;database postgresql\nadd superuser -->
<g id="edge6" class="edge"><title>rails&#45;server\nsetup&#45;&gt;database postgresql\nadd superuser</title>
<path fill="none" stroke="black" d="M669.57,-379.116C631.831,-360.086 574.496,-331.173 531.828,-309.657"/>
<polygon fill="black" stroke="black" points="533.192,-306.425 522.687,-305.047 530.04,-312.675 533.192,-306.425"/>
</g>
<!-- rails&#45;server\nsetup&#45;&gt;invoke as user -->
<g id="edge7" class="edge"><title>rails&#45;server\nsetup&#45;&gt;invoke as user</title>
<path fill="none" stroke="black" d="M761.8,-390.749C824.251,-381.311 931.429,-366.117 1024,-358 1199.29,-342.631 1645.42,-368.951 1815,-322 1830.38,-317.742 1846.11,-309.937 1859.24,-302.271"/>
<polygon fill="black" stroke="black" points="1861.14,-305.21 1867.87,-297.031 1857.51,-299.225 1861.14,-305.21"/>
</g>
<!-- rails&#45;server\nsetup&#45;as&#45;torquebox -->
<g id="node10" class="node"><title>rails&#45;server\nsetup&#45;as&#45;torquebox</title>
<ellipse fill="none" stroke="black" cx="903" cy="-280" rx="87.2835" ry="29.3315"/>
<text text-anchor="middle" x="903" y="-282.8" font-family="Times,serif" font-size="14.00">rails&#45;server</text>
<text text-anchor="middle" x="903" y="-266" font-family="Times,serif" font-size="14.00">setup&#45;as&#45;torquebox</text>
</g>
<!-- rails&#45;server\nsetup&#45;&gt;rails&#45;server\nsetup&#45;as&#45;torquebox -->
<g id="edge8" class="edge"><title>rails&#45;server\nsetup&#45;&gt;rails&#45;server\nsetup&#45;as&#45;torquebox</title>
<path fill="none" stroke="black" d="M744.583,-377.357C775.008,-358.851 819.129,-332.015 853.085,-311.361"/>
<polygon fill="black" stroke="black" points="855.203,-314.169 861.928,-305.982 851.565,-308.188 855.203,-314.169"/>
</g>
<!-- jvm open jdk\ninstall -->
<g id="node25" class="node"><title>jvm open jdk\ninstall</title>
<ellipse fill="none" stroke="black" cx="566" cy="-149" rx="63.3349" ry="29.3315"/>
<text text-anchor="middle" x="566" y="-151.8" font-family="Times,serif" font-size="14.00">jvm open jdk</text>
<text text-anchor="middle" x="566" y="-135" font-family="Times,serif" font-size="14.00">install</text>
</g>
<!-- torquebox install\n3.0.0&#45;&gt;jvm open jdk\ninstall -->
<g id="edge21" class="edge"><title>torquebox install\n3.0.0&#45;&gt;jvm open jdk\ninstall</title>
<path fill="none" stroke="black" d="M335.532,-256.08C348.744,-249.83 363.304,-243.322 377,-238 427.315,-218.446 444.628,-225.962 493,-202 504.662,-196.223 516.496,-188.67 527.145,-181.118"/>
<polygon fill="black" stroke="black" points="529.387,-183.816 535.405,-175.096 525.263,-178.159 529.387,-183.816"/>
</g>
<!-- torquebox setup\nenv loader -->
<g id="node26" class="node"><title>torquebox setup\nenv loader</title>
<ellipse fill="none" stroke="black" cx="74" cy="-149" rx="74.2377" ry="29.3315"/>
<text text-anchor="middle" x="74" y="-151.8" font-family="Times,serif" font-size="14.00">torquebox setup</text>
<text text-anchor="middle" x="74" y="-135" font-family="Times,serif" font-size="14.00">env loader</text>
</g>
<!-- torquebox install\n3.0.0&#45;&gt;torquebox setup\nenv loader -->
<g id="edge22" class="edge"><title>torquebox install\n3.0.0&#45;&gt;torquebox setup\nenv loader</title>
<path fill="none" stroke="black" d="M248.22,-255.002C222.173,-239.949 188.016,-220.041 158,-202 146.052,-194.819 133.225,-186.956 121.28,-179.569"/>
<polygon fill="black" stroke="black" points="123.107,-176.584 112.763,-174.29 119.419,-182.533 123.107,-176.584"/>
</g>
<!-- torquebox setup\nlogrotate -->
<g id="node27" class="node"><title>torquebox setup\nlogrotate</title>
<ellipse fill="none" stroke="black" cx="242" cy="-149" rx="74.2377" ry="29.3315"/>
<text text-anchor="middle" x="242" y="-151.8" font-family="Times,serif" font-size="14.00">torquebox setup</text>
<text text-anchor="middle" x="242" y="-135" font-family="Times,serif" font-size="14.00">logrotate</text>
</g>
<!-- torquebox install\n3.0.0&#45;&gt;torquebox setup\nlogrotate -->
<g id="edge23" class="edge"><title>torquebox install\n3.0.0&#45;&gt;torquebox setup\nlogrotate</title>
<path fill="none" stroke="black" d="M279.466,-250.69C272.589,-232.207 263.529,-207.86 256.042,-187.738"/>
<polygon fill="black" stroke="black" points="259.277,-186.395 252.509,-178.244 252.716,-188.836 259.277,-186.395"/>
</g>
<!-- torquebox setup\nstart stop\nscripts -->
<g id="node28" class="node"><title>torquebox setup\nstart stop\nscripts</title>
<ellipse fill="none" stroke="black" cx="410" cy="-149" rx="74.2377" ry="41.0911"/>
<text text-anchor="middle" x="410" y="-160.2" font-family="Times,serif" font-size="14.00">torquebox setup</text>
<text text-anchor="middle" x="410" y="-143.4" font-family="Times,serif" font-size="14.00">start stop</text>
<text text-anchor="middle" x="410" y="-126.6" font-family="Times,serif" font-size="14.00">scripts</text>
</g>
<!-- torquebox install\n3.0.0&#45;&gt;torquebox setup\nstart stop\nscripts -->
<g id="edge24" class="edge"><title>torquebox install\n3.0.0&#45;&gt;torquebox setup\nstart stop\nscripts</title>
<path fill="none" stroke="black" d="M315.156,-251.957C330.809,-235.13 351.305,-213.097 369.237,-193.82"/>
<polygon fill="black" stroke="black" points="371.977,-196.014 376.225,-186.308 366.852,-191.246 371.977,-196.014"/>
</g>
<!-- ruby rbenv install -->
<g id="node11" class="node"><title>ruby rbenv install</title>
<ellipse fill="none" stroke="black" cx="1060" cy="-149" rx="79.2379" ry="18"/>
<text text-anchor="middle" x="1060" y="-143.4" font-family="Times,serif" font-size="14.00">ruby rbenv install</text>
</g>
<!-- rails&#45;server\nsetup&#45;as&#45;torquebox&#45;&gt;ruby rbenv install -->
<g id="edge9" class="edge"><title>rails&#45;server\nsetup&#45;as&#45;torquebox&#45;&gt;ruby rbenv install</title>
<path fill="none" stroke="black" d="M935.15,-252.584C963.606,-229.203 1004.72,-195.421 1031.89,-173.098"/>
<polygon fill="black" stroke="black" points="1034.34,-175.615 1039.84,-166.562 1029.89,-170.207 1034.34,-175.615"/>
</g>
<!-- ruby rbenv install\nruby 2.0.0 -->
<g id="node12" class="node"><title>ruby rbenv install\nruby 2.0.0</title>
<ellipse fill="none" stroke="black" cx="1376" cy="-149" rx="81.2202" ry="29.3315"/>
<text text-anchor="middle" x="1376" y="-151.8" font-family="Times,serif" font-size="14.00">ruby rbenv install</text>
<text text-anchor="middle" x="1376" y="-135" font-family="Times,serif" font-size="14.00">ruby 2.0.0</text>
</g>
<!-- rails&#45;server\nsetup&#45;as&#45;torquebox&#45;&gt;ruby rbenv install\nruby 2.0.0 -->
<g id="edge10" class="edge"><title>rails&#45;server\nsetup&#45;as&#45;torquebox&#45;&gt;ruby rbenv install\nruby 2.0.0</title>
<path fill="none" stroke="black" d="M952.689,-255.829C967.398,-249.505 983.672,-243.02 999,-238 1013.31,-233.314 1192.35,-192.06 1298.46,-167.735"/>
<polygon fill="black" stroke="black" points="1299.53,-171.081 1308.5,-165.436 1297.97,-164.258 1299.53,-171.081"/>
</g>
<!-- ruby rbenv install\nruby -->
<g id="node14" class="node"><title>ruby rbenv install\nruby</title>
<ellipse fill="none" stroke="black" cx="1556" cy="-30" rx="81.2202" ry="29.3315"/>
<text text-anchor="middle" x="1556" y="-32.8" font-family="Times,serif" font-size="14.00">ruby rbenv install</text>
<text text-anchor="middle" x="1556" y="-16" font-family="Times,serif" font-size="14.00">ruby</text>
</g>
<!-- ruby rbenv install\nruby 2.0.0&#45;&gt;ruby rbenv install\nruby -->
<g id="edge13" class="edge"><title>ruby rbenv install\nruby 2.0.0&#45;&gt;ruby rbenv install\nruby</title>
<path fill="none" stroke="black" d="M1414.61,-122.901C1442.26,-104.933 1479.62,-80.6447 1509,-61.5498"/>
<polygon fill="black" stroke="black" points="1510.97,-64.4424 1517.45,-56.0579 1507.16,-58.5733 1510.97,-64.4424"/>
</g>
<!-- ruby rbenv install\njruby 1.7.4 -->
<g id="node13" class="node"><title>ruby rbenv install\njruby 1.7.4</title>
<ellipse fill="none" stroke="black" cx="2088" cy="-149" rx="81.2202" ry="29.3315"/>
<text text-anchor="middle" x="2088" y="-151.8" font-family="Times,serif" font-size="14.00">ruby rbenv install</text>
<text text-anchor="middle" x="2088" y="-135" font-family="Times,serif" font-size="14.00">jruby 1.7.4</text>
</g>
<!-- ruby rbenv install\njruby 1.7.4&#45;&gt;ruby rbenv install\nruby -->
<g id="edge11" class="edge"><title>ruby rbenv install\njruby 1.7.4&#45;&gt;ruby rbenv install\nruby</title>
<path fill="none" stroke="black" d="M2050.99,-122.662C2035.03,-112.867 2015.75,-102.478 1997,-96 1880.14,-55.6152 1737.39,-40.3212 1646.57,-34.5295"/>
<polygon fill="black" stroke="black" points="1646.77,-31.0356 1636.58,-33.9174 1646.35,-38.0225 1646.77,-31.0356"/>
</g>
<!-- ruby rbenv install\nruby 1.9.3 -->
<g id="node15" class="node"><title>ruby rbenv install\nruby 1.9.3</title>
<ellipse fill="none" stroke="black" cx="1556" cy="-149" rx="81.2202" ry="29.3315"/>
<text text-anchor="middle" x="1556" y="-151.8" font-family="Times,serif" font-size="14.00">ruby rbenv install</text>
<text text-anchor="middle" x="1556" y="-135" font-family="Times,serif" font-size="14.00">ruby 1.9.3</text>
</g>
<!-- ruby rbenv install\nruby 1.9.3&#45;&gt;ruby rbenv install\nruby -->
<g id="edge12" class="edge"><title>ruby rbenv install\nruby 1.9.3&#45;&gt;ruby rbenv install\nruby</title>
<path fill="none" stroke="black" d="M1556,-119.379C1556,-104.506 1556,-86.1109 1556,-69.9607"/>
<polygon fill="black" stroke="black" points="1559.5,-69.7314 1556,-59.7314 1552.5,-69.7315 1559.5,-69.7314"/>
</g>
<!-- ssh download\nand add to\nauthorized\nkeys -->
<g id="node16" class="node"><title>ssh download\nand add to\nauthorized\nkeys</title>
<ellipse fill="none" stroke="black" cx="2437" cy="-149" rx="65.2282" ry="53.3494"/>
<text text-anchor="middle" x="2437" y="-168.6" font-family="Times,serif" font-size="14.00">ssh download</text>
<text text-anchor="middle" x="2437" y="-151.8" font-family="Times,serif" font-size="14.00">and add to</text>
<text text-anchor="middle" x="2437" y="-135" font-family="Times,serif" font-size="14.00">authorized</text>
<text text-anchor="middle" x="2437" y="-118.2" font-family="Times,serif" font-size="14.00">keys</text>
</g>
<!-- ssh add to authorized\nkeys -->
<g id="node17" class="node"><title>ssh add to authorized\nkeys</title>
<ellipse fill="none" stroke="black" cx="2437" cy="-30" rx="95.247" ry="29.3315"/>
<text text-anchor="middle" x="2437" y="-32.8" font-family="Times,serif" font-size="14.00">ssh add to authorized</text>
<text text-anchor="middle" x="2437" y="-16" font-family="Times,serif" font-size="14.00">keys</text>
</g>
<!-- ssh download\nand add to\nauthorized\nkeys&#45;&gt;ssh add to authorized\nkeys -->
<g id="edge14" class="edge"><title>ssh download\nand add to\nauthorized\nkeys&#45;&gt;ssh add to authorized\nkeys</title>
<path fill="none" stroke="black" d="M2437,-95.6598C2437,-86.9325 2437,-78.0204 2437,-69.7119"/>
<polygon fill="black" stroke="black" points="2440.5,-69.5699 2437,-59.57 2433.5,-69.57 2440.5,-69.5699"/>
</g>
<!-- system setup -->
<g id="node19" class="node"><title>system setup</title>
<ellipse fill="none" stroke="black" cx="3503" cy="-400" rx="60.4901" ry="18"/>
<text text-anchor="middle" x="3503" y="-394.4" font-family="Times,serif" font-size="14.00">system setup</text>
</g>
<!-- system apt upgrade -->
<g id="node20" class="node"><title>system apt upgrade</title>
<ellipse fill="none" stroke="black" cx="3196" cy="-280" rx="85.3851" ry="18"/>
<text text-anchor="middle" x="3196" y="-274.4" font-family="Times,serif" font-size="14.00">system apt upgrade</text>
</g>
<!-- system setup&#45;&gt;system apt upgrade -->
<g id="edge16" class="edge"><title>system setup&#45;&gt;system apt upgrade</title>
<path fill="none" stroke="black" d="M3464.83,-385.9C3422.19,-371.088 3351.23,-345.912 3291,-322 3274.27,-315.358 3256.08,-307.635 3240.14,-300.693"/>
<polygon fill="black" stroke="black" points="3241.1,-297.294 3230.54,-296.489 3238.3,-303.706 3241.1,-297.294"/>
</g>
<!-- system misc\nset us&#45;utf8\nlocale -->
<g id="node21" class="node"><title>system misc\nset us&#45;utf8\nlocale</title>
<ellipse fill="none" stroke="black" cx="3360" cy="-280" rx="59.4771" ry="41.0911"/>
<text text-anchor="middle" x="3360" y="-291.2" font-family="Times,serif" font-size="14.00">system misc</text>
<text text-anchor="middle" x="3360" y="-274.4" font-family="Times,serif" font-size="14.00">set us&#45;utf8</text>
<text text-anchor="middle" x="3360" y="-257.6" font-family="Times,serif" font-size="14.00">locale</text>
</g>
<!-- system setup&#45;&gt;system misc\nset us&#45;utf8\nlocale -->
<g id="edge17" class="edge"><title>system setup&#45;&gt;system misc\nset us&#45;utf8\nlocale</title>
<path fill="none" stroke="black" d="M3483.42,-382.84C3463.52,-366.423 3431.99,-340.405 3405.78,-318.777"/>
<polygon fill="black" stroke="black" points="3407.78,-315.886 3397.84,-312.221 3403.32,-321.285 3407.78,-315.886"/>
</g>
<!-- system install\nbasics -->
<g id="node22" class="node"><title>system install\nbasics</title>
<ellipse fill="none" stroke="black" cx="3503" cy="-280" rx="65.2282" ry="29.3315"/>
<text text-anchor="middle" x="3503" y="-282.8" font-family="Times,serif" font-size="14.00">system install</text>
<text text-anchor="middle" x="3503" y="-266" font-family="Times,serif" font-size="14.00">basics</text>
</g>
<!-- system setup&#45;&gt;system install\nbasics -->
<g id="edge18" class="edge"><title>system setup&#45;&gt;system install\nbasics</title>
<path fill="none" stroke="black" d="M3503,-381.842C3503,-365.656 3503,-340.815 3503,-319.838"/>
<polygon fill="black" stroke="black" points="3506.5,-319.597 3503,-309.597 3499.5,-319.597 3506.5,-319.597"/>
</g>
<!-- system misc\nvim setup -->
<g id="node23" class="node"><title>system misc\nvim setup</title>
<ellipse fill="none" stroke="black" cx="3646" cy="-280" rx="59.4771" ry="29.3315"/>
<text text-anchor="middle" x="3646" y="-282.8" font-family="Times,serif" font-size="14.00">system misc</text>
<text text-anchor="middle" x="3646" y="-266" font-family="Times,serif" font-size="14.00">vim setup</text>
</g>
<!-- system setup&#45;&gt;system misc\nvim setup -->
<g id="edge19" class="edge"><title>system setup&#45;&gt;system misc\nvim setup</title>
<path fill="none" stroke="black" d="M3522.58,-382.84C3544.58,-364.686 3580.81,-334.792 3608.34,-312.076"/>
<polygon fill="black" stroke="black" points="3610.73,-314.642 3616.22,-305.577 3606.27,-309.242 3610.73,-314.642"/>
</g>
<!-- system misc\netckeeper setup -->
<g id="node24" class="node"><title>system misc\netckeeper setup</title>
<ellipse fill="none" stroke="black" cx="3797" cy="-280" rx="72.4007" ry="29.3315"/>
<text text-anchor="middle" x="3797" y="-282.8" font-family="Times,serif" font-size="14.00">system misc</text>
<text text-anchor="middle" x="3797" y="-266" font-family="Times,serif" font-size="14.00">etckeeper setup</text>
</g>
<!-- system setup&#45;&gt;system misc\netckeeper setup -->
<g id="edge20" class="edge"><title>system setup&#45;&gt;system misc\netckeeper setup</title>
<path fill="none" stroke="black" d="M3542,-386.194C3584.72,-371.835 3655.03,-347.238 3714,-322 3723.96,-317.74 3734.42,-312.882 3744.43,-308.036"/>
<polygon fill="black" stroke="black" points="3746.04,-311.149 3753.48,-303.607 3742.96,-304.862 3746.04,-311.149"/>
</g>
<!-- torquebox setup\ninit -->
<g id="node29" class="node"><title>torquebox setup\ninit</title>
<ellipse fill="none" stroke="black" cx="494" cy="-30" rx="74.2377" ry="29.3315"/>
<text text-anchor="middle" x="494" y="-32.8" font-family="Times,serif" font-size="14.00">torquebox setup</text>
<text text-anchor="middle" x="494" y="-16" font-family="Times,serif" font-size="14.00">init</text>
</g>
<!-- torquebox setup\nstart stop\nscripts&#45;&gt;torquebox setup\ninit -->
<g id="edge25" class="edge"><title>torquebox setup\nstart stop\nscripts&#45;&gt;torquebox setup\ninit</title>
<path fill="none" stroke="black" d="M437.041,-110.336C447.049,-96.3956 458.362,-80.6388 468.253,-66.8625"/>
<polygon fill="black" stroke="black" points="471.214,-68.7391 474.203,-58.5746 465.528,-64.6566 471.214,-68.7391"/>
</g>
<!-- torquebox setup\nupstart -->
<g id="node30" class="node"><title>torquebox setup\nupstart</title>
<ellipse fill="none" stroke="black" cx="326" cy="-30" rx="74.2377" ry="29.3315"/>
<text text-anchor="middle" x="326" y="-32.8" font-family="Times,serif" font-size="14.00">torquebox setup</text>
<text text-anchor="middle" x="326" y="-16" font-family="Times,serif" font-size="14.00">upstart</text>
</g>
<!-- torquebox setup\nstart stop\nscripts&#45;&gt;torquebox setup\nupstart -->
<g id="edge26" class="edge"><title>torquebox setup\nstart stop\nscripts&#45;&gt;torquebox setup\nupstart</title>
<path fill="none" stroke="black" d="M382.959,-110.336C372.951,-96.3956 361.638,-80.6388 351.747,-66.8625"/>
<polygon fill="black" stroke="black" points="354.472,-64.6566 345.797,-58.5746 348.786,-68.7391 354.472,-64.6566"/>
</g>
<!-- zhdk domina&#45;slave\ncomplete&#45;setup -->
<g id="node31" class="node"><title>zhdk domina&#45;slave\ncomplete&#45;setup</title>
<ellipse fill="none" stroke="black" cx="1119" cy="-400" rx="86.044" ry="29.3315"/>
<text text-anchor="middle" x="1119" y="-402.8" font-family="Times,serif" font-size="14.00">zhdk domina&#45;slave</text>
<text text-anchor="middle" x="1119" y="-386" font-family="Times,serif" font-size="14.00">complete&#45;setup</text>
</g>
<!-- zhdk domina&#45;slave\ncomplete&#45;setup&#45;&gt;jvm open jdk\ninstall -->
<g id="edge27" class="edge"><title>zhdk domina&#45;slave\ncomplete&#45;setup&#45;&gt;jvm open jdk\ninstall</title>
<path fill="none" stroke="black" d="M1038.8,-389.179C899.665,-371.815 626.77,-336.189 611,-322 591.415,-304.379 577.941,-233.781 571.136,-188.691"/>
<polygon fill="black" stroke="black" points="574.578,-188.044 569.667,-178.656 567.652,-189.058 574.578,-188.044"/>
</g>
<!-- zhdk domina&#45;ci&#45;executor\nsetup -->
<g id="node32" class="node"><title>zhdk domina&#45;ci&#45;executor\nsetup</title>
<ellipse fill="none" stroke="black" cx="1119" cy="-280" rx="110.311" ry="29.3315"/>
<text text-anchor="middle" x="1119" y="-282.8" font-family="Times,serif" font-size="14.00">zhdk domina&#45;ci&#45;executor</text>
<text text-anchor="middle" x="1119" y="-266" font-family="Times,serif" font-size="14.00">setup</text>
</g>
<!-- zhdk domina&#45;slave\ncomplete&#45;setup&#45;&gt;zhdk domina&#45;ci&#45;executor\nsetup -->
<g id="edge28" class="edge"><title>zhdk domina&#45;slave\ncomplete&#45;setup&#45;&gt;zhdk domina&#45;ci&#45;executor\nsetup</title>
<path fill="none" stroke="black" d="M1119,-370.435C1119,-355.329 1119,-336.556 1119,-320.115"/>
<polygon fill="black" stroke="black" points="1122.5,-319.71 1119,-309.71 1115.5,-319.71 1122.5,-319.71"/>
</g>
<!-- zhdk domina&#45;slave\ncomplete&#45;setup&#45;&gt;database postgresql\ninstall 9.2 -->
<g id="edge29" class="edge"><title>zhdk domina&#45;slave\ncomplete&#45;setup&#45;&gt;database postgresql\ninstall 9.2</title>
<path fill="none" stroke="black" d="M1045.91,-384.306C982.105,-370.688 887.39,-348.56 807,-322 794.65,-317.92 781.667,-312.976 769.337,-307.954"/>
<polygon fill="black" stroke="black" points="770.636,-304.704 760.057,-304.112 767.958,-311.171 770.636,-304.704"/>
</g>
<!-- zhdk domina&#45;slave\ncomplete&#45;setup&#45;&gt;database postgresql\nadd superuser -->
<g id="edge30" class="edge"><title>zhdk domina&#45;slave\ncomplete&#45;setup&#45;&gt;database postgresql\nadd superuser</title>
<path fill="none" stroke="black" d="M1037.86,-389.846C908.891,-374.894 663.032,-344.63 578,-322 563.946,-318.26 549.215,-313.155 535.431,-307.818"/>
<polygon fill="black" stroke="black" points="536.645,-304.535 526.059,-304.1 534.063,-311.041 536.645,-304.535"/>
</g>
<!-- ci tightvnc\ninstall -->
<g id="node33" class="node"><title>ci tightvnc\ninstall</title>
<ellipse fill="none" stroke="black" cx="1301" cy="-280" rx="53.0661" ry="29.3315"/>
<text text-anchor="middle" x="1301" y="-282.8" font-family="Times,serif" font-size="14.00">ci tightvnc</text>
<text text-anchor="middle" x="1301" y="-266" font-family="Times,serif" font-size="14.00">install</text>
</g>
<!-- zhdk domina&#45;slave\ncomplete&#45;setup&#45;&gt;ci tightvnc\ninstall -->
<g id="edge31" class="edge"><title>zhdk domina&#45;slave\ncomplete&#45;setup&#45;&gt;ci tightvnc\ninstall</title>
<path fill="none" stroke="black" d="M1158.14,-373.709C1181.36,-358.697 1211.37,-339.28 1238,-322 1244.7,-317.655 1251.79,-313.045 1258.71,-308.545"/>
<polygon fill="black" stroke="black" points="1260.86,-311.32 1267.33,-302.933 1257.04,-305.452 1260.86,-311.32"/>
</g>
<!-- zhdk domina&#45;slave\ncomplete&#45;setup&#45;&gt;invoke as user -->
<g id="edge32" class="edge"><title>zhdk domina&#45;slave\ncomplete&#45;setup&#45;&gt;invoke as user</title>
<path fill="none" stroke="black" d="M1203.43,-393.716C1362.97,-383.065 1702.79,-357.012 1815,-322 1829.86,-317.365 1845.16,-309.747 1858.11,-302.328"/>
<polygon fill="black" stroke="black" points="1860.26,-305.119 1867.08,-297.007 1856.69,-299.099 1860.26,-305.119"/>
</g>
<!-- zhdk complete&#45;setup&#45;as&#45;user -->
<g id="node34" class="node"><title>zhdk complete&#45;setup&#45;as&#45;user</title>
<ellipse fill="none" stroke="black" cx="1494" cy="-280" rx="121.171" ry="18"/>
<text text-anchor="middle" x="1494" y="-274.4" font-family="Times,serif" font-size="14.00">zhdk complete&#45;setup&#45;as&#45;user</text>
</g>
<!-- zhdk domina&#45;slave\ncomplete&#45;setup&#45;&gt;zhdk complete&#45;setup&#45;as&#45;user -->
<g id="edge33" class="edge"><title>zhdk domina&#45;slave\ncomplete&#45;setup&#45;&gt;zhdk complete&#45;setup&#45;as&#45;user</title>
<path fill="none" stroke="black" d="M1180.92,-379.515C1251.41,-357.335 1365.72,-321.366 1434.98,-299.573"/>
<polygon fill="black" stroke="black" points="1436.37,-302.804 1444.86,-296.463 1434.27,-296.126 1436.37,-302.804"/>
</g>
<!-- zhdk domina&#45;slave\ncomplete&#45;setup&#45;as&#45;user -->
<g id="node35" class="node"><title>zhdk domina&#45;slave\ncomplete&#45;setup&#45;as&#45;user</title>
<ellipse fill="none" stroke="black" cx="2764" cy="-400" rx="103.181" ry="29.3315"/>
<text text-anchor="middle" x="2764" y="-402.8" font-family="Times,serif" font-size="14.00">zhdk domina&#45;slave</text>
<text text-anchor="middle" x="2764" y="-386" font-family="Times,serif" font-size="14.00">complete&#45;setup&#45;as&#45;user</text>
</g>
<!-- zhdk ssh add&#45;keys -->
<g id="node36" class="node"><title>zhdk ssh add&#45;keys</title>
<ellipse fill="none" stroke="black" cx="2437" cy="-280" rx="81.2634" ry="18"/>
<text text-anchor="middle" x="2437" y="-274.4" font-family="Times,serif" font-size="14.00">zhdk ssh add&#45;keys</text>
</g>
<!-- zhdk domina&#45;slave\ncomplete&#45;setup&#45;as&#45;user&#45;&gt;zhdk ssh add&#45;keys -->
<g id="edge34" class="edge"><title>zhdk domina&#45;slave\ncomplete&#45;setup&#45;as&#45;user&#45;&gt;zhdk ssh add&#45;keys</title>
<path fill="none" stroke="black" d="M2694.12,-378.371C2646.78,-363.869 2583.06,-343.315 2528,-322 2511.67,-315.68 2494.06,-307.963 2478.72,-300.935"/>
<polygon fill="black" stroke="black" points="2480.04,-297.689 2469.49,-296.667 2477.1,-304.042 2480.04,-297.689"/>
</g>
<!-- ci chromedriver\ninstall -->
<g id="node37" class="node"><title>ci chromedriver\ninstall</title>
<ellipse fill="none" stroke="black" cx="2611" cy="-280" rx="73.8819" ry="29.3315"/>
<text text-anchor="middle" x="2611" y="-282.8" font-family="Times,serif" font-size="14.00">ci chromedriver</text>
<text text-anchor="middle" x="2611" y="-266" font-family="Times,serif" font-size="14.00">install</text>
</g>
<!-- zhdk domina&#45;slave\ncomplete&#45;setup&#45;as&#45;user&#45;&gt;ci chromedriver\ninstall -->
<g id="edge35" class="edge"><title>zhdk domina&#45;slave\ncomplete&#45;setup&#45;as&#45;user&#45;&gt;ci chromedriver\ninstall</title>
<path fill="none" stroke="black" d="M2729.28,-372.224C2706.31,-354.507 2676.09,-331.199 2651.94,-312.577"/>
<polygon fill="black" stroke="black" points="2654.06,-309.792 2644.01,-306.457 2649.79,-315.335 2654.06,-309.792"/>
</g>
<!-- zhdk ci ruby\ninstall -->
<g id="node38" class="node"><title>zhdk ci ruby\ninstall</title>
<ellipse fill="none" stroke="black" cx="2764" cy="-280" rx="60.197" ry="29.3315"/>
<text text-anchor="middle" x="2764" y="-282.8" font-family="Times,serif" font-size="14.00">zhdk ci ruby</text>
<text text-anchor="middle" x="2764" y="-266" font-family="Times,serif" font-size="14.00">install</text>
</g>
<!-- zhdk domina&#45;slave\ncomplete&#45;setup&#45;as&#45;user&#45;&gt;zhdk ci ruby\ninstall -->
<g id="edge36" class="edge"><title>zhdk domina&#45;slave\ncomplete&#45;setup&#45;as&#45;user&#45;&gt;zhdk ci ruby\ninstall</title>
<path fill="none" stroke="black" d="M2764,-370.435C2764,-355.329 2764,-336.556 2764,-320.115"/>
<polygon fill="black" stroke="black" points="2767.5,-319.71 2764,-309.71 2760.5,-319.71 2767.5,-319.71"/>
</g>
<!-- ci phantomjs\ninstall -->
<g id="node39" class="node"><title>ci phantomjs\ninstall</title>
<ellipse fill="none" stroke="black" cx="2905" cy="-280" rx="62.269" ry="29.3315"/>
<text text-anchor="middle" x="2905" y="-282.8" font-family="Times,serif" font-size="14.00">ci phantomjs</text>
<text text-anchor="middle" x="2905" y="-266" font-family="Times,serif" font-size="14.00">install</text>
</g>
<!-- zhdk domina&#45;slave\ncomplete&#45;setup&#45;as&#45;user&#45;&gt;ci phantomjs\ninstall -->
<g id="edge37" class="edge"><title>zhdk domina&#45;slave\ncomplete&#45;setup&#45;as&#45;user&#45;&gt;ci phantomjs\ninstall</title>
<path fill="none" stroke="black" d="M2796.35,-371.928C2817.49,-354.233 2845.19,-331.055 2867.33,-312.529"/>
<polygon fill="black" stroke="black" points="2869.79,-315.034 2875.21,-305.932 2865.29,-309.666 2869.79,-315.034"/>
</g>
<!-- ci tightvnc\nuser setup -->
<g id="node40" class="node"><title>ci tightvnc\nuser setup</title>
<ellipse fill="none" stroke="black" cx="3039" cy="-280" rx="53.0661" ry="29.3315"/>
<text text-anchor="middle" x="3039" y="-282.8" font-family="Times,serif" font-size="14.00">ci tightvnc</text>
<text text-anchor="middle" x="3039" y="-266" font-family="Times,serif" font-size="14.00">user setup</text>
</g>
<!-- zhdk domina&#45;slave\ncomplete&#45;setup&#45;as&#45;user&#45;&gt;ci tightvnc\nuser setup -->
<g id="edge38" class="edge"><title>zhdk domina&#45;slave\ncomplete&#45;setup&#45;as&#45;user&#45;&gt;ci tightvnc\nuser setup</title>
<path fill="none" stroke="black" d="M2833.44,-378.229C2875.66,-364.522 2930.1,-344.896 2976,-322 2983.55,-318.232 2991.31,-313.751 2998.69,-309.157"/>
<polygon fill="black" stroke="black" points="3000.61,-312.087 3007.14,-303.748 2996.83,-306.191 3000.61,-312.087"/>
</g>
<!-- zhdk ssh add&#45;keys&#45;&gt;ssh download\nand add to\nauthorized\nkeys -->
<g id="edge47" class="edge"><title>zhdk ssh add&#45;keys&#45;&gt;ssh download\nand add to\nauthorized\nkeys</title>
<path fill="none" stroke="black" d="M2437,-261.87C2437,-249.032 2437,-230.615 2437,-212.418"/>
<polygon fill="black" stroke="black" points="2440.5,-212.369 2437,-202.369 2433.5,-212.369 2440.5,-212.369"/>
</g>
<!-- zhdk domina&#45;slave\ndomina&#45;ci&#45;executor\nas&#45;domina&#45;setup -->
<g id="node41" class="node"><title>zhdk domina&#45;slave\ndomina&#45;ci&#45;executor\nas&#45;domina&#45;setup</title>
<ellipse fill="none" stroke="black" cx="4077" cy="-400" rx="88.2352" ry="41.0911"/>
<text text-anchor="middle" x="4077" y="-411.2" font-family="Times,serif" font-size="14.00">zhdk domina&#45;slave</text>
<text text-anchor="middle" x="4077" y="-394.4" font-family="Times,serif" font-size="14.00">domina&#45;ci&#45;executor</text>
<text text-anchor="middle" x="4077" y="-377.6" font-family="Times,serif" font-size="14.00">as&#45;domina&#45;setup</text>
</g>
<!-- ci domina&#45;ci&#45;executor\ninstall -->
<g id="node42" class="node"><title>ci domina&#45;ci&#45;executor\ninstall</title>
<ellipse fill="none" stroke="black" cx="3986" cy="-280" rx="98.1629" ry="29.3315"/>
<text text-anchor="middle" x="3986" y="-282.8" font-family="Times,serif" font-size="14.00">ci domina&#45;ci&#45;executor</text>
<text text-anchor="middle" x="3986" y="-266" font-family="Times,serif" font-size="14.00">install</text>
</g>
<!-- zhdk domina&#45;slave\ndomina&#45;ci&#45;executor\nas&#45;domina&#45;setup&#45;&gt;ci domina&#45;ci&#45;executor\ninstall -->
<g id="edge39" class="edge"><title>zhdk domina&#45;slave\ndomina&#45;ci&#45;executor\nas&#45;domina&#45;setup&#45;&gt;ci domina&#45;ci&#45;executor\ninstall</title>
<path fill="none" stroke="black" d="M4047.71,-361.015C4036.76,-346.822 4024.38,-330.763 4013.59,-316.776"/>
<polygon fill="black" stroke="black" points="4016.33,-314.592 4007.45,-308.81 4010.78,-318.866 4016.33,-314.592"/>
</g>
<!-- jvm leiningen\ninstall -->
<g id="node43" class="node"><title>jvm leiningen\ninstall</title>
<ellipse fill="none" stroke="black" cx="4168" cy="-280" rx="66.0402" ry="29.3315"/>
<text text-anchor="middle" x="4168" y="-282.8" font-family="Times,serif" font-size="14.00">jvm leiningen</text>
<text text-anchor="middle" x="4168" y="-266" font-family="Times,serif" font-size="14.00">install</text>
</g>
<!-- zhdk domina&#45;slave\ndomina&#45;ci&#45;executor\nas&#45;domina&#45;setup&#45;&gt;jvm leiningen\ninstall -->
<g id="edge40" class="edge"><title>zhdk domina&#45;slave\ndomina&#45;ci&#45;executor\nas&#45;domina&#45;setup&#45;&gt;jvm leiningen\ninstall</title>
<path fill="none" stroke="black" d="M4106.29,-361.015C4117.41,-346.597 4130.02,-330.253 4140.92,-316.112"/>
<polygon fill="black" stroke="black" points="4143.79,-318.128 4147.12,-308.072 4138.24,-313.853 4143.79,-318.128"/>
</g>
<!-- zhdk domina&#45;slave\ndomina&#45;ci&#45;executor\nsetup -->
<g id="node44" class="node"><title>zhdk domina&#45;slave\ndomina&#45;ci&#45;executor\nsetup</title>
<ellipse fill="none" stroke="black" cx="1988" cy="-400" rx="88.2352" ry="41.0911"/>
<text text-anchor="middle" x="1988" y="-411.2" font-family="Times,serif" font-size="14.00">zhdk domina&#45;slave</text>
<text text-anchor="middle" x="1988" y="-394.4" font-family="Times,serif" font-size="14.00">domina&#45;ci&#45;executor</text>
<text text-anchor="middle" x="1988" y="-377.6" font-family="Times,serif" font-size="14.00">setup</text>
</g>
<!-- zhdk domina&#45;slave\ndomina&#45;ci&#45;executor\nsetup&#45;&gt;invoke as user -->
<g id="edge41" class="edge"><title>zhdk domina&#45;slave\ndomina&#45;ci&#45;executor\nsetup&#45;&gt;invoke as user</title>
<path fill="none" stroke="black" d="M1956.77,-361.015C1941.87,-342.885 1924.46,-321.71 1911.3,-305.699"/>
<polygon fill="black" stroke="black" points="1913.9,-303.342 1904.84,-297.84 1908.49,-307.787 1913.9,-303.342"/>
</g>
<!-- zhdk domina&#45;ci&#45;executor\nas&#45;domina&#45;setup -->
<g id="node45" class="node"><title>zhdk domina&#45;ci&#45;executor\nas&#45;domina&#45;setup</title>
<ellipse fill="none" stroke="black" cx="2086" cy="-280" rx="110.311" ry="29.3315"/>
<text text-anchor="middle" x="2086" y="-282.8" font-family="Times,serif" font-size="14.00">zhdk domina&#45;ci&#45;executor</text>
<text text-anchor="middle" x="2086" y="-266" font-family="Times,serif" font-size="14.00">as&#45;domina&#45;setup</text>
</g>
<!-- zhdk domina&#45;slave\ndomina&#45;ci&#45;executor\nsetup&#45;&gt;zhdk domina&#45;ci&#45;executor\nas&#45;domina&#45;setup -->
<g id="edge42" class="edge"><title>zhdk domina&#45;slave\ndomina&#45;ci&#45;executor\nsetup&#45;&gt;zhdk domina&#45;ci&#45;executor\nas&#45;domina&#45;setup</title>
<path fill="none" stroke="black" d="M2019.28,-361.34C2031.08,-347.131 2044.46,-331.015 2056.13,-316.965"/>
<polygon fill="black" stroke="black" points="2059.08,-318.891 2062.78,-308.962 2053.7,-314.419 2059.08,-318.891"/>
</g>
<!-- zhdk domina&#45;slave\nruby install -->
<g id="node46" class="node"><title>zhdk domina&#45;slave\nruby install</title>
<ellipse fill="none" stroke="black" cx="1720" cy="-280" rx="86.044" ry="29.3315"/>
<text text-anchor="middle" x="1720" y="-282.8" font-family="Times,serif" font-size="14.00">zhdk domina&#45;slave</text>
<text text-anchor="middle" x="1720" y="-266" font-family="Times,serif" font-size="14.00">ruby install</text>
</g>
<!-- zhdk domina&#45;slave\nruby install&#45;&gt;ruby rbenv install -->
<g id="edge43" class="edge"><title>zhdk domina&#45;slave\nruby install&#45;&gt;ruby rbenv install</title>
<path fill="none" stroke="black" d="M1672.15,-255.255C1657.07,-248.681 1640.13,-242.204 1624,-238 1477.81,-199.912 1434.99,-226.982 1286,-202 1228.97,-192.437 1164.79,-177.235 1119.43,-165.732"/>
<polygon fill="black" stroke="black" points="1120.03,-162.273 1109.48,-163.19 1118.3,-169.056 1120.03,-162.273"/>
</g>
<!-- zhdk domina&#45;slave\nruby install&#45;&gt;ruby rbenv install\nruby 1.9.3 -->
<g id="edge44" class="edge"><title>zhdk domina&#45;slave\nruby install&#45;&gt;ruby rbenv install\nruby 1.9.3</title>
<path fill="none" stroke="black" d="M1686.42,-252.584C1660.49,-232.188 1624.5,-203.878 1596.89,-182.164"/>
<polygon fill="black" stroke="black" points="1599,-179.372 1588.98,-175.94 1594.67,-184.874 1599,-179.372"/>
</g>
<!-- zhdk domina&#45;slave\nruby install&#45;&gt;ruby rbenv install\nruby 2.0.0 -->
<g id="edge45" class="edge"><title>zhdk domina&#45;slave\nruby install&#45;&gt;ruby rbenv install\nruby 2.0.0</title>
<path fill="none" stroke="black" d="M1670.33,-255.778C1655.62,-249.452 1639.34,-242.979 1624,-238 1555.5,-215.767 1533.04,-228.311 1466,-202 1451.26,-196.214 1436.04,-188.282 1422.41,-180.357"/>
<polygon fill="black" stroke="black" points="1424.09,-177.282 1413.71,-175.172 1420.51,-183.296 1424.09,-177.282"/>
</g>
<!-- zhdk ci ruby\ngherkin setup\nragel lexer -->
<g id="node47" class="node"><title>zhdk ci ruby\ngherkin setup\nragel lexer</title>
<ellipse fill="none" stroke="black" cx="1720" cy="-149" rx="64.3877" ry="41.0911"/>
<text text-anchor="middle" x="1720" y="-160.2" font-family="Times,serif" font-size="14.00">zhdk ci ruby</text>
<text text-anchor="middle" x="1720" y="-143.4" font-family="Times,serif" font-size="14.00">gherkin setup</text>
<text text-anchor="middle" x="1720" y="-126.6" font-family="Times,serif" font-size="14.00">ragel lexer</text>
</g>
<!-- zhdk domina&#45;slave\nruby install&#45;&gt;zhdk ci ruby\ngherkin setup\nragel lexer -->
<g id="edge46" class="edge"><title>zhdk domina&#45;slave\nruby install&#45;&gt;zhdk ci ruby\ngherkin setup\nragel lexer</title>
<path fill="none" stroke="black" d="M1720,-250.371C1720,-235.864 1720,-217.807 1720,-201.025"/>
<polygon fill="black" stroke="black" points="1723.5,-200.783 1720,-190.783 1716.5,-200.783 1723.5,-200.783"/>
</g>
</g>
</svg>
