<?xml version="1.0" encoding="UTF-8" standalone="no"?>
<!DOCTYPE svg PUBLIC "-//W3C//DTD SVG 1.1//EN"
 "http://www.w3.org/Graphics/SVG/1.1/DTD/svg11.dtd">
<!-- Generated by graphviz version 2.30.1 (20131017.1317)
 -->
<!-- Title: Debuntu call graph Pages: 1 -->
<svg width="5200pt" height="546pt"
 viewBox="0.00 0.00 5199.73 546.00" xmlns="http://www.w3.org/2000/svg" xmlns:xlink="http://www.w3.org/1999/xlink">
<g id="graph0" class="graph" transform="scale(1 1) rotate(0) translate(4 542)">
<title>Debuntu call graph</title>
<polygon fill="white" stroke="white" points="-4,5 -4,-542 5196.73,-542 5196.73,5 -4,5"/>
<!-- database postgresql\ninstall 9.2 -->
<g id="node1" class="node"><title>database postgresql\ninstall 9.2</title>
<ellipse fill="none" stroke="black" cx="748.73" cy="-376" rx="88.3424" ry="29.3315"/>
<text text-anchor="middle" x="748.73" y="-378.8" font-family="Times,serif" font-size="14.00">database postgresql</text>
<text text-anchor="middle" x="748.73" y="-362" font-family="Times,serif" font-size="14.00">install 9.2</text>
</g>
<!-- database postgresql\nadd pgdg apt\nrepository -->
<g id="node2" class="node"><title>database postgresql\nadd pgdg apt\nrepository</title>
<ellipse fill="none" stroke="black" cx="614.73" cy="-245" rx="88.3424" ry="41.0911"/>
<text text-anchor="middle" x="614.73" y="-256.2" font-family="Times,serif" font-size="14.00">database postgresql</text>
<text text-anchor="middle" x="614.73" y="-239.4" font-family="Times,serif" font-size="14.00">add pgdg apt</text>
<text text-anchor="middle" x="614.73" y="-222.6" font-family="Times,serif" font-size="14.00">repository</text>
</g>
<!-- database postgresql\ninstall 9.2&#45;&gt;database postgresql\nadd pgdg apt\nrepository -->
<g id="edge1" class="edge"><title>database postgresql\ninstall 9.2&#45;&gt;database postgresql\nadd pgdg apt\nrepository</title>
<path fill="none" stroke="black" d="M720.639,-347.957C703.073,-331.047 680.046,-308.879 659.952,-289.535"/>
<polygon fill="black" stroke="black" points="662.329,-286.964 652.697,-282.551 657.474,-292.007 662.329,-286.964"/>
</g>
<!-- invoke as user -->
<g id="node3" class="node"><title>invoke as user</title>
<ellipse fill="none" stroke="black" cx="1116.73" cy="-376" rx="65.9227" ry="18"/>
<text text-anchor="middle" x="1116.73" y="-370.4" font-family="Times,serif" font-size="14.00">invoke as user</text>
</g>
<!-- meta write functions\nfor sourcing -->
<g id="node4" class="node"><title>meta write functions\nfor sourcing</title>
<ellipse fill="none" stroke="black" cx="813.73" cy="-245" rx="92.527" ry="29.3315"/>
<text text-anchor="middle" x="813.73" y="-247.8" font-family="Times,serif" font-size="14.00">meta write functions</text>
<text text-anchor="middle" x="813.73" y="-231" font-family="Times,serif" font-size="14.00">for sourcing</text>
</g>
<!-- invoke as user&#45;&gt;meta write functions\nfor sourcing -->
<g id="edge2" class="edge"><title>invoke as user&#45;&gt;meta write functions\nfor sourcing</title>
<path fill="none" stroke="black" d="M1091.03,-359.329C1076.61,-351.005 1058.09,-341.064 1040.73,-334 986.785,-312.045 968.883,-319.434 914.73,-298 898.784,-291.689 882.018,-283.666 866.829,-275.822"/>
<polygon fill="black" stroke="black" points="868.078,-272.525 857.597,-270.978 864.826,-278.723 868.078,-272.525"/>
</g>
<!-- jvm leiningen\nsetup system\nservice -->
<g id="node5" class="node"><title>jvm leiningen\nsetup system\nservice</title>
<ellipse fill="none" stroke="black" cx="2364.73" cy="-496" rx="66.0402" ry="41.0911"/>
<text text-anchor="middle" x="2364.73" y="-507.2" font-family="Times,serif" font-size="14.00">jvm leiningen</text>
<text text-anchor="middle" x="2364.73" y="-490.4" font-family="Times,serif" font-size="14.00">setup system</text>
<text text-anchor="middle" x="2364.73" y="-473.6" font-family="Times,serif" font-size="14.00">service</text>
</g>
<!-- system misc\nsetup upstart\nservice -->
<g id="node6" class="node"><title>system misc\nsetup upstart\nservice</title>
<ellipse fill="none" stroke="black" cx="2364.73" cy="-376" rx="61.4417" ry="41.0911"/>
<text text-anchor="middle" x="2364.73" y="-387.2" font-family="Times,serif" font-size="14.00">system misc</text>
<text text-anchor="middle" x="2364.73" y="-370.4" font-family="Times,serif" font-size="14.00">setup upstart</text>
<text text-anchor="middle" x="2364.73" y="-353.6" font-family="Times,serif" font-size="14.00">service</text>
</g>
<!-- jvm leiningen\nsetup system\nservice&#45;&gt;system misc\nsetup upstart\nservice -->
<g id="edge3" class="edge"><title>jvm leiningen\nsetup system\nservice&#45;&gt;system misc\nsetup upstart\nservice</title>
<path fill="none" stroke="black" d="M2364.73,-454.391C2364.73,-445.862 2364.73,-436.763 2364.73,-427.912"/>
<polygon fill="black" stroke="black" points="2368.23,-427.684 2364.73,-417.684 2361.23,-427.684 2368.23,-427.684"/>
</g>
<!-- system misc\nsetup logrotate -->
<g id="node27" class="node"><title>system misc\nsetup logrotate</title>
<ellipse fill="none" stroke="black" cx="2364.73" cy="-245" rx="69.3055" ry="29.3315"/>
<text text-anchor="middle" x="2364.73" y="-247.8" font-family="Times,serif" font-size="14.00">system misc</text>
<text text-anchor="middle" x="2364.73" y="-231" font-family="Times,serif" font-size="14.00">setup logrotate</text>
</g>
<!-- system misc\nsetup upstart\nservice&#45;&gt;system misc\nsetup logrotate -->
<g id="edge23" class="edge"><title>system misc\nsetup upstart\nservice&#45;&gt;system misc\nsetup logrotate</title>
<path fill="none" stroke="black" d="M2364.73,-334.538C2364.73,-318.688 2364.73,-300.579 2364.73,-284.886"/>
<polygon fill="black" stroke="black" points="2368.23,-284.464 2364.73,-274.464 2361.23,-284.464 2368.23,-284.464"/>
</g>
<!-- my drtom add\nssh key -->
<g id="node7" class="node"><title>my drtom add\nssh key</title>
<ellipse fill="none" stroke="black" cx="3595.73" cy="-376" rx="66.2813" ry="29.3315"/>
<text text-anchor="middle" x="3595.73" y="-378.8" font-family="Times,serif" font-size="14.00">my drtom add</text>
<text text-anchor="middle" x="3595.73" y="-362" font-family="Times,serif" font-size="14.00">ssh key</text>
</g>
<!-- ssh download\nand add to\nauthorized\nkeys -->
<g id="node8" class="node"><title>ssh download\nand add to\nauthorized\nkeys</title>
<ellipse fill="none" stroke="black" cx="3060.73" cy="-245" rx="65.2282" ry="53.3494"/>
<text text-anchor="middle" x="3060.73" y="-264.6" font-family="Times,serif" font-size="14.00">ssh download</text>
<text text-anchor="middle" x="3060.73" y="-247.8" font-family="Times,serif" font-size="14.00">and add to</text>
<text text-anchor="middle" x="3060.73" y="-231" font-family="Times,serif" font-size="14.00">authorized</text>
<text text-anchor="middle" x="3060.73" y="-214.2" font-family="Times,serif" font-size="14.00">keys</text>
</g>
<!-- my drtom add\nssh key&#45;&gt;ssh download\nand add to\nauthorized\nkeys -->
<g id="edge4" class="edge"><title>my drtom add\nssh key&#45;&gt;ssh download\nand add to\nauthorized\nkeys</title>
<path fill="none" stroke="black" d="M3557.73,-351.562C3545.9,-345.08 3532.58,-338.576 3519.73,-334 3388.96,-287.435 3227.97,-263.806 3135.56,-253.253"/>
<polygon fill="black" stroke="black" points="3135.79,-249.757 3125.47,-252.121 3135.01,-256.714 3135.79,-249.757"/>
</g>
<!-- ssh add to authorized\nkeys -->
<g id="node26" class="node"><title>ssh add to authorized\nkeys</title>
<ellipse fill="none" stroke="black" cx="3060.73" cy="-126" rx="95.247" ry="29.3315"/>
<text text-anchor="middle" x="3060.73" y="-128.8" font-family="Times,serif" font-size="14.00">ssh add to authorized</text>
<text text-anchor="middle" x="3060.73" y="-112" font-family="Times,serif" font-size="14.00">keys</text>
</g>
<!-- ssh download\nand add to\nauthorized\nkeys&#45;&gt;ssh add to authorized\nkeys -->
<g id="edge22" class="edge"><title>ssh download\nand add to\nauthorized\nkeys&#45;&gt;ssh add to authorized\nkeys</title>
<path fill="none" stroke="black" d="M3060.73,-191.66C3060.73,-182.933 3060.73,-174.02 3060.73,-165.712"/>
<polygon fill="black" stroke="black" points="3064.23,-165.57 3060.73,-155.57 3057.23,-165.57 3064.23,-165.57"/>
</g>
<!-- my drtom setup -->
<g id="node9" class="node"><title>my drtom setup</title>
<ellipse fill="none" stroke="black" cx="3437.73" cy="-496" rx="71.4843" ry="18"/>
<text text-anchor="middle" x="3437.73" y="-490.4" font-family="Times,serif" font-size="14.00">my drtom setup</text>
</g>
<!-- my drtom setup\nbashrc -->
<g id="node10" class="node"><title>my drtom setup\nbashrc</title>
<ellipse fill="none" stroke="black" cx="3272.73" cy="-376" rx="73.1845" ry="29.3315"/>
<text text-anchor="middle" x="3272.73" y="-378.8" font-family="Times,serif" font-size="14.00">my drtom setup</text>
<text text-anchor="middle" x="3272.73" y="-362" font-family="Times,serif" font-size="14.00">bashrc</text>
</g>
<!-- my drtom setup&#45;&gt;my drtom setup\nbashrc -->
<g id="edge5" class="edge"><title>my drtom setup&#45;&gt;my drtom setup\nbashrc</title>
<path fill="none" stroke="black" d="M3415.13,-478.84C3389.69,-460.646 3347.76,-430.661 3315.97,-407.927"/>
<polygon fill="black" stroke="black" points="3317.88,-404.989 3307.71,-402.019 3313.81,-410.683 3317.88,-404.989"/>
</g>
<!-- my drtom setup\ngit -->
<g id="node11" class="node"><title>my drtom setup\ngit</title>
<ellipse fill="none" stroke="black" cx="3437.73" cy="-376" rx="73.1845" ry="29.3315"/>
<text text-anchor="middle" x="3437.73" y="-378.8" font-family="Times,serif" font-size="14.00">my drtom setup</text>
<text text-anchor="middle" x="3437.73" y="-362" font-family="Times,serif" font-size="14.00">git</text>
</g>
<!-- my drtom setup&#45;&gt;my drtom setup\ngit -->
<g id="edge6" class="edge"><title>my drtom setup&#45;&gt;my drtom setup\ngit</title>
<path fill="none" stroke="black" d="M3437.73,-477.842C3437.73,-461.656 3437.73,-436.815 3437.73,-415.838"/>
<polygon fill="black" stroke="black" points="3441.23,-415.597 3437.73,-405.597 3434.23,-415.597 3441.23,-415.597"/>
</g>
<!-- my drtom setup&#45;&gt;my drtom add\nssh key -->
<g id="edge7" class="edge"><title>my drtom setup&#45;&gt;my drtom add\nssh key</title>
<path fill="none" stroke="black" d="M3459.37,-478.84C3483.78,-460.608 3524.05,-430.535 3554.51,-407.784"/>
<polygon fill="black" stroke="black" points="3556.9,-410.365 3562.82,-401.577 3552.71,-404.757 3556.9,-410.365"/>
</g>
<!-- rails&#45;server\nsetup -->
<g id="node12" class="node"><title>rails&#45;server\nsetup</title>
<ellipse fill="none" stroke="black" cx="1197.73" cy="-496" rx="55.2576" ry="29.3315"/>
<text text-anchor="middle" x="1197.73" y="-498.8" font-family="Times,serif" font-size="14.00">rails&#45;server</text>
<text text-anchor="middle" x="1197.73" y="-482" font-family="Times,serif" font-size="14.00">setup</text>
</g>
<!-- torquebox install\n3.0.0 -->
<g id="node13" class="node"><title>torquebox install\n3.0.0</title>
<ellipse fill="none" stroke="black" cx="1278.73" cy="-376" rx="78.1885" ry="29.3315"/>
<text text-anchor="middle" x="1278.73" y="-378.8" font-family="Times,serif" font-size="14.00">torquebox install</text>
<text text-anchor="middle" x="1278.73" y="-362" font-family="Times,serif" font-size="14.00">3.0.0</text>
</g>
<!-- rails&#45;server\nsetup&#45;&gt;torquebox install\n3.0.0 -->
<g id="edge8" class="edge"><title>rails&#45;server\nsetup&#45;&gt;torquebox install\n3.0.0</title>
<path fill="none" stroke="black" d="M1216.11,-468.224C1227.26,-451.979 1241.64,-431.032 1253.81,-413.308"/>
<polygon fill="black" stroke="black" points="1256.8,-415.127 1259.58,-404.901 1251.03,-411.165 1256.8,-415.127"/>
</g>
<!-- rails&#45;server\nsetup&#45;&gt;database postgresql\ninstall 9.2 -->
<g id="edge9" class="edge"><title>rails&#45;server\nsetup&#45;&gt;database postgresql\ninstall 9.2</title>
<path fill="none" stroke="black" d="M1145.05,-486.607C1075.52,-474.823 949.765,-451.054 845.73,-418 833.372,-414.074 820.416,-409.176 808.143,-404.147"/>
<polygon fill="black" stroke="black" points="809.488,-400.915 798.912,-400.289 806.789,-407.374 809.488,-400.915"/>
</g>
<!-- database postgresql\nadd superuser -->
<g id="node14" class="node"><title>database postgresql\nadd superuser</title>
<ellipse fill="none" stroke="black" cx="943.73" cy="-376" rx="88.3424" ry="29.3315"/>
<text text-anchor="middle" x="943.73" y="-378.8" font-family="Times,serif" font-size="14.00">database postgresql</text>
<text text-anchor="middle" x="943.73" y="-362" font-family="Times,serif" font-size="14.00">add superuser</text>
</g>
<!-- rails&#45;server\nsetup&#45;&gt;database postgresql\nadd superuser -->
<g id="edge10" class="edge"><title>rails&#45;server\nsetup&#45;&gt;database postgresql\nadd superuser</title>
<path fill="none" stroke="black" d="M1156.92,-476.041C1115.38,-456.741 1050.53,-426.617 1003.26,-404.657"/>
<polygon fill="black" stroke="black" points="1004.6,-401.418 994.054,-400.379 1001.65,-407.767 1004.6,-401.418"/>
</g>
<!-- ruby rbenv prepare\nsystem -->
<g id="node15" class="node"><title>ruby rbenv prepare\nsystem</title>
<ellipse fill="none" stroke="black" cx="1461.73" cy="-376" rx="86.4347" ry="29.3315"/>
<text text-anchor="middle" x="1461.73" y="-378.8" font-family="Times,serif" font-size="14.00">ruby rbenv prepare</text>
<text text-anchor="middle" x="1461.73" y="-362" font-family="Times,serif" font-size="14.00">system</text>
</g>
<!-- rails&#45;server\nsetup&#45;&gt;ruby rbenv prepare\nsystem -->
<g id="edge11" class="edge"><title>rails&#45;server\nsetup&#45;&gt;ruby rbenv prepare\nsystem</title>
<path fill="none" stroke="black" d="M1239.27,-476.433C1282.79,-456.982 1351.58,-426.235 1401.14,-404.08"/>
<polygon fill="black" stroke="black" points="1402.77,-407.185 1410.48,-399.909 1399.92,-400.794 1402.77,-407.185"/>
</g>
<!-- rails&#45;server\nsetup&#45;&gt;invoke as user -->
<g id="edge12" class="edge"><title>rails&#45;server\nsetup&#45;&gt;invoke as user</title>
<path fill="none" stroke="black" d="M1179.35,-468.224C1165.75,-448.411 1147.35,-421.605 1134.02,-402.181"/>
<polygon fill="black" stroke="black" points="1136.83,-400.092 1128.28,-393.828 1131.06,-404.053 1136.83,-400.092"/>
</g>
<!-- rails&#45;server\nsetup&#45;as&#45;torquebox -->
<g id="node16" class="node"><title>rails&#45;server\nsetup&#45;as&#45;torquebox</title>
<ellipse fill="none" stroke="black" cx="1653.73" cy="-376" rx="87.2835" ry="29.3315"/>
<text text-anchor="middle" x="1653.73" y="-378.8" font-family="Times,serif" font-size="14.00">rails&#45;server</text>
<text text-anchor="middle" x="1653.73" y="-362" font-family="Times,serif" font-size="14.00">setup&#45;as&#45;torquebox</text>
</g>
<!-- rails&#45;server\nsetup&#45;&gt;rails&#45;server\nsetup&#45;as&#45;torquebox -->
<g id="edge13" class="edge"><title>rails&#45;server\nsetup&#45;&gt;rails&#45;server\nsetup&#45;as&#45;torquebox</title>
<path fill="none" stroke="black" d="M1250.55,-486.882C1321.28,-475.288 1450.19,-451.609 1556.73,-418 1569.16,-414.077 1582.2,-409.158 1594.54,-404.102"/>
<polygon fill="black" stroke="black" points="1595.94,-407.31 1603.81,-400.223 1593.23,-400.852 1595.94,-407.31"/>
</g>
<!-- jvm open jdk\ninstall -->
<g id="node34" class="node"><title>jvm open jdk\ninstall</title>
<ellipse fill="none" stroke="black" cx="987.73" cy="-245" rx="63.3349" ry="29.3315"/>
<text text-anchor="middle" x="987.73" y="-247.8" font-family="Times,serif" font-size="14.00">jvm open jdk</text>
<text text-anchor="middle" x="987.73" y="-231" font-family="Times,serif" font-size="14.00">install</text>
</g>
<!-- torquebox install\n3.0.0&#45;&gt;jvm open jdk\ninstall -->
<g id="edge29" class="edge"><title>torquebox install\n3.0.0&#45;&gt;jvm open jdk\ninstall</title>
<path fill="none" stroke="black" d="M1233.31,-351.772C1220.1,-345.518 1205.52,-339.084 1191.73,-334 1134.68,-312.959 1114.59,-324.224 1059.73,-298 1047.98,-292.386 1036.15,-284.819 1025.57,-277.198"/>
<polygon fill="black" stroke="black" points="1027.5,-274.265 1017.38,-271.11 1023.32,-279.884 1027.5,-274.265"/>
</g>
<!-- torquebox setup\nenv loader -->
<g id="node35" class="node"><title>torquebox setup\nenv loader</title>
<ellipse fill="none" stroke="black" cx="1143.73" cy="-245" rx="74.2377" ry="29.3315"/>
<text text-anchor="middle" x="1143.73" y="-247.8" font-family="Times,serif" font-size="14.00">torquebox setup</text>
<text text-anchor="middle" x="1143.73" y="-231" font-family="Times,serif" font-size="14.00">env loader</text>
</g>
<!-- torquebox install\n3.0.0&#45;&gt;torquebox setup\nenv loader -->
<g id="edge30" class="edge"><title>torquebox install\n3.0.0&#45;&gt;torquebox setup\nenv loader</title>
<path fill="none" stroke="black" d="M1250.76,-348.271C1229.94,-328.38 1201.38,-301.089 1179,-279.702"/>
<polygon fill="black" stroke="black" points="1181.31,-277.073 1171.67,-272.695 1176.48,-282.134 1181.31,-277.073"/>
</g>
<!-- torquebox setup\nlogrotate -->
<g id="node36" class="node"><title>torquebox setup\nlogrotate</title>
<ellipse fill="none" stroke="black" cx="1311.73" cy="-245" rx="74.2377" ry="29.3315"/>
<text text-anchor="middle" x="1311.73" y="-247.8" font-family="Times,serif" font-size="14.00">torquebox setup</text>
<text text-anchor="middle" x="1311.73" y="-231" font-family="Times,serif" font-size="14.00">logrotate</text>
</g>
<!-- torquebox install\n3.0.0&#45;&gt;torquebox setup\nlogrotate -->
<g id="edge31" class="edge"><title>torquebox install\n3.0.0&#45;&gt;torquebox setup\nlogrotate</title>
<path fill="none" stroke="black" d="M1285.97,-346.69C1290.65,-328.418 1296.79,-304.415 1301.9,-284.429"/>
<polygon fill="black" stroke="black" points="1305.3,-285.245 1304.39,-274.689 1298.52,-283.51 1305.3,-285.245"/>
</g>
<!-- torquebox setup\nstart stop\nscripts -->
<g id="node37" class="node"><title>torquebox setup\nstart stop\nscripts</title>
<ellipse fill="none" stroke="black" cx="1479.73" cy="-245" rx="74.2377" ry="41.0911"/>
<text text-anchor="middle" x="1479.73" y="-256.2" font-family="Times,serif" font-size="14.00">torquebox setup</text>
<text text-anchor="middle" x="1479.73" y="-239.4" font-family="Times,serif" font-size="14.00">start stop</text>
<text text-anchor="middle" x="1479.73" y="-222.6" font-family="Times,serif" font-size="14.00">scripts</text>
</g>
<!-- torquebox install\n3.0.0&#45;&gt;torquebox setup\nstart stop\nscripts -->
<g id="edge32" class="edge"><title>torquebox install\n3.0.0&#45;&gt;torquebox setup\nstart stop\nscripts</title>
<path fill="none" stroke="black" d="M1317.48,-350.128C1347.43,-330.906 1389.33,-304.018 1423.04,-282.38"/>
<polygon fill="black" stroke="black" points="1425.35,-285.061 1431.87,-276.714 1421.57,-279.17 1425.35,-285.061"/>
</g>
<!-- ruby rbenv install -->
<g id="node17" class="node"><title>ruby rbenv install</title>
<ellipse fill="none" stroke="black" cx="1831.73" cy="-245" rx="79.2379" ry="18"/>
<text text-anchor="middle" x="1831.73" y="-239.4" font-family="Times,serif" font-size="14.00">ruby rbenv install</text>
</g>
<!-- rails&#45;server\nsetup&#45;as&#45;torquebox&#45;&gt;ruby rbenv install -->
<g id="edge14" class="edge"><title>rails&#45;server\nsetup&#45;as&#45;torquebox&#45;&gt;ruby rbenv install</title>
<path fill="none" stroke="black" d="M1689.75,-348.895C1722.44,-325.207 1770.11,-290.657 1801.03,-268.251"/>
<polygon fill="black" stroke="black" points="1803.23,-270.975 1809.28,-262.273 1799.12,-265.307 1803.23,-270.975"/>
</g>
<!-- ruby rbenv install\nruby 2.0.0 -->
<g id="node18" class="node"><title>ruby rbenv install\nruby 2.0.0</title>
<ellipse fill="none" stroke="black" cx="1653.73" cy="-245" rx="81.2202" ry="29.3315"/>
<text text-anchor="middle" x="1653.73" y="-247.8" font-family="Times,serif" font-size="14.00">ruby rbenv install</text>
<text text-anchor="middle" x="1653.73" y="-231" font-family="Times,serif" font-size="14.00">ruby 2.0.0</text>
</g>
<!-- rails&#45;server\nsetup&#45;as&#45;torquebox&#45;&gt;ruby rbenv install\nruby 2.0.0 -->
<g id="edge15" class="edge"><title>rails&#45;server\nsetup&#45;as&#45;torquebox&#45;&gt;ruby rbenv install\nruby 2.0.0</title>
<path fill="none" stroke="black" d="M1653.73,-346.371C1653.73,-328.25 1653.73,-304.591 1653.73,-284.794"/>
<polygon fill="black" stroke="black" points="1657.23,-284.549 1653.73,-274.549 1650.23,-284.549 1657.23,-284.549"/>
</g>
<!-- ruby rbenv install\nlatest -->
<g id="node20" class="node"><title>ruby rbenv install\nlatest</title>
<ellipse fill="none" stroke="black" cx="2009.73" cy="-126" rx="81.2202" ry="29.3315"/>
<text text-anchor="middle" x="2009.73" y="-128.8" font-family="Times,serif" font-size="14.00">ruby rbenv install</text>
<text text-anchor="middle" x="2009.73" y="-112" font-family="Times,serif" font-size="14.00">latest</text>
</g>
<!-- ruby rbenv install\nruby 2.0.0&#45;&gt;ruby rbenv install\nlatest -->
<g id="edge19" class="edge"><title>ruby rbenv install\nruby 2.0.0&#45;&gt;ruby rbenv install\nlatest</title>
<path fill="none" stroke="black" d="M1691.49,-218.97C1707.15,-209.459 1725.81,-199.194 1743.73,-192 1803,-168.205 1873.31,-151.484 1926.76,-140.965"/>
<polygon fill="black" stroke="black" points="1927.72,-144.344 1936.88,-139.008 1926.39,-137.471 1927.72,-144.344"/>
</g>
<!-- ruby rbenv install\njruby 1.7 -->
<g id="node19" class="node"><title>ruby rbenv install\njruby 1.7</title>
<ellipse fill="none" stroke="black" cx="2009.73" cy="-245" rx="81.2202" ry="29.3315"/>
<text text-anchor="middle" x="2009.73" y="-247.8" font-family="Times,serif" font-size="14.00">ruby rbenv install</text>
<text text-anchor="middle" x="2009.73" y="-231" font-family="Times,serif" font-size="14.00">jruby 1.7</text>
</g>
<!-- ruby rbenv install\njruby 1.7&#45;&gt;ruby rbenv install\nlatest -->
<g id="edge16" class="edge"><title>ruby rbenv install\njruby 1.7&#45;&gt;ruby rbenv install\nlatest</title>
<path fill="none" stroke="black" d="M2009.73,-215.379C2009.73,-200.506 2009.73,-182.111 2009.73,-165.961"/>
<polygon fill="black" stroke="black" points="2013.23,-165.731 2009.73,-155.731 2006.23,-165.731 2013.23,-165.731"/>
</g>
<!-- ruby rbenv install\nruby -->
<g id="node21" class="node"><title>ruby rbenv install\nruby</title>
<ellipse fill="none" stroke="black" cx="2118.73" cy="-30" rx="81.2202" ry="29.3315"/>
<text text-anchor="middle" x="2118.73" y="-32.8" font-family="Times,serif" font-size="14.00">ruby rbenv install</text>
<text text-anchor="middle" x="2118.73" y="-16" font-family="Times,serif" font-size="14.00">ruby</text>
</g>
<!-- ruby rbenv install\nlatest&#45;&gt;ruby rbenv install\nruby -->
<g id="edge17" class="edge"><title>ruby rbenv install\nlatest&#45;&gt;ruby rbenv install\nruby</title>
<path fill="none" stroke="black" d="M2040.38,-98.5656C2052.69,-87.9529 2067.02,-75.5975 2080.03,-64.3762"/>
<polygon fill="black" stroke="black" points="2082.64,-66.743 2087.93,-57.5617 2078.07,-61.4419 2082.64,-66.743"/>
</g>
<!-- ruby rbenv install\nruby 1.9.3 -->
<g id="node22" class="node"><title>ruby rbenv install\nruby 1.9.3</title>
<ellipse fill="none" stroke="black" cx="2228.73" cy="-126" rx="81.2202" ry="29.3315"/>
<text text-anchor="middle" x="2228.73" y="-128.8" font-family="Times,serif" font-size="14.00">ruby rbenv install</text>
<text text-anchor="middle" x="2228.73" y="-112" font-family="Times,serif" font-size="14.00">ruby 1.9.3</text>
</g>
<!-- ruby rbenv install\nruby 1.9.3&#45;&gt;ruby rbenv install\nruby -->
<g id="edge18" class="edge"><title>ruby rbenv install\nruby 1.9.3&#45;&gt;ruby rbenv install\nruby</title>
<path fill="none" stroke="black" d="M2197.8,-98.5656C2185.15,-87.762 2170.4,-75.1524 2157.08,-63.7718"/>
<polygon fill="black" stroke="black" points="2159.31,-61.0717 2149.43,-57.236 2154.76,-66.3934 2159.31,-61.0717"/>
</g>
<!-- ruby rbenv perpare\nsystem -->
<g id="node23" class="node"><title>ruby rbenv perpare\nsystem</title>
<ellipse fill="none" stroke="black" cx="3868.73" cy="-496" rx="86.4347" ry="29.3315"/>
<text text-anchor="middle" x="3868.73" y="-498.8" font-family="Times,serif" font-size="14.00">ruby rbenv perpare</text>
<text text-anchor="middle" x="3868.73" y="-482" font-family="Times,serif" font-size="14.00">system</text>
</g>
<!-- ruby rbenv system\ninstall dependencies -->
<g id="node24" class="node"><title>ruby rbenv system\ninstall dependencies</title>
<ellipse fill="none" stroke="black" cx="3771.73" cy="-376" rx="90.9616" ry="29.3315"/>
<text text-anchor="middle" x="3771.73" y="-378.8" font-family="Times,serif" font-size="14.00">ruby rbenv system</text>
<text text-anchor="middle" x="3771.73" y="-362" font-family="Times,serif" font-size="14.00">install dependencies</text>
</g>
<!-- ruby rbenv perpare\nsystem&#45;&gt;ruby rbenv system\ninstall dependencies -->
<g id="edge20" class="edge"><title>ruby rbenv perpare\nsystem&#45;&gt;ruby rbenv system\ninstall dependencies</title>
<path fill="none" stroke="black" d="M3845.99,-467.334C3832.59,-451.03 3815.49,-430.229 3801.07,-412.698"/>
<polygon fill="black" stroke="black" points="3803.72,-410.404 3794.67,-404.901 3798.31,-414.849 3803.72,-410.404"/>
</g>
<!-- ruby rbenv system\nsetup loader -->
<g id="node25" class="node"><title>ruby rbenv system\nsetup loader</title>
<ellipse fill="none" stroke="black" cx="3965.73" cy="-376" rx="84.1724" ry="29.3315"/>
<text text-anchor="middle" x="3965.73" y="-378.8" font-family="Times,serif" font-size="14.00">ruby rbenv system</text>
<text text-anchor="middle" x="3965.73" y="-362" font-family="Times,serif" font-size="14.00">setup loader</text>
</g>
<!-- ruby rbenv perpare\nsystem&#45;&gt;ruby rbenv system\nsetup loader -->
<g id="edge21" class="edge"><title>ruby rbenv perpare\nsystem&#45;&gt;ruby rbenv system\nsetup loader</title>
<path fill="none" stroke="black" d="M3891.47,-467.334C3904.97,-450.912 3922.22,-429.927 3936.7,-412.317"/>
<polygon fill="black" stroke="black" points="3939.48,-414.44 3943.13,-404.492 3934.08,-409.995 3939.48,-414.44"/>
</g>
<!-- system setup -->
<g id="node28" class="node"><title>system setup</title>
<ellipse fill="none" stroke="black" cx="4460.73" cy="-496" rx="60.4901" ry="18"/>
<text text-anchor="middle" x="4460.73" y="-490.4" font-family="Times,serif" font-size="14.00">system setup</text>
</g>
<!-- system apt upgrade -->
<g id="node29" class="node"><title>system apt upgrade</title>
<ellipse fill="none" stroke="black" cx="4153.73" cy="-376" rx="85.3851" ry="18"/>
<text text-anchor="middle" x="4153.73" y="-370.4" font-family="Times,serif" font-size="14.00">system apt upgrade</text>
</g>
<!-- system setup&#45;&gt;system apt upgrade -->
<g id="edge24" class="edge"><title>system setup&#45;&gt;system apt upgrade</title>
<path fill="none" stroke="black" d="M4422.56,-481.9C4379.92,-467.088 4308.96,-441.912 4248.73,-418 4232,-411.358 4213.81,-403.635 4197.87,-396.693"/>
<polygon fill="black" stroke="black" points="4198.83,-393.294 4188.27,-392.489 4196.02,-399.706 4198.83,-393.294"/>
</g>
<!-- system misc\nset us&#45;utf8\nlocale -->
<g id="node30" class="node"><title>system misc\nset us&#45;utf8\nlocale</title>
<ellipse fill="none" stroke="black" cx="4317.73" cy="-376" rx="59.4771" ry="41.0911"/>
<text text-anchor="middle" x="4317.73" y="-387.2" font-family="Times,serif" font-size="14.00">system misc</text>
<text text-anchor="middle" x="4317.73" y="-370.4" font-family="Times,serif" font-size="14.00">set us&#45;utf8</text>
<text text-anchor="middle" x="4317.73" y="-353.6" font-family="Times,serif" font-size="14.00">locale</text>
</g>
<!-- system setup&#45;&gt;system misc\nset us&#45;utf8\nlocale -->
<g id="edge25" class="edge"><title>system setup&#45;&gt;system misc\nset us&#45;utf8\nlocale</title>
<path fill="none" stroke="black" d="M4441.15,-478.84C4421.25,-462.423 4389.72,-436.405 4363.51,-414.777"/>
<polygon fill="black" stroke="black" points="4365.51,-411.886 4355.57,-408.221 4361.05,-417.285 4365.51,-411.886"/>
</g>
<!-- system install\nbasics -->
<g id="node31" class="node"><title>system install\nbasics</title>
<ellipse fill="none" stroke="black" cx="4460.73" cy="-376" rx="65.2282" ry="29.3315"/>
<text text-anchor="middle" x="4460.73" y="-378.8" font-family="Times,serif" font-size="14.00">system install</text>
<text text-anchor="middle" x="4460.73" y="-362" font-family="Times,serif" font-size="14.00">basics</text>
</g>
<!-- system setup&#45;&gt;system install\nbasics -->
<g id="edge26" class="edge"><title>system setup&#45;&gt;system install\nbasics</title>
<path fill="none" stroke="black" d="M4460.73,-477.842C4460.73,-461.656 4460.73,-436.815 4460.73,-415.838"/>
<polygon fill="black" stroke="black" points="4464.23,-415.597 4460.73,-405.597 4457.23,-415.597 4464.23,-415.597"/>
</g>
<!-- system misc\nvim setup -->
<g id="node32" class="node"><title>system misc\nvim setup</title>
<ellipse fill="none" stroke="black" cx="4603.73" cy="-376" rx="59.4771" ry="29.3315"/>
<text text-anchor="middle" x="4603.73" y="-378.8" font-family="Times,serif" font-size="14.00">system misc</text>
<text text-anchor="middle" x="4603.73" y="-362" font-family="Times,serif" font-size="14.00">vim setup</text>
</g>
<!-- system setup&#45;&gt;system misc\nvim setup -->
<g id="edge27" class="edge"><title>system setup&#45;&gt;system misc\nvim setup</title>
<path fill="none" stroke="black" d="M4480.31,-478.84C4502.31,-460.686 4538.54,-430.792 4566.07,-408.076"/>
<polygon fill="black" stroke="black" points="4568.46,-410.642 4573.95,-401.577 4564,-405.242 4568.46,-410.642"/>
</g>
<!-- system misc\netckeeper setup -->
<g id="node33" class="node"><title>system misc\netckeeper setup</title>
<ellipse fill="none" stroke="black" cx="4754.73" cy="-376" rx="72.4007" ry="29.3315"/>
<text text-anchor="middle" x="4754.73" y="-378.8" font-family="Times,serif" font-size="14.00">system misc</text>
<text text-anchor="middle" x="4754.73" y="-362" font-family="Times,serif" font-size="14.00">etckeeper setup</text>
</g>
<!-- system setup&#45;&gt;system misc\netckeeper setup -->
<g id="edge28" class="edge"><title>system setup&#45;&gt;system misc\netckeeper setup</title>
<path fill="none" stroke="black" d="M4499.73,-482.194C4542.45,-467.835 4612.76,-443.238 4671.73,-418 4681.68,-413.74 4692.15,-408.882 4702.16,-404.036"/>
<polygon fill="black" stroke="black" points="4703.77,-407.149 4711.21,-399.607 4700.69,-400.862 4703.77,-407.149"/>
</g>
<!-- torquebox setup\ninit -->
<g id="node38" class="node"><title>torquebox setup\ninit</title>
<ellipse fill="none" stroke="black" cx="1395.73" cy="-126" rx="74.2377" ry="29.3315"/>
<text text-anchor="middle" x="1395.73" y="-128.8" font-family="Times,serif" font-size="14.00">torquebox setup</text>
<text text-anchor="middle" x="1395.73" y="-112" font-family="Times,serif" font-size="14.00">init</text>
</g>
<!-- torquebox setup\nstart stop\nscripts&#45;&gt;torquebox setup\ninit -->
<g id="edge33" class="edge"><title>torquebox setup\nstart stop\nscripts&#45;&gt;torquebox setup\ninit</title>
<path fill="none" stroke="black" d="M1452.69,-206.336C1442.68,-192.396 1431.37,-176.639 1421.48,-162.862"/>
<polygon fill="black" stroke="black" points="1424.2,-160.657 1415.53,-154.575 1418.52,-164.739 1424.2,-160.657"/>
</g>
<!-- torquebox setup\nupstart -->
<g id="node39" class="node"><title>torquebox setup\nupstart</title>
<ellipse fill="none" stroke="black" cx="1563.73" cy="-126" rx="74.2377" ry="29.3315"/>
<text text-anchor="middle" x="1563.73" y="-128.8" font-family="Times,serif" font-size="14.00">torquebox setup</text>
<text text-anchor="middle" x="1563.73" y="-112" font-family="Times,serif" font-size="14.00">upstart</text>
</g>
<!-- torquebox setup\nstart stop\nscripts&#45;&gt;torquebox setup\nupstart -->
<g id="edge34" class="edge"><title>torquebox setup\nstart stop\nscripts&#45;&gt;torquebox setup\nupstart</title>
<path fill="none" stroke="black" d="M1506.77,-206.336C1516.78,-192.396 1528.09,-176.639 1537.98,-162.862"/>
<polygon fill="black" stroke="black" points="1540.94,-164.739 1543.93,-154.575 1535.26,-160.657 1540.94,-164.739"/>
</g>
<!-- zhdk domina&#45;slave\ncomplete&#45;setup -->
<g id="node40" class="node"><title>zhdk domina&#45;slave\ncomplete&#45;setup</title>
<ellipse fill="none" stroke="black" cx="520.73" cy="-496" rx="86.044" ry="29.3315"/>
<text text-anchor="middle" x="520.73" y="-498.8" font-family="Times,serif" font-size="14.00">zhdk domina&#45;slave</text>
<text text-anchor="middle" x="520.73" y="-482" font-family="Times,serif" font-size="14.00">complete&#45;setup</text>
</g>
<!-- zhdk domina&#45;slave\ncomplete&#45;setup&#45;&gt;jvm open jdk\ninstall -->
<g id="edge35" class="edge"><title>zhdk domina&#45;slave\ncomplete&#45;setup&#45;&gt;jvm open jdk\ninstall</title>
<path fill="none" stroke="black" d="M434.65,-493.758C262.476,-488.561 -97.6594,-462.487 25.7297,-334 94.2046,-262.696 821.196,-330.008 914.73,-298 927.869,-293.504 940.72,-285.822 951.886,-277.723"/>
<polygon fill="black" stroke="black" points="954.234,-280.334 960.073,-271.494 949.995,-274.763 954.234,-280.334"/>
</g>
<!-- zhdk domina&#45;ci&#45;executor\nsetup -->
<g id="node41" class="node"><title>zhdk domina&#45;ci&#45;executor\nsetup</title>
<ellipse fill="none" stroke="black" cx="145.73" cy="-376" rx="110.311" ry="29.3315"/>
<text text-anchor="middle" x="145.73" y="-378.8" font-family="Times,serif" font-size="14.00">zhdk domina&#45;ci&#45;executor</text>
<text text-anchor="middle" x="145.73" y="-362" font-family="Times,serif" font-size="14.00">setup</text>
</g>
<!-- zhdk domina&#45;slave\ncomplete&#45;setup&#45;&gt;zhdk domina&#45;ci&#45;executor\nsetup -->
<g id="edge36" class="edge"><title>zhdk domina&#45;slave\ncomplete&#45;setup&#45;&gt;zhdk domina&#45;ci&#45;executor\nsetup</title>
<path fill="none" stroke="black" d="M456.606,-476.332C404.918,-461.117 330.444,-438.818 265.73,-418 251.116,-413.299 235.561,-408.117 220.662,-403.065"/>
<polygon fill="black" stroke="black" points="221.576,-399.679 210.981,-399.77 219.32,-406.306 221.576,-399.679"/>
</g>
<!-- zhdk domina&#45;slave\ncomplete&#45;setup&#45;&gt;database postgresql\ninstall 9.2 -->
<g id="edge37" class="edge"><title>zhdk domina&#45;slave\ncomplete&#45;setup&#45;&gt;database postgresql\ninstall 9.2</title>
<path fill="none" stroke="black" d="M566.869,-471.121C603.37,-452.23 654.463,-425.787 693.203,-405.737"/>
<polygon fill="black" stroke="black" points="694.996,-408.751 702.268,-401.046 691.779,-402.534 694.996,-408.751"/>
</g>
<!-- zhdk domina&#45;slave\ncomplete&#45;setup&#45;&gt;database postgresql\nadd superuser -->
<g id="edge38" class="edge"><title>zhdk domina&#45;slave\ncomplete&#45;setup&#45;&gt;database postgresql\nadd superuser</title>
<path fill="none" stroke="black" d="M594.929,-481.027C661.426,-467.656 761.224,-445.484 845.73,-418 858.168,-413.955 871.237,-409.004 883.631,-403.96"/>
<polygon fill="black" stroke="black" points="885.056,-407.158 892.956,-400.098 882.378,-400.691 885.056,-407.158"/>
</g>
<!-- ci tightvnc\ninstall -->
<g id="node42" class="node"><title>ci tightvnc\ninstall</title>
<ellipse fill="none" stroke="black" cx="327.73" cy="-376" rx="53.0661" ry="29.3315"/>
<text text-anchor="middle" x="327.73" y="-378.8" font-family="Times,serif" font-size="14.00">ci tightvnc</text>
<text text-anchor="middle" x="327.73" y="-362" font-family="Times,serif" font-size="14.00">install</text>
</g>
<!-- zhdk domina&#45;slave\ncomplete&#45;setup&#45;&gt;ci tightvnc\ninstall -->
<g id="edge39" class="edge"><title>zhdk domina&#45;slave\ncomplete&#45;setup&#45;&gt;ci tightvnc\ninstall</title>
<path fill="none" stroke="black" d="M477.613,-470.424C451.896,-455.576 418.714,-436.084 389.73,-418 383.032,-413.821 375.996,-409.299 369.164,-404.835"/>
<polygon fill="black" stroke="black" points="370.94,-401.814 360.662,-399.243 367.093,-407.662 370.94,-401.814"/>
</g>
<!-- zhdk domina&#45;slave\ncomplete&#45;setup&#45;&gt;invoke as user -->
<g id="edge40" class="edge"><title>zhdk domina&#45;slave\ncomplete&#45;setup&#45;&gt;invoke as user</title>
<path fill="none" stroke="black" d="M606.123,-491.421C710.904,-484.988 892.853,-467.147 1040.73,-418 1055.38,-413.13 1070.55,-405.542 1083.44,-398.211"/>
<polygon fill="black" stroke="black" points="1085.53,-401.041 1092.39,-392.961 1081.99,-395.003 1085.53,-401.041"/>
</g>
<!-- zhdk complete&#45;setup&#45;as&#45;user -->
<g id="node43" class="node"><title>zhdk complete&#45;setup&#45;as&#45;user</title>
<ellipse fill="none" stroke="black" cx="520.73" cy="-376" rx="121.171" ry="18"/>
<text text-anchor="middle" x="520.73" y="-370.4" font-family="Times,serif" font-size="14.00">zhdk complete&#45;setup&#45;as&#45;user</text>
</g>
<!-- zhdk domina&#45;slave\ncomplete&#45;setup&#45;&gt;zhdk complete&#45;setup&#45;as&#45;user -->
<g id="edge41" class="edge"><title>zhdk domina&#45;slave\ncomplete&#45;setup&#45;&gt;zhdk complete&#45;setup&#45;as&#45;user</title>
<path fill="none" stroke="black" d="M520.73,-466.435C520.73,-447.62 520.73,-423.117 520.73,-404.517"/>
<polygon fill="black" stroke="black" points="524.23,-404.336 520.73,-394.336 517.23,-404.336 524.23,-404.336"/>
</g>
<!-- zhdk domina&#45;slave\ncomplete&#45;setup&#45;as&#45;user -->
<g id="node44" class="node"><title>zhdk domina&#45;slave\ncomplete&#45;setup&#45;as&#45;user</title>
<ellipse fill="none" stroke="black" cx="2852.73" cy="-496" rx="103.181" ry="29.3315"/>
<text text-anchor="middle" x="2852.73" y="-498.8" font-family="Times,serif" font-size="14.00">zhdk domina&#45;slave</text>
<text text-anchor="middle" x="2852.73" y="-482" font-family="Times,serif" font-size="14.00">complete&#45;setup&#45;as&#45;user</text>
</g>
<!-- zhdk ssh add&#45;keys -->
<g id="node45" class="node"><title>zhdk ssh add&#45;keys</title>
<ellipse fill="none" stroke="black" cx="2525.73" cy="-376" rx="81.2634" ry="18"/>
<text text-anchor="middle" x="2525.73" y="-370.4" font-family="Times,serif" font-size="14.00">zhdk ssh add&#45;keys</text>
</g>
<!-- zhdk domina&#45;slave\ncomplete&#45;setup&#45;as&#45;user&#45;&gt;zhdk ssh add&#45;keys -->
<g id="edge42" class="edge"><title>zhdk domina&#45;slave\ncomplete&#45;setup&#45;as&#45;user&#45;&gt;zhdk ssh add&#45;keys</title>
<path fill="none" stroke="black" d="M2782.85,-474.371C2735.51,-459.869 2671.79,-439.315 2616.73,-418 2600.4,-411.68 2582.79,-403.963 2567.45,-396.935"/>
<polygon fill="black" stroke="black" points="2568.77,-393.689 2558.22,-392.667 2565.83,-400.042 2568.77,-393.689"/>
</g>
<!-- ci chromedriver\ninstall -->
<g id="node46" class="node"><title>ci chromedriver\ninstall</title>
<ellipse fill="none" stroke="black" cx="2699.73" cy="-376" rx="73.8819" ry="29.3315"/>
<text text-anchor="middle" x="2699.73" y="-378.8" font-family="Times,serif" font-size="14.00">ci chromedriver</text>
<text text-anchor="middle" x="2699.73" y="-362" font-family="Times,serif" font-size="14.00">install</text>
</g>
<!-- zhdk domina&#45;slave\ncomplete&#45;setup&#45;as&#45;user&#45;&gt;ci chromedriver\ninstall -->
<g id="edge43" class="edge"><title>zhdk domina&#45;slave\ncomplete&#45;setup&#45;as&#45;user&#45;&gt;ci chromedriver\ninstall</title>
<path fill="none" stroke="black" d="M2818.01,-468.224C2795.04,-450.507 2764.82,-427.199 2740.67,-408.577"/>
<polygon fill="black" stroke="black" points="2742.79,-405.792 2732.74,-402.457 2738.52,-411.335 2742.79,-405.792"/>
</g>
<!-- zhdk ci ruby\ninstall -->
<g id="node47" class="node"><title>zhdk ci ruby\ninstall</title>
<ellipse fill="none" stroke="black" cx="2852.73" cy="-376" rx="60.197" ry="29.3315"/>
<text text-anchor="middle" x="2852.73" y="-378.8" font-family="Times,serif" font-size="14.00">zhdk ci ruby</text>
<text text-anchor="middle" x="2852.73" y="-362" font-family="Times,serif" font-size="14.00">install</text>
</g>
<!-- zhdk domina&#45;slave\ncomplete&#45;setup&#45;as&#45;user&#45;&gt;zhdk ci ruby\ninstall -->
<g id="edge44" class="edge"><title>zhdk domina&#45;slave\ncomplete&#45;setup&#45;as&#45;user&#45;&gt;zhdk ci ruby\ninstall</title>
<path fill="none" stroke="black" d="M2852.73,-466.435C2852.73,-451.329 2852.73,-432.556 2852.73,-416.115"/>
<polygon fill="black" stroke="black" points="2856.23,-415.71 2852.73,-405.71 2849.23,-415.71 2856.23,-415.71"/>
</g>
<!-- ci phantomjs\ninstall -->
<g id="node48" class="node"><title>ci phantomjs\ninstall</title>
<ellipse fill="none" stroke="black" cx="2993.73" cy="-376" rx="62.269" ry="29.3315"/>
<text text-anchor="middle" x="2993.73" y="-378.8" font-family="Times,serif" font-size="14.00">ci phantomjs</text>
<text text-anchor="middle" x="2993.73" y="-362" font-family="Times,serif" font-size="14.00">install</text>
</g>
<!-- zhdk domina&#45;slave\ncomplete&#45;setup&#45;as&#45;user&#45;&gt;ci phantomjs\ninstall -->
<g id="edge45" class="edge"><title>zhdk domina&#45;slave\ncomplete&#45;setup&#45;as&#45;user&#45;&gt;ci phantomjs\ninstall</title>
<path fill="none" stroke="black" d="M2885.08,-467.928C2906.22,-450.233 2933.92,-427.055 2956.06,-408.529"/>
<polygon fill="black" stroke="black" points="2958.52,-411.034 2963.94,-401.932 2954.02,-405.666 2958.52,-411.034"/>
</g>
<!-- ci tightvnc\nuser setup -->
<g id="node49" class="node"><title>ci tightvnc\nuser setup</title>
<ellipse fill="none" stroke="black" cx="3127.73" cy="-376" rx="53.0661" ry="29.3315"/>
<text text-anchor="middle" x="3127.73" y="-378.8" font-family="Times,serif" font-size="14.00">ci tightvnc</text>
<text text-anchor="middle" x="3127.73" y="-362" font-family="Times,serif" font-size="14.00">user setup</text>
</g>
<!-- zhdk domina&#45;slave\ncomplete&#45;setup&#45;as&#45;user&#45;&gt;ci tightvnc\nuser setup -->
<g id="edge46" class="edge"><title>zhdk domina&#45;slave\ncomplete&#45;setup&#45;as&#45;user&#45;&gt;ci tightvnc\nuser setup</title>
<path fill="none" stroke="black" d="M2922.17,-474.229C2964.39,-460.522 3018.83,-440.896 3064.73,-418 3072.28,-414.232 3080.04,-409.751 3087.42,-405.157"/>
<polygon fill="black" stroke="black" points="3089.34,-408.087 3095.87,-399.748 3085.56,-402.191 3089.34,-408.087"/>
</g>
<!-- zhdk ssh add&#45;keys&#45;&gt;ssh download\nand add to\nauthorized\nkeys -->
<g id="edge55" class="edge"><title>zhdk ssh add&#45;keys&#45;&gt;ssh download\nand add to\nauthorized\nkeys</title>
<path fill="none" stroke="black" d="M2556.21,-359.164C2573.56,-350.686 2595.93,-340.65 2616.73,-334 2743.58,-293.439 2897.05,-268.016 2986.32,-255.463"/>
<polygon fill="black" stroke="black" points="2986.92,-258.913 2996.35,-254.069 2985.96,-251.979 2986.92,-258.913"/>
</g>
<!-- zhdk domina&#45;slave\ndomina&#45;ci&#45;executor\nas&#45;domina&#45;setup -->
<g id="node50" class="node"><title>zhdk domina&#45;slave\ndomina&#45;ci&#45;executor\nas&#45;domina&#45;setup</title>
<ellipse fill="none" stroke="black" cx="5034.73" cy="-496" rx="88.2352" ry="41.0911"/>
<text text-anchor="middle" x="5034.73" y="-507.2" font-family="Times,serif" font-size="14.00">zhdk domina&#45;slave</text>
<text text-anchor="middle" x="5034.73" y="-490.4" font-family="Times,serif" font-size="14.00">domina&#45;ci&#45;executor</text>
<text text-anchor="middle" x="5034.73" y="-473.6" font-family="Times,serif" font-size="14.00">as&#45;domina&#45;setup</text>
</g>
<!-- ci domina&#45;ci&#45;executor\ninstall -->
<g id="node51" class="node"><title>ci domina&#45;ci&#45;executor\ninstall</title>
<ellipse fill="none" stroke="black" cx="4943.73" cy="-376" rx="98.1629" ry="29.3315"/>
<text text-anchor="middle" x="4943.73" y="-378.8" font-family="Times,serif" font-size="14.00">ci domina&#45;ci&#45;executor</text>
<text text-anchor="middle" x="4943.73" y="-362" font-family="Times,serif" font-size="14.00">install</text>
</g>
<!-- zhdk domina&#45;slave\ndomina&#45;ci&#45;executor\nas&#45;domina&#45;setup&#45;&gt;ci domina&#45;ci&#45;executor\ninstall -->
<g id="edge47" class="edge"><title>zhdk domina&#45;slave\ndomina&#45;ci&#45;executor\nas&#45;domina&#45;setup&#45;&gt;ci domina&#45;ci&#45;executor\ninstall</title>
<path fill="none" stroke="black" d="M5005.44,-457.015C4994.49,-442.822 4982.11,-426.763 4971.32,-412.776"/>
<polygon fill="black" stroke="black" points="4974.06,-410.592 4965.18,-404.81 4968.51,-414.866 4974.06,-410.592"/>
</g>
<!-- jvm leiningen\ninstall -->
<g id="node52" class="node"><title>jvm leiningen\ninstall</title>
<ellipse fill="none" stroke="black" cx="5125.73" cy="-376" rx="66.0402" ry="29.3315"/>
<text text-anchor="middle" x="5125.73" y="-378.8" font-family="Times,serif" font-size="14.00">jvm leiningen</text>
<text text-anchor="middle" x="5125.73" y="-362" font-family="Times,serif" font-size="14.00">install</text>
</g>
<!-- zhdk domina&#45;slave\ndomina&#45;ci&#45;executor\nas&#45;domina&#45;setup&#45;&gt;jvm leiningen\ninstall -->
<g id="edge48" class="edge"><title>zhdk domina&#45;slave\ndomina&#45;ci&#45;executor\nas&#45;domina&#45;setup&#45;&gt;jvm leiningen\ninstall</title>
<path fill="none" stroke="black" d="M5064.02,-457.015C5075.14,-442.597 5087.75,-426.253 5098.65,-412.112"/>
<polygon fill="black" stroke="black" points="5101.52,-414.128 5104.85,-404.072 5095.97,-409.853 5101.52,-414.128"/>
</g>
<!-- zhdk domina&#45;slave\ndomina&#45;ci&#45;executor\nsetup -->
<g id="node53" class="node"><title>zhdk domina&#45;slave\ndomina&#45;ci&#45;executor\nsetup</title>
<ellipse fill="none" stroke="black" cx="1655.73" cy="-496" rx="88.2352" ry="41.0911"/>
<text text-anchor="middle" x="1655.73" y="-507.2" font-family="Times,serif" font-size="14.00">zhdk domina&#45;slave</text>
<text text-anchor="middle" x="1655.73" y="-490.4" font-family="Times,serif" font-size="14.00">domina&#45;ci&#45;executor</text>
<text text-anchor="middle" x="1655.73" y="-473.6" font-family="Times,serif" font-size="14.00">setup</text>
</g>
<!-- zhdk domina&#45;slave\ndomina&#45;ci&#45;executor\nsetup&#45;&gt;invoke as user -->
<g id="edge49" class="edge"><title>zhdk domina&#45;slave\ndomina&#45;ci&#45;executor\nsetup&#45;&gt;invoke as user</title>
<path fill="none" stroke="black" d="M1568.07,-489.243C1473.14,-481.006 1318.32,-461.695 1191.73,-418 1177.28,-413.013 1162.32,-405.402 1149.59,-398.085"/>
<polygon fill="black" stroke="black" points="1151.15,-394.94 1140.76,-392.852 1147.58,-400.961 1151.15,-394.94"/>
</g>
<!-- zhdk domina&#45;ci&#45;executor\nas&#45;domina&#45;setup -->
<g id="node54" class="node"><title>zhdk domina&#45;ci&#45;executor\nas&#45;domina&#45;setup</title>
<ellipse fill="none" stroke="black" cx="1869.73" cy="-376" rx="110.311" ry="29.3315"/>
<text text-anchor="middle" x="1869.73" y="-378.8" font-family="Times,serif" font-size="14.00">zhdk domina&#45;ci&#45;executor</text>
<text text-anchor="middle" x="1869.73" y="-362" font-family="Times,serif" font-size="14.00">as&#45;domina&#45;setup</text>
</g>
<!-- zhdk domina&#45;slave\ndomina&#45;ci&#45;executor\nsetup&#45;&gt;zhdk domina&#45;ci&#45;executor\nas&#45;domina&#45;setup -->
<g id="edge50" class="edge"><title>zhdk domina&#45;slave\ndomina&#45;ci&#45;executor\nsetup&#45;&gt;zhdk domina&#45;ci&#45;executor\nas&#45;domina&#45;setup</title>
<path fill="none" stroke="black" d="M1711.96,-463.997C1743.4,-446.657 1782.47,-425.118 1813.85,-407.81"/>
<polygon fill="black" stroke="black" points="1815.84,-410.709 1822.91,-402.816 1812.46,-404.58 1815.84,-410.709"/>
</g>
<!-- zhdk domina&#45;slave\nruby install -->
<g id="node55" class="node"><title>zhdk domina&#45;slave\nruby install</title>
<ellipse fill="none" stroke="black" cx="2129.73" cy="-376" rx="86.044" ry="29.3315"/>
<text text-anchor="middle" x="2129.73" y="-378.8" font-family="Times,serif" font-size="14.00">zhdk domina&#45;slave</text>
<text text-anchor="middle" x="2129.73" y="-362" font-family="Times,serif" font-size="14.00">ruby install</text>
</g>
<!-- zhdk domina&#45;slave\nruby install&#45;&gt;ruby rbenv install -->
<g id="edge51" class="edge"><title>zhdk domina&#45;slave\nruby install&#45;&gt;ruby rbenv install</title>
<path fill="none" stroke="black" d="M2067.41,-355.477C2024.98,-341.383 1967.98,-320.867 1919.73,-298 1901.06,-289.151 1881.17,-277.594 1865.03,-267.623"/>
<polygon fill="black" stroke="black" points="1866.81,-264.612 1856.48,-262.274 1863.1,-270.546 1866.81,-264.612"/>
</g>
<!-- zhdk domina&#45;slave\nruby install&#45;&gt;ruby rbenv install\nruby 1.9.3 -->
<g id="edge52" class="edge"><title>zhdk domina&#45;slave\nruby install&#45;&gt;ruby rbenv install\nruby 1.9.3</title>
<path fill="none" stroke="black" d="M2184.73,-353.219C2208.29,-340.811 2233.4,-322.723 2246.73,-298 2269.06,-256.567 2257.06,-201.303 2244.54,-164.963"/>
<polygon fill="black" stroke="black" points="2247.72,-163.455 2241.02,-155.242 2241.13,-165.836 2247.72,-163.455"/>
</g>
<!-- zhdk domina&#45;slave\nruby install&#45;&gt;ruby rbenv install\nruby 2.0.0 -->
<g id="edge53" class="edge"><title>zhdk domina&#45;slave\nruby install&#45;&gt;ruby rbenv install\nruby 2.0.0</title>
<path fill="none" stroke="black" d="M2068.43,-355.19C2043.85,-347.768 2015.13,-339.75 1988.73,-334 1881.19,-310.58 1847.67,-334.174 1743.73,-298 1728.49,-292.697 1712.92,-284.754 1699.1,-276.663"/>
<polygon fill="black" stroke="black" points="1700.67,-273.521 1690.3,-271.351 1697.05,-279.515 1700.67,-273.521"/>
</g>
<!-- zhdk ci ruby\ngherkin setup\nragel lexer -->
<g id="node56" class="node"><title>zhdk ci ruby\ngherkin setup\nragel lexer</title>
<ellipse fill="none" stroke="black" cx="2173.73" cy="-245" rx="64.3877" ry="41.0911"/>
<text text-anchor="middle" x="2173.73" y="-256.2" font-family="Times,serif" font-size="14.00">zhdk ci ruby</text>
<text text-anchor="middle" x="2173.73" y="-239.4" font-family="Times,serif" font-size="14.00">gherkin setup</text>
<text text-anchor="middle" x="2173.73" y="-222.6" font-family="Times,serif" font-size="14.00">ragel lexer</text>
</g>
<!-- zhdk domina&#45;slave\nruby install&#45;&gt;zhdk ci ruby\ngherkin setup\nragel lexer -->
<g id="edge54" class="edge"><title>zhdk domina&#45;slave\nruby install&#45;&gt;zhdk ci ruby\ngherkin setup\nragel lexer</title>
<path fill="none" stroke="black" d="M2139.39,-346.69C2144.55,-331.547 2151.06,-312.467 2157.02,-295"/>
<polygon fill="black" stroke="black" points="2160.34,-296.092 2160.26,-285.497 2153.72,-293.832 2160.34,-296.092"/>
</g>
</g>
</svg>
