<?xml version="1.0" encoding="UTF-8" standalone="no"?>
<!DOCTYPE svg PUBLIC "-//W3C//DTD SVG 1.1//EN"
 "http://www.w3.org/Graphics/SVG/1.1/DTD/svg11.dtd">
<!-- Generated by graphviz version 2.30.1 (20131017.1317)
 -->
<!-- Title: Debuntu call graph Pages: 1 -->
<svg width="2860pt" height="546pt"
 viewBox="0.00 0.00 2860.00 546.00" xmlns="http://www.w3.org/2000/svg" xmlns:xlink="http://www.w3.org/1999/xlink">
<g id="graph0" class="graph" transform="scale(1 1) rotate(0) translate(4 542)">
<title>Debuntu call graph</title>
<polygon fill="white" stroke="white" points="-4,5 -4,-542 2857,-542 2857,5 -4,5"/>
<!-- database postgresql\ninstall 9.2 -->
<g id="node1" class="node"><title>database postgresql\ninstall 9.2</title>
<ellipse fill="none" stroke="black" cx="1194" cy="-400" rx="88.3424" ry="29.3315"/>
<text text-anchor="middle" x="1194" y="-402.8" font-family="Times,serif" font-size="14.00">database postgresql</text>
<text text-anchor="middle" x="1194" y="-386" font-family="Times,serif" font-size="14.00">install 9.2</text>
</g>
<!-- database postgresql\nadd pgdg apt\nrepository -->
<g id="node2" class="node"><title>database postgresql\nadd pgdg apt\nrepository</title>
<ellipse fill="none" stroke="black" cx="1110" cy="-280" rx="88.3424" ry="41.0911"/>
<text text-anchor="middle" x="1110" y="-291.2" font-family="Times,serif" font-size="14.00">database postgresql</text>
<text text-anchor="middle" x="1110" y="-274.4" font-family="Times,serif" font-size="14.00">add pgdg apt</text>
<text text-anchor="middle" x="1110" y="-257.6" font-family="Times,serif" font-size="14.00">repository</text>
</g>
<!-- database postgresql\ninstall 9.2&#45;&gt;database postgresql\nadd pgdg apt\nrepository -->
<g id="edge1" class="edge"><title>database postgresql\ninstall 9.2&#45;&gt;database postgresql\nadd pgdg apt\nrepository</title>
<path fill="none" stroke="black" d="M1174.09,-371.036C1164.93,-358.16 1153.8,-342.528 1143.41,-327.926"/>
<polygon fill="black" stroke="black" points="1146.04,-325.594 1137.39,-319.477 1140.34,-329.653 1146.04,-325.594"/>
</g>
<!-- invoke as user -->
<g id="node3" class="node"><title>invoke as user</title>
<ellipse fill="none" stroke="black" cx="1283" cy="-280" rx="65.9227" ry="18"/>
<text text-anchor="middle" x="1283" y="-274.4" font-family="Times,serif" font-size="14.00">invoke as user</text>
</g>
<!-- meta write functions\nfor sourcing -->
<g id="node4" class="node"><title>meta write functions\nfor sourcing</title>
<ellipse fill="none" stroke="black" cx="942" cy="-149" rx="92.527" ry="29.3315"/>
<text text-anchor="middle" x="942" y="-151.8" font-family="Times,serif" font-size="14.00">meta write functions</text>
<text text-anchor="middle" x="942" y="-135" font-family="Times,serif" font-size="14.00">for sourcing</text>
</g>
<!-- invoke as user&#45;&gt;meta write functions\nfor sourcing -->
<g id="edge2" class="edge"><title>invoke as user&#45;&gt;meta write functions\nfor sourcing</title>
<path fill="none" stroke="black" d="M1258.15,-263.315C1243.69,-254.779 1224.85,-244.637 1207,-238 1137.46,-212.139 1113.83,-227.05 1044,-202 1027.27,-195.997 1009.77,-187.841 994.095,-179.769"/>
<polygon fill="black" stroke="black" points="995.574,-176.593 985.093,-175.043 992.32,-182.79 995.574,-176.593"/>
</g>
<!-- jvm open jdk\ninstall -->
<g id="node5" class="node"><title>jvm open jdk\ninstall</title>
<ellipse fill="none" stroke="black" cx="747" cy="-280" rx="63.3349" ry="29.3315"/>
<text text-anchor="middle" x="747" y="-282.8" font-family="Times,serif" font-size="14.00">jvm open jdk</text>
<text text-anchor="middle" x="747" y="-266" font-family="Times,serif" font-size="14.00">install</text>
</g>
<!-- system meta\nos&#45;name -->
<g id="node6" class="node"><title>system meta\nos&#45;name</title>
<ellipse fill="none" stroke="black" cx="583" cy="-149" rx="60.2889" ry="29.3315"/>
<text text-anchor="middle" x="583" y="-151.8" font-family="Times,serif" font-size="14.00">system meta</text>
<text text-anchor="middle" x="583" y="-135" font-family="Times,serif" font-size="14.00">os&#45;name</text>
</g>
<!-- jvm open jdk\ninstall&#45;&gt;system meta\nos&#45;name -->
<g id="edge3" class="edge"><title>jvm open jdk\ninstall&#45;&gt;system meta\nos&#45;name</title>
<path fill="none" stroke="black" d="M715.379,-254.128C688.778,-233.204 650.629,-203.196 622.111,-180.764"/>
<polygon fill="black" stroke="black" points="623.991,-177.79 613.968,-174.359 619.664,-183.292 623.991,-177.79"/>
</g>
<!-- rails&#45;server\nsetup -->
<g id="node7" class="node"><title>rails&#45;server\nsetup</title>
<ellipse fill="none" stroke="black" cx="843" cy="-508" rx="55.2576" ry="29.3315"/>
<text text-anchor="middle" x="843" y="-510.8" font-family="Times,serif" font-size="14.00">rails&#45;server</text>
<text text-anchor="middle" x="843" y="-494" font-family="Times,serif" font-size="14.00">setup</text>
</g>
<!-- torquebox install\n3.0.0 -->
<g id="node8" class="node"><title>torquebox install\n3.0.0</title>
<ellipse fill="none" stroke="black" cx="591" cy="-400" rx="78.1885" ry="29.3315"/>
<text text-anchor="middle" x="591" y="-402.8" font-family="Times,serif" font-size="14.00">torquebox install</text>
<text text-anchor="middle" x="591" y="-386" font-family="Times,serif" font-size="14.00">3.0.0</text>
</g>
<!-- rails&#45;server\nsetup&#45;&gt;torquebox install\n3.0.0 -->
<g id="edge4" class="edge"><title>rails&#45;server\nsetup&#45;&gt;torquebox install\n3.0.0</title>
<path fill="none" stroke="black" d="M800.252,-489.019C759.263,-471.777 697,-445.587 651.042,-426.256"/>
<polygon fill="black" stroke="black" points="652.362,-423.014 641.787,-422.363 649.648,-429.467 652.362,-423.014"/>
</g>
<!-- rails&#45;server\nsetup&#45;&gt;database postgresql\ninstall 9.2 -->
<g id="edge5" class="edge"><title>rails&#45;server\nsetup&#45;&gt;database postgresql\ninstall 9.2</title>
<path fill="none" stroke="black" d="M890.337,-492.704C949.283,-474.903 1050.64,-444.293 1119.91,-423.374"/>
<polygon fill="black" stroke="black" points="1121.33,-426.602 1129.89,-420.361 1119.31,-419.901 1121.33,-426.602"/>
</g>
<!-- database postgresql\nadd superuser -->
<g id="node9" class="node"><title>database postgresql\nadd superuser</title>
<ellipse fill="none" stroke="black" cx="960" cy="-400" rx="88.3424" ry="29.3315"/>
<text text-anchor="middle" x="960" y="-402.8" font-family="Times,serif" font-size="14.00">database postgresql</text>
<text text-anchor="middle" x="960" y="-386" font-family="Times,serif" font-size="14.00">add superuser</text>
</g>
<!-- rails&#45;server\nsetup&#45;&gt;database postgresql\nadd superuser -->
<g id="edge6" class="edge"><title>rails&#45;server\nsetup&#45;&gt;database postgresql\nadd superuser</title>
<path fill="none" stroke="black" d="M870.431,-482.148C886.011,-468.032 905.733,-450.165 922.703,-434.791"/>
<polygon fill="black" stroke="black" points="925.22,-437.233 930.281,-427.925 920.52,-432.045 925.22,-437.233"/>
</g>
<!-- rails&#45;server\nsetup&#45;&gt;invoke as user -->
<g id="edge7" class="edge"><title>rails&#45;server\nsetup&#45;&gt;invoke as user</title>
<path fill="none" stroke="black" d="M837.302,-478.641C832.333,-444.852 830.203,-389.078 862,-358 917.125,-304.121 1133.35,-344.732 1207,-322 1222.13,-317.33 1237.71,-309.534 1250.8,-301.987"/>
<polygon fill="black" stroke="black" points="1252.63,-304.971 1259.42,-296.843 1249.04,-298.959 1252.63,-304.971"/>
</g>
<!-- rails&#45;server\nsetup&#45;as&#45;torquebox -->
<g id="node10" class="node"><title>rails&#45;server\nsetup&#45;as&#45;torquebox</title>
<ellipse fill="none" stroke="black" cx="916" cy="-280" rx="87.2835" ry="29.3315"/>
<text text-anchor="middle" x="916" y="-282.8" font-family="Times,serif" font-size="14.00">rails&#45;server</text>
<text text-anchor="middle" x="916" y="-266" font-family="Times,serif" font-size="14.00">setup&#45;as&#45;torquebox</text>
</g>
<!-- rails&#45;server\nsetup&#45;&gt;rails&#45;server\nsetup&#45;as&#45;torquebox -->
<g id="edge8" class="edge"><title>rails&#45;server\nsetup&#45;&gt;rails&#45;server\nsetup&#45;as&#45;torquebox</title>
<path fill="none" stroke="black" d="M832.368,-479.002C822.367,-447.994 811.343,-397.208 829,-358 837.037,-340.155 851.48,-324.775 866.318,-312.556"/>
<polygon fill="black" stroke="black" points="868.85,-315.019 874.564,-306.097 864.534,-309.508 868.85,-315.019"/>
</g>
<!-- torquebox install\n3.0.0&#45;&gt;jvm open jdk\ninstall -->
<g id="edge20" class="edge"><title>torquebox install\n3.0.0&#45;&gt;jvm open jdk\ninstall</title>
<path fill="none" stroke="black" d="M624.85,-373.396C648.946,-355.169 681.424,-330.602 706.834,-311.382"/>
<polygon fill="black" stroke="black" points="708.952,-314.169 714.816,-305.345 704.729,-308.586 708.952,-314.169"/>
</g>
<!-- torquebox setup\nenv loader -->
<g id="node24" class="node"><title>torquebox setup\nenv loader</title>
<ellipse fill="none" stroke="black" cx="423" cy="-280" rx="74.2377" ry="29.3315"/>
<text text-anchor="middle" x="423" y="-282.8" font-family="Times,serif" font-size="14.00">torquebox setup</text>
<text text-anchor="middle" x="423" y="-266" font-family="Times,serif" font-size="14.00">env loader</text>
</g>
<!-- torquebox install\n3.0.0&#45;&gt;torquebox setup\nenv loader -->
<g id="edge21" class="edge"><title>torquebox install\n3.0.0&#45;&gt;torquebox setup\nenv loader</title>
<path fill="none" stroke="black" d="M554.96,-373.686C529.184,-355.582 494.348,-331.113 466.941,-311.863"/>
<polygon fill="black" stroke="black" points="468.887,-308.953 458.692,-306.069 464.863,-314.681 468.887,-308.953"/>
</g>
<!-- torquebox setup\nlogrotate -->
<g id="node25" class="node"><title>torquebox setup\nlogrotate</title>
<ellipse fill="none" stroke="black" cx="591" cy="-280" rx="74.2377" ry="29.3315"/>
<text text-anchor="middle" x="591" y="-282.8" font-family="Times,serif" font-size="14.00">torquebox setup</text>
<text text-anchor="middle" x="591" y="-266" font-family="Times,serif" font-size="14.00">logrotate</text>
</g>
<!-- torquebox install\n3.0.0&#45;&gt;torquebox setup\nlogrotate -->
<g id="edge22" class="edge"><title>torquebox install\n3.0.0&#45;&gt;torquebox setup\nlogrotate</title>
<path fill="none" stroke="black" d="M591,-370.435C591,-355.329 591,-336.556 591,-320.115"/>
<polygon fill="black" stroke="black" points="594.5,-319.71 591,-309.71 587.5,-319.71 594.5,-319.71"/>
</g>
<!-- torquebox setup\nstart stop\nscripts -->
<g id="node26" class="node"><title>torquebox setup\nstart stop\nscripts</title>
<ellipse fill="none" stroke="black" cx="255" cy="-280" rx="74.2377" ry="41.0911"/>
<text text-anchor="middle" x="255" y="-291.2" font-family="Times,serif" font-size="14.00">torquebox setup</text>
<text text-anchor="middle" x="255" y="-274.4" font-family="Times,serif" font-size="14.00">start stop</text>
<text text-anchor="middle" x="255" y="-257.6" font-family="Times,serif" font-size="14.00">scripts</text>
</g>
<!-- torquebox install\n3.0.0&#45;&gt;torquebox setup\nstart stop\nscripts -->
<g id="edge23" class="edge"><title>torquebox install\n3.0.0&#45;&gt;torquebox setup\nstart stop\nscripts</title>
<path fill="none" stroke="black" d="M527.663,-382.63C476.124,-368.602 401.886,-346.776 339,-322 332.149,-319.301 325.088,-316.27 318.106,-313.111"/>
<polygon fill="black" stroke="black" points="319.207,-309.764 308.662,-308.742 316.268,-316.117 319.207,-309.764"/>
</g>
<!-- ruby rbenv install -->
<g id="node11" class="node"><title>ruby rbenv install</title>
<ellipse fill="none" stroke="black" cx="1282" cy="-149" rx="79.2379" ry="18"/>
<text text-anchor="middle" x="1282" y="-143.4" font-family="Times,serif" font-size="14.00">ruby rbenv install</text>
</g>
<!-- rails&#45;server\nsetup&#45;as&#45;torquebox&#45;&gt;ruby rbenv install -->
<g id="edge9" class="edge"><title>rails&#45;server\nsetup&#45;as&#45;torquebox&#45;&gt;ruby rbenv install</title>
<path fill="none" stroke="black" d="M965.583,-255.495C980.29,-249.163 996.588,-242.758 1012,-238 1090.79,-213.675 1116.96,-231.394 1194,-202 1213.86,-194.421 1234.41,-182.546 1250.65,-172.056"/>
<polygon fill="black" stroke="black" points="1252.78,-174.841 1259.2,-166.407 1248.92,-169.002 1252.78,-174.841"/>
</g>
<!-- ruby rbenv install\nruby 2.0.0 -->
<g id="node12" class="node"><title>ruby rbenv install\nruby 2.0.0</title>
<ellipse fill="none" stroke="black" cx="750" cy="-149" rx="81.2202" ry="29.3315"/>
<text text-anchor="middle" x="750" y="-151.8" font-family="Times,serif" font-size="14.00">ruby rbenv install</text>
<text text-anchor="middle" x="750" y="-135" font-family="Times,serif" font-size="14.00">ruby 2.0.0</text>
</g>
<!-- rails&#45;server\nsetup&#45;as&#45;torquebox&#45;&gt;ruby rbenv install\nruby 2.0.0 -->
<g id="edge10" class="edge"><title>rails&#45;server\nsetup&#45;as&#45;torquebox&#45;&gt;ruby rbenv install\nruby 2.0.0</title>
<path fill="none" stroke="black" d="M882.007,-252.584C855.762,-232.188 819.332,-203.878 791.389,-182.164"/>
<polygon fill="black" stroke="black" points="793.424,-179.313 783.38,-175.94 789.129,-184.84 793.424,-179.313"/>
</g>
<!-- ruby rbenv install\nruby -->
<g id="node14" class="node"><title>ruby rbenv install\nruby</title>
<ellipse fill="none" stroke="black" cx="750" cy="-30" rx="81.2202" ry="29.3315"/>
<text text-anchor="middle" x="750" y="-32.8" font-family="Times,serif" font-size="14.00">ruby rbenv install</text>
<text text-anchor="middle" x="750" y="-16" font-family="Times,serif" font-size="14.00">ruby</text>
</g>
<!-- ruby rbenv install\nruby 2.0.0&#45;&gt;ruby rbenv install\nruby -->
<g id="edge13" class="edge"><title>ruby rbenv install\nruby 2.0.0&#45;&gt;ruby rbenv install\nruby</title>
<path fill="none" stroke="black" d="M750,-119.379C750,-104.506 750,-86.1109 750,-69.9607"/>
<polygon fill="black" stroke="black" points="753.5,-69.7314 750,-59.7314 746.5,-69.7315 753.5,-69.7314"/>
</g>
<!-- ruby rbenv install\njruby 1.7.4 -->
<g id="node13" class="node"><title>ruby rbenv install\njruby 1.7.4</title>
<ellipse fill="none" stroke="black" cx="81" cy="-149" rx="81.2202" ry="29.3315"/>
<text text-anchor="middle" x="81" y="-151.8" font-family="Times,serif" font-size="14.00">ruby rbenv install</text>
<text text-anchor="middle" x="81" y="-135" font-family="Times,serif" font-size="14.00">jruby 1.7.4</text>
</g>
<!-- ruby rbenv install\njruby 1.7.4&#45;&gt;ruby rbenv install\nruby -->
<g id="edge11" class="edge"><title>ruby rbenv install\njruby 1.7.4&#45;&gt;ruby rbenv install\nruby</title>
<path fill="none" stroke="black" d="M117.031,-122.605C132.876,-112.677 152.144,-102.204 171,-96 259.584,-66.8548 520.929,-45.9736 660.216,-36.5717"/>
<polygon fill="black" stroke="black" points="660.695,-40.0475 670.439,-35.8874 660.228,-33.0632 660.695,-40.0475"/>
</g>
<!-- ruby rbenv install\nruby 1.9.3 -->
<g id="node15" class="node"><title>ruby rbenv install\nruby 1.9.3</title>
<ellipse fill="none" stroke="black" cx="1823" cy="-149" rx="81.2202" ry="29.3315"/>
<text text-anchor="middle" x="1823" y="-151.8" font-family="Times,serif" font-size="14.00">ruby rbenv install</text>
<text text-anchor="middle" x="1823" y="-135" font-family="Times,serif" font-size="14.00">ruby 1.9.3</text>
</g>
<!-- ruby rbenv install\nruby 1.9.3&#45;&gt;ruby rbenv install\nruby -->
<g id="edge12" class="edge"><title>ruby rbenv install\nruby 1.9.3&#45;&gt;ruby rbenv install\nruby</title>
<path fill="none" stroke="black" d="M1787.1,-122.458C1771.02,-112.376 1751.34,-101.826 1732,-96 1566.92,-46.2651 1051.8,-34.55 841.156,-31.8189"/>
<polygon fill="black" stroke="black" points="841.098,-28.318 831.054,-31.6918 841.009,-35.3174 841.098,-28.318"/>
</g>
<!-- ssh download\nand add to\nauthorized\nkeys -->
<g id="node16" class="node"><title>ssh download\nand add to\nauthorized\nkeys</title>
<ellipse fill="none" stroke="black" cx="2124" cy="-149" rx="65.2282" ry="53.3494"/>
<text text-anchor="middle" x="2124" y="-168.6" font-family="Times,serif" font-size="14.00">ssh download</text>
<text text-anchor="middle" x="2124" y="-151.8" font-family="Times,serif" font-size="14.00">and add to</text>
<text text-anchor="middle" x="2124" y="-135" font-family="Times,serif" font-size="14.00">authorized</text>
<text text-anchor="middle" x="2124" y="-118.2" font-family="Times,serif" font-size="14.00">keys</text>
</g>
<!-- ssh add to authorized\nkeys -->
<g id="node17" class="node"><title>ssh add to authorized\nkeys</title>
<ellipse fill="none" stroke="black" cx="2124" cy="-30" rx="95.247" ry="29.3315"/>
<text text-anchor="middle" x="2124" y="-32.8" font-family="Times,serif" font-size="14.00">ssh add to authorized</text>
<text text-anchor="middle" x="2124" y="-16" font-family="Times,serif" font-size="14.00">keys</text>
</g>
<!-- ssh download\nand add to\nauthorized\nkeys&#45;&gt;ssh add to authorized\nkeys -->
<g id="edge14" class="edge"><title>ssh download\nand add to\nauthorized\nkeys&#45;&gt;ssh add to authorized\nkeys</title>
<path fill="none" stroke="black" d="M2124,-95.6598C2124,-86.9325 2124,-78.0204 2124,-69.7119"/>
<polygon fill="black" stroke="black" points="2127.5,-69.5699 2124,-59.57 2120.5,-69.57 2127.5,-69.5699"/>
</g>
<!-- system setup -->
<g id="node18" class="node"><title>system setup</title>
<ellipse fill="none" stroke="black" cx="2485" cy="-508" rx="60.4901" ry="18"/>
<text text-anchor="middle" x="2485" y="-502.4" font-family="Times,serif" font-size="14.00">system setup</text>
</g>
<!-- system apt upgrade -->
<g id="node19" class="node"><title>system apt upgrade</title>
<ellipse fill="none" stroke="black" cx="2178" cy="-400" rx="85.3851" ry="18"/>
<text text-anchor="middle" x="2178" y="-394.4" font-family="Times,serif" font-size="14.00">system apt upgrade</text>
</g>
<!-- system setup&#45;&gt;system apt upgrade -->
<g id="edge15" class="edge"><title>system setup&#45;&gt;system apt upgrade</title>
<path fill="none" stroke="black" d="M2441.9,-495.291C2398.74,-483.213 2330.63,-463.197 2273,-442 2255.81,-435.676 2237.23,-427.883 2221.11,-420.797"/>
<polygon fill="black" stroke="black" points="2222.49,-417.579 2211.93,-416.722 2219.65,-423.978 2222.49,-417.579"/>
</g>
<!-- system misc\nset us&#45;utf8\nlocale -->
<g id="node20" class="node"><title>system misc\nset us&#45;utf8\nlocale</title>
<ellipse fill="none" stroke="black" cx="2342" cy="-400" rx="59.4771" ry="41.0911"/>
<text text-anchor="middle" x="2342" y="-411.2" font-family="Times,serif" font-size="14.00">system misc</text>
<text text-anchor="middle" x="2342" y="-394.4" font-family="Times,serif" font-size="14.00">set us&#45;utf8</text>
<text text-anchor="middle" x="2342" y="-377.6" font-family="Times,serif" font-size="14.00">locale</text>
</g>
<!-- system setup&#45;&gt;system misc\nset us&#45;utf8\nlocale -->
<g id="edge16" class="edge"><title>system setup&#45;&gt;system misc\nset us&#45;utf8\nlocale</title>
<path fill="none" stroke="black" d="M2463.59,-491.131C2444.27,-476.809 2415.14,-455.219 2390.24,-436.76"/>
<polygon fill="black" stroke="black" points="2392.1,-433.778 2381.98,-430.635 2387.93,-439.402 2392.1,-433.778"/>
</g>
<!-- system install\nbasics -->
<g id="node21" class="node"><title>system install\nbasics</title>
<ellipse fill="none" stroke="black" cx="2485" cy="-400" rx="65.2282" ry="29.3315"/>
<text text-anchor="middle" x="2485" y="-402.8" font-family="Times,serif" font-size="14.00">system install</text>
<text text-anchor="middle" x="2485" y="-386" font-family="Times,serif" font-size="14.00">basics</text>
</g>
<!-- system setup&#45;&gt;system install\nbasics -->
<g id="edge17" class="edge"><title>system setup&#45;&gt;system install\nbasics</title>
<path fill="none" stroke="black" d="M2485,-489.969C2485,-476.496 2485,-457.151 2485,-439.939"/>
<polygon fill="black" stroke="black" points="2488.5,-439.569 2485,-429.569 2481.5,-439.57 2488.5,-439.569"/>
</g>
<!-- system misc\nvim setup -->
<g id="node22" class="node"><title>system misc\nvim setup</title>
<ellipse fill="none" stroke="black" cx="2628" cy="-400" rx="59.4771" ry="29.3315"/>
<text text-anchor="middle" x="2628" y="-402.8" font-family="Times,serif" font-size="14.00">system misc</text>
<text text-anchor="middle" x="2628" y="-386" font-family="Times,serif" font-size="14.00">vim setup</text>
</g>
<!-- system setup&#45;&gt;system misc\nvim setup -->
<g id="edge18" class="edge"><title>system setup&#45;&gt;system misc\nvim setup</title>
<path fill="none" stroke="black" d="M2506.41,-491.131C2527.78,-475.288 2561.15,-450.55 2587.53,-430.995"/>
<polygon fill="black" stroke="black" points="2589.88,-433.613 2595.83,-424.846 2585.71,-427.99 2589.88,-433.613"/>
</g>
<!-- system misc\netckeeper setup -->
<g id="node23" class="node"><title>system misc\netckeeper setup</title>
<ellipse fill="none" stroke="black" cx="2779" cy="-400" rx="72.4007" ry="29.3315"/>
<text text-anchor="middle" x="2779" y="-402.8" font-family="Times,serif" font-size="14.00">system misc</text>
<text text-anchor="middle" x="2779" y="-386" font-family="Times,serif" font-size="14.00">etckeeper setup</text>
</g>
<!-- system setup&#45;&gt;system misc\netckeeper setup -->
<g id="edge19" class="edge"><title>system setup&#45;&gt;system misc\netckeeper setup</title>
<path fill="none" stroke="black" d="M2529.35,-495.563C2572.55,-483.908 2639.73,-464.398 2696,-442 2706.18,-437.95 2716.81,-433.151 2726.95,-428.289"/>
<polygon fill="black" stroke="black" points="2728.64,-431.359 2736.09,-423.826 2725.57,-425.07 2728.64,-431.359"/>
</g>
<!-- torquebox setup\nstart stop\nscripts&#45;&gt;system meta\nos&#45;name -->
<g id="edge24" class="edge"><title>torquebox setup\nstart stop\nscripts&#45;&gt;system meta\nos&#45;name</title>
<path fill="none" stroke="black" d="M307.95,-250.77C318.075,-246.059 328.725,-241.556 339,-238 410.751,-213.167 436.16,-231.787 506,-202 519.134,-196.398 532.391,-188.454 544.115,-180.456"/>
<polygon fill="black" stroke="black" points="546.194,-183.273 552.358,-174.656 542.166,-177.548 546.194,-183.273"/>
</g>
<!-- torquebox setup\ninit -->
<g id="node27" class="node"><title>torquebox setup\ninit</title>
<ellipse fill="none" stroke="black" cx="423" cy="-149" rx="74.2377" ry="29.3315"/>
<text text-anchor="middle" x="423" y="-151.8" font-family="Times,serif" font-size="14.00">torquebox setup</text>
<text text-anchor="middle" x="423" y="-135" font-family="Times,serif" font-size="14.00">init</text>
</g>
<!-- torquebox setup\nstart stop\nscripts&#45;&gt;torquebox setup\ninit -->
<g id="edge25" class="edge"><title>torquebox setup\nstart stop\nscripts&#45;&gt;torquebox setup\ninit</title>
<path fill="none" stroke="black" d="M297.828,-246.114C323.618,-226.311 356.288,-201.226 381.783,-181.648"/>
<polygon fill="black" stroke="black" points="383.991,-184.366 389.791,-175.499 379.728,-178.814 383.991,-184.366"/>
</g>
<!-- torquebox setup\nupstart -->
<g id="node28" class="node"><title>torquebox setup\nupstart</title>
<ellipse fill="none" stroke="black" cx="255" cy="-149" rx="74.2377" ry="29.3315"/>
<text text-anchor="middle" x="255" y="-151.8" font-family="Times,serif" font-size="14.00">torquebox setup</text>
<text text-anchor="middle" x="255" y="-135" font-family="Times,serif" font-size="14.00">upstart</text>
</g>
<!-- torquebox setup\nstart stop\nscripts&#45;&gt;torquebox setup\nupstart -->
<g id="edge26" class="edge"><title>torquebox setup\nstart stop\nscripts&#45;&gt;torquebox setup\nupstart</title>
<path fill="none" stroke="black" d="M255,-238.538C255,-222.688 255,-204.579 255,-188.886"/>
<polygon fill="black" stroke="black" points="258.5,-188.464 255,-178.464 251.5,-188.464 258.5,-188.464"/>
</g>
<!-- zhdk ci ruby\ninstall -->
<g id="node29" class="node"><title>zhdk ci ruby\ninstall</title>
<ellipse fill="none" stroke="black" cx="1667" cy="-280" rx="60.197" ry="29.3315"/>
<text text-anchor="middle" x="1667" y="-282.8" font-family="Times,serif" font-size="14.00">zhdk ci ruby</text>
<text text-anchor="middle" x="1667" y="-266" font-family="Times,serif" font-size="14.00">install</text>
</g>
<!-- zhdk ci ruby\ninstall&#45;&gt;ruby rbenv install -->
<g id="edge27" class="edge"><title>zhdk ci ruby\ninstall&#45;&gt;ruby rbenv install</title>
<path fill="none" stroke="black" d="M1633,-255.673C1621.94,-249.035 1609.33,-242.416 1597,-238 1501.24,-203.706 1466.77,-236.242 1371,-202 1350.67,-194.731 1329.73,-182.763 1313.28,-172.14"/>
<polygon fill="black" stroke="black" points="1314.9,-169.016 1304.63,-166.415 1311.04,-174.853 1314.9,-169.016"/>
</g>
<!-- zhdk ci ruby\ninstall&#45;&gt;ruby rbenv install\nruby 1.9.3 -->
<g id="edge28" class="edge"><title>zhdk ci ruby\ninstall&#45;&gt;ruby rbenv install\nruby 1.9.3</title>
<path fill="none" stroke="black" d="M1697.08,-254.128C1721.63,-233.824 1756.53,-204.968 1783.36,-182.78"/>
<polygon fill="black" stroke="black" points="1785.93,-185.194 1791.41,-176.124 1781.47,-179.8 1785.93,-185.194"/>
</g>
<!-- zhdk ci ruby\ngherkin setup\nragel lexer -->
<g id="node30" class="node"><title>zhdk ci ruby\ngherkin setup\nragel lexer</title>
<ellipse fill="none" stroke="black" cx="1659" cy="-149" rx="64.3877" ry="41.0911"/>
<text text-anchor="middle" x="1659" y="-160.2" font-family="Times,serif" font-size="14.00">zhdk ci ruby</text>
<text text-anchor="middle" x="1659" y="-143.4" font-family="Times,serif" font-size="14.00">gherkin setup</text>
<text text-anchor="middle" x="1659" y="-126.6" font-family="Times,serif" font-size="14.00">ragel lexer</text>
</g>
<!-- zhdk ci ruby\ninstall&#45;&gt;zhdk ci ruby\ngherkin setup\nragel lexer -->
<g id="edge29" class="edge"><title>zhdk ci ruby\ninstall&#45;&gt;zhdk ci ruby\ngherkin setup\nragel lexer</title>
<path fill="none" stroke="black" d="M1665.22,-250.371C1664.32,-235.741 1663.19,-217.501 1662.14,-200.599"/>
<polygon fill="black" stroke="black" points="1665.61,-200.055 1661.5,-190.291 1658.62,-200.489 1665.61,-200.055"/>
</g>
<!-- zhdk complete&#45;setup -->
<g id="node31" class="node"><title>zhdk complete&#45;setup</title>
<ellipse fill="none" stroke="black" cx="1311" cy="-508" rx="91.3236" ry="18"/>
<text text-anchor="middle" x="1311" y="-502.4" font-family="Times,serif" font-size="14.00">zhdk complete&#45;setup</text>
</g>
<!-- zhdk complete&#45;setup&#45;&gt;jvm open jdk\ninstall -->
<g id="edge30" class="edge"><title>zhdk complete&#45;setup&#45;&gt;jvm open jdk\ninstall</title>
<path fill="none" stroke="black" d="M1231.77,-499.039C1187.44,-490.969 1133.69,-474.719 1096,-442 1064.92,-415.019 1089.93,-382.694 1057,-358 971.763,-294.081 920.75,-356.649 820,-322 810.412,-318.703 800.63,-314.159 791.471,-309.292"/>
<polygon fill="black" stroke="black" points="792.994,-306.134 782.55,-304.352 789.603,-312.258 792.994,-306.134"/>
</g>
<!-- zhdk domina&#45;ci&#45;executor\nsetup -->
<g id="node32" class="node"><title>zhdk domina&#45;ci&#45;executor\nsetup</title>
<ellipse fill="none" stroke="black" cx="1450" cy="-400" rx="110.311" ry="29.3315"/>
<text text-anchor="middle" x="1450" y="-402.8" font-family="Times,serif" font-size="14.00">zhdk domina&#45;ci&#45;executor</text>
<text text-anchor="middle" x="1450" y="-386" font-family="Times,serif" font-size="14.00">setup</text>
</g>
<!-- zhdk complete&#45;setup&#45;&gt;zhdk domina&#45;ci&#45;executor\nsetup -->
<g id="edge31" class="edge"><title>zhdk complete&#45;setup&#45;&gt;zhdk domina&#45;ci&#45;executor\nsetup</title>
<path fill="none" stroke="black" d="M1332.72,-490.438C1352.41,-475.423 1382.01,-452.848 1406.55,-434.135"/>
<polygon fill="black" stroke="black" points="1408.83,-436.801 1414.65,-427.954 1404.58,-431.235 1408.83,-436.801"/>
</g>
<!-- zhdk complete&#45;setup&#45;&gt;database postgresql\ninstall 9.2 -->
<g id="edge32" class="edge"><title>zhdk complete&#45;setup&#45;&gt;database postgresql\ninstall 9.2</title>
<path fill="none" stroke="black" d="M1292.46,-490.204C1276.12,-475.399 1251.81,-453.376 1231.44,-434.916"/>
<polygon fill="black" stroke="black" points="1233.61,-432.159 1223.84,-428.039 1228.91,-437.347 1233.61,-432.159"/>
</g>
<!-- zhdk complete&#45;setup&#45;&gt;database postgresql\nadd superuser -->
<g id="edge33" class="edge"><title>zhdk complete&#45;setup&#45;&gt;database postgresql\nadd superuser</title>
<path fill="none" stroke="black" d="M1253.29,-493.994C1202.65,-482.08 1127.27,-463.127 1063,-442 1049.76,-437.647 1035.77,-432.476 1022.51,-427.298"/>
<polygon fill="black" stroke="black" points="1023.59,-423.962 1013,-423.538 1021.01,-430.471 1023.59,-423.962"/>
</g>
<!-- ci tightvnc\ninstall -->
<g id="node33" class="node"><title>ci tightvnc\ninstall</title>
<ellipse fill="none" stroke="black" cx="2021" cy="-400" rx="53.0661" ry="29.3315"/>
<text text-anchor="middle" x="2021" y="-402.8" font-family="Times,serif" font-size="14.00">ci tightvnc</text>
<text text-anchor="middle" x="2021" y="-386" font-family="Times,serif" font-size="14.00">install</text>
</g>
<!-- zhdk complete&#45;setup&#45;&gt;ci tightvnc\ninstall -->
<g id="edge34" class="edge"><title>zhdk complete&#45;setup&#45;&gt;ci tightvnc\ninstall</title>
<path fill="none" stroke="black" d="M1399.17,-503.297C1551.46,-496.047 1857.17,-477.5 1958,-442 1966.41,-439.04 1974.81,-434.741 1982.62,-430.029"/>
<polygon fill="black" stroke="black" points="1984.6,-432.915 1991.14,-424.582 1980.83,-427.016 1984.6,-432.915"/>
</g>
<!-- zhdk complete&#45;setup&#45;&gt;invoke as user -->
<g id="edge35" class="edge"><title>zhdk complete&#45;setup&#45;&gt;invoke as user</title>
<path fill="none" stroke="black" d="M1308.85,-489.641C1304,-450.518 1292.19,-355.209 1286.37,-308.172"/>
<polygon fill="black" stroke="black" points="1289.82,-307.602 1285.12,-298.108 1282.88,-308.463 1289.82,-307.602"/>
</g>
<!-- zhdk complete&#45;setup&#45;as&#45;user -->
<g id="node34" class="node"><title>zhdk complete&#45;setup&#45;as&#45;user</title>
<ellipse fill="none" stroke="black" cx="1828" cy="-400" rx="121.171" ry="18"/>
<text text-anchor="middle" x="1828" y="-394.4" font-family="Times,serif" font-size="14.00">zhdk complete&#45;setup&#45;as&#45;user</text>
</g>
<!-- zhdk complete&#45;setup&#45;&gt;zhdk complete&#45;setup&#45;as&#45;user -->
<g id="edge36" class="edge"><title>zhdk complete&#45;setup&#45;&gt;zhdk complete&#45;setup&#45;as&#45;user</title>
<path fill="none" stroke="black" d="M1371.83,-494.529C1465.86,-475.25 1646.44,-438.225 1749.96,-417"/>
<polygon fill="black" stroke="black" points="1750.95,-420.371 1760.04,-414.933 1749.54,-413.513 1750.95,-420.371"/>
</g>
<!-- zhdk domina&#45;ci&#45;executor\nsetup&#45;&gt;invoke as user -->
<g id="edge44" class="edge"><title>zhdk domina&#45;ci&#45;executor\nsetup&#45;&gt;invoke as user</title>
<path fill="none" stroke="black" d="M1412.11,-372.224C1382.58,-351.362 1342.08,-322.747 1314.36,-303.161"/>
<polygon fill="black" stroke="black" points="1316.03,-300.053 1305.84,-297.141 1311.99,-305.77 1316.03,-300.053"/>
</g>
<!-- zhdk domina&#45;ci&#45;executor\nas&#45;domina&#45;setup -->
<g id="node39" class="node"><title>zhdk domina&#45;ci&#45;executor\nas&#45;domina&#45;setup</title>
<ellipse fill="none" stroke="black" cx="1478" cy="-280" rx="110.311" ry="29.3315"/>
<text text-anchor="middle" x="1478" y="-282.8" font-family="Times,serif" font-size="14.00">zhdk domina&#45;ci&#45;executor</text>
<text text-anchor="middle" x="1478" y="-266" font-family="Times,serif" font-size="14.00">as&#45;domina&#45;setup</text>
</g>
<!-- zhdk domina&#45;ci&#45;executor\nsetup&#45;&gt;zhdk domina&#45;ci&#45;executor\nas&#45;domina&#45;setup -->
<g id="edge45" class="edge"><title>zhdk domina&#45;ci&#45;executor\nsetup&#45;&gt;zhdk domina&#45;ci&#45;executor\nas&#45;domina&#45;setup</title>
<path fill="none" stroke="black" d="M1456.78,-370.435C1460.4,-355.185 1464.9,-336.198 1468.83,-319.646"/>
<polygon fill="black" stroke="black" points="1472.28,-320.248 1471.19,-309.71 1465.47,-318.632 1472.28,-320.248"/>
</g>
<!-- zhdk ssh add&#45;keys -->
<g id="node35" class="node"><title>zhdk ssh add&#45;keys</title>
<ellipse fill="none" stroke="black" cx="1828" cy="-280" rx="81.2634" ry="18"/>
<text text-anchor="middle" x="1828" y="-274.4" font-family="Times,serif" font-size="14.00">zhdk ssh add&#45;keys</text>
</g>
<!-- zhdk complete&#45;setup&#45;as&#45;user&#45;&gt;zhdk ssh add&#45;keys -->
<g id="edge37" class="edge"><title>zhdk complete&#45;setup&#45;as&#45;user&#45;&gt;zhdk ssh add&#45;keys</title>
<path fill="none" stroke="black" d="M1828,-381.842C1828,-362.528 1828,-330.891 1828,-308.201"/>
<polygon fill="black" stroke="black" points="1831.5,-308.179 1828,-298.179 1824.5,-308.179 1831.5,-308.179"/>
</g>
<!-- ci chromedriver\ninstall -->
<g id="node36" class="node"><title>ci chromedriver\ninstall</title>
<ellipse fill="none" stroke="black" cx="2270" cy="-280" rx="73.8819" ry="29.3315"/>
<text text-anchor="middle" x="2270" y="-282.8" font-family="Times,serif" font-size="14.00">ci chromedriver</text>
<text text-anchor="middle" x="2270" y="-266" font-family="Times,serif" font-size="14.00">install</text>
</g>
<!-- zhdk complete&#45;setup&#45;as&#45;user&#45;&gt;ci chromedriver\ninstall -->
<g id="edge38" class="edge"><title>zhdk complete&#45;setup&#45;as&#45;user&#45;&gt;ci chromedriver\ninstall</title>
<path fill="none" stroke="black" d="M1872.72,-383.222C1897.83,-374.814 1929.88,-364.827 1959,-358 2058.45,-334.682 2088.59,-352.741 2186,-322 2197.01,-318.525 2208.39,-313.814 2219.08,-308.823"/>
<polygon fill="black" stroke="black" points="2220.79,-311.886 2228.28,-304.389 2217.75,-305.581 2220.79,-311.886"/>
</g>
<!-- zhdk complete&#45;setup&#45;as&#45;user&#45;&gt;zhdk ci ruby\ninstall -->
<g id="edge39" class="edge"><title>zhdk complete&#45;setup&#45;as&#45;user&#45;&gt;zhdk ci ruby\ninstall</title>
<path fill="none" stroke="black" d="M1804.93,-382.093C1779.66,-363.57 1738.63,-333.496 1707.87,-310.956"/>
<polygon fill="black" stroke="black" points="1709.63,-307.903 1699.49,-304.815 1705.49,-313.549 1709.63,-307.903"/>
</g>
<!-- ci phantomjs\ninstall -->
<g id="node37" class="node"><title>ci phantomjs\ninstall</title>
<ellipse fill="none" stroke="black" cx="1990" cy="-280" rx="62.269" ry="29.3315"/>
<text text-anchor="middle" x="1990" y="-282.8" font-family="Times,serif" font-size="14.00">ci phantomjs</text>
<text text-anchor="middle" x="1990" y="-266" font-family="Times,serif" font-size="14.00">install</text>
</g>
<!-- zhdk complete&#45;setup&#45;as&#45;user&#45;&gt;ci phantomjs\ninstall -->
<g id="edge40" class="edge"><title>zhdk complete&#45;setup&#45;as&#45;user&#45;&gt;ci phantomjs\ninstall</title>
<path fill="none" stroke="black" d="M1851.21,-382.093C1876.56,-363.628 1917.67,-333.685 1948.58,-311.169"/>
<polygon fill="black" stroke="black" points="1950.99,-313.748 1957.01,-305.031 1946.86,-308.09 1950.99,-313.748"/>
</g>
<!-- ci tightvnc\nuser setup -->
<g id="node38" class="node"><title>ci tightvnc\nuser setup</title>
<ellipse fill="none" stroke="black" cx="2124" cy="-280" rx="53.0661" ry="29.3315"/>
<text text-anchor="middle" x="2124" y="-282.8" font-family="Times,serif" font-size="14.00">ci tightvnc</text>
<text text-anchor="middle" x="2124" y="-266" font-family="Times,serif" font-size="14.00">user setup</text>
</g>
<!-- zhdk complete&#45;setup&#45;as&#45;user&#45;&gt;ci tightvnc\nuser setup -->
<g id="edge41" class="edge"><title>zhdk complete&#45;setup&#45;as&#45;user&#45;&gt;ci tightvnc\nuser setup</title>
<path fill="none" stroke="black" d="M1877.09,-383.52C1940.31,-363.47 2044.1,-330.121 2061,-322 2068.69,-318.302 2076.57,-313.818 2084.03,-309.19"/>
<polygon fill="black" stroke="black" points="2086.02,-312.068 2092.56,-303.73 2082.25,-306.172 2086.02,-312.068"/>
</g>
<!-- zhdk ssh add&#45;keys&#45;&gt;ssh download\nand add to\nauthorized\nkeys -->
<g id="edge46" class="edge"><title>zhdk ssh add&#45;keys&#45;&gt;ssh download\nand add to\nauthorized\nkeys</title>
<path fill="none" stroke="black" d="M1859.51,-263.363C1876.81,-255.149 1898.79,-245.302 1919,-238 1975.38,-217.627 1994.71,-227.438 2049,-202 2055.51,-198.95 2062.07,-195.347 2068.45,-191.483"/>
<polygon fill="black" stroke="black" points="2070.44,-194.371 2077.03,-186.081 2066.71,-188.448 2070.44,-194.371"/>
</g>
<!-- setup scripts -->
<g id="node42" class="node"><title>setup scripts</title>
<ellipse fill="none" stroke="black" cx="1981" cy="-149" rx="59.0716" ry="18"/>
<text text-anchor="middle" x="1981" y="-143.4" font-family="Times,serif" font-size="14.00">setup scripts</text>
</g>
<!-- zhdk ssh add&#45;keys&#45;&gt;setup scripts -->
<g id="edge47" class="edge"><title>zhdk ssh add&#45;keys&#45;&gt;setup scripts</title>
<path fill="none" stroke="black" d="M1847.69,-262.4C1874.81,-239.537 1923.74,-198.28 1954.18,-172.614"/>
<polygon fill="black" stroke="black" points="1956.48,-175.253 1961.87,-166.131 1951.97,-169.901 1956.48,-175.253"/>
</g>
<!-- ci domina&#45;ci&#45;executor\ninstall -->
<g id="node40" class="node"><title>ci domina&#45;ci&#45;executor\ninstall</title>
<ellipse fill="none" stroke="black" cx="1478" cy="-149" rx="98.1629" ry="29.3315"/>
<text text-anchor="middle" x="1478" y="-151.8" font-family="Times,serif" font-size="14.00">ci domina&#45;ci&#45;executor</text>
<text text-anchor="middle" x="1478" y="-135" font-family="Times,serif" font-size="14.00">install</text>
</g>
<!-- zhdk domina&#45;ci&#45;executor\nas&#45;domina&#45;setup&#45;&gt;ci domina&#45;ci&#45;executor\ninstall -->
<g id="edge42" class="edge"><title>zhdk domina&#45;ci&#45;executor\nas&#45;domina&#45;setup&#45;&gt;ci domina&#45;ci&#45;executor\ninstall</title>
<path fill="none" stroke="black" d="M1478,-250.371C1478,-232.25 1478,-208.591 1478,-188.794"/>
<polygon fill="black" stroke="black" points="1481.5,-188.549 1478,-178.549 1474.5,-188.549 1481.5,-188.549"/>
</g>
<!-- jvm leiningen\ninstall -->
<g id="node41" class="node"><title>jvm leiningen\ninstall</title>
<ellipse fill="none" stroke="black" cx="1119" cy="-149" rx="66.0402" ry="29.3315"/>
<text text-anchor="middle" x="1119" y="-151.8" font-family="Times,serif" font-size="14.00">jvm leiningen</text>
<text text-anchor="middle" x="1119" y="-135" font-family="Times,serif" font-size="14.00">install</text>
</g>
<!-- zhdk domina&#45;ci&#45;executor\nas&#45;domina&#45;setup&#45;&gt;jvm leiningen\ninstall -->
<g id="edge43" class="edge"><title>zhdk domina&#45;ci&#45;executor\nas&#45;domina&#45;setup&#45;&gt;jvm leiningen\ninstall</title>
<path fill="none" stroke="black" d="M1414.59,-255.837C1396.44,-249.619 1376.55,-243.188 1358,-238 1286.13,-217.904 1262.4,-231.825 1194,-202 1181.5,-196.55 1168.93,-188.887 1157.75,-181.116"/>
<polygon fill="black" stroke="black" points="1159.65,-178.177 1149.49,-175.187 1155.57,-183.863 1159.65,-178.177"/>
</g>
</g>
</svg>
